<?xml version="1.0" encoding="UTF-8" standalone="no"?>
<!DOCTYPE svg PUBLIC "-//W3C//DTD SVG 1.1//EN" "http://www.w3.org/Graphics/SVG/1.1/DTD/svg11.dtd">
<svg width="100%" height="100%" viewBox="0 0 128 128" version="1.1" xmlns="http://www.w3.org/2000/svg" xmlns:xlink="http://www.w3.org/1999/xlink" xml:space="preserve" xmlns:serif="http://www.serif.com/" style="fill-rule:evenodd;clip-rule:evenodd;stroke-miterlimit:10;">
    <g transform="matrix(1,0,0,1,-7090.56,-2901.98)">
        <g transform="matrix(2.31957,0,0,25.1326,6794.33,2223.67)">
            <g transform="matrix(0.862228,0,0,0.079578,155.3,29.5357)">
                <g transform="matrix(1,0,0,1,-32,-32)">
                    <clipPath id="_clip1">
                        <rect x="0" y="0" width="64" height="64"/>
                    </clipPath>
                    <g clip-path="url(#_clip1)">
                        <g transform="matrix(1,0,0,1,0.5,0.5)">
                            <path d="M3,54C3,58.4 6.6,62 11,62C14,62 16.6,60.3 18,57.8C19.4,60.3 22,62 25,62C28,62 30.6,60.3 32,57.8C33.4,60.3 36,62 39,62C42,62 44.6,60.3 46,57.8C47.4,60.3 50,62 53,62C57.4,62 61,58.4 61,54" style="fill:none;fill-rule:nonzero;stroke:black;stroke-width:1px;"/>
                            <path d="M12,22L5,20.4" style="fill:none;fill-rule:nonzero;stroke:black;stroke-width:1px;"/>
                            <path d="M12,34L5,35.6" style="fill:none;fill-rule:nonzero;stroke:black;stroke-width:1px;"/>
                            <path d="M11,28L3,28" style="fill:none;fill-rule:nonzero;stroke:black;stroke-width:1px;"/>
                            <path d="M52,22L59,20.4" style="fill:none;fill-rule:nonzero;stroke:black;stroke-width:1px;"/>
                            <path d="M52,34L59,35.6" style="fill:none;fill-rule:nonzero;stroke:black;stroke-width:1px;"/>
                            <path d="M53,28L61,28" style="fill:none;fill-rule:nonzero;stroke:black;stroke-width:1px;"/>
                            <circle cx="32" cy="29" r="6" style="fill:none;stroke:black;stroke-width:1px;stroke-linecap:square;"/>
                            <path d="M18,42L46,42" style="fill:none;fill-rule:nonzero;stroke:black;stroke-width:1px;"/>
                            <path d="M18,16L46,16" style="fill:none;fill-rule:nonzero;stroke:black;stroke-width:1px;"/>
                            <path d="M52,52L46,42L46,16L32,4L18,16L18,42L12,52" style="fill:none;fill-rule:nonzero;stroke:black;stroke-width:1px;stroke-linecap:square;"/>
                        </g>
                    </g>
                </g>
            </g>
        </g>
    </g>
</svg>
