<?xml version="1.0" encoding="UTF-8" standalone="no"?>
<!DOCTYPE svg PUBLIC "-//W3C//DTD SVG 1.1//EN" "http://www.w3.org/Graphics/SVG/1.1/DTD/svg11.dtd">
<svg width="100%" height="100%" viewBox="0 0 110 110" version="1.1" xmlns="http://www.w3.org/2000/svg" xmlns:xlink="http://www.w3.org/1999/xlink" xml:space="preserve" xmlns:serif="http://www.serif.com/" style="fill-rule:evenodd;clip-rule:evenodd;stroke-linecap:square;stroke-miterlimit:10;">
    <g transform="matrix(1,0,0,1,-8031.35,-3081.81)">
        <g transform="matrix(2.31957,0,0,25.1326,6794.33,2223.67)">
            <g transform="matrix(0.740977,0,0,0.0683873,557.009,36.3332)">
                <g transform="matrix(1,0,0,1,-32,-32)">
                    <clipPath id="_clip1">
                        <rect x="0" y="0" width="64" height="64"/>
                    </clipPath>
                    <g clip-path="url(#_clip1)">
                        <g transform="matrix(1,0,0,1,0.5,0.5)">
                            <path d="M50,15.6L62,12L62,52L42,60L22,52L2,60L2,20L14,15.2" style="fill:none;fill-rule:nonzero;stroke:black;stroke-width:1px;"/>
                            <path d="M22,31L22,52" style="fill:none;fill-rule:nonzero;stroke:black;stroke-width:1px;stroke-linecap:butt;"/>
                            <path d="M42,31L42,60" style="fill:none;fill-rule:nonzero;stroke:black;stroke-width:1px;stroke-linecap:butt;"/>
                            <circle cx="32" cy="14" r="12" style="fill:none;stroke:black;stroke-width:1px;"/>
                            <path d="M32,26L32,37" style="fill:none;fill-rule:nonzero;stroke:black;stroke-width:1px;"/>
                        </g>
                    </g>
                </g>
            </g>
        </g>
    </g>
</svg>
