<?xml version="1.0" encoding="UTF-8" standalone="no"?>
<!DOCTYPE svg PUBLIC "-//W3C//DTD SVG 1.1//EN" "http://www.w3.org/Graphics/SVG/1.1/DTD/svg11.dtd">
<svg width="100%" height="100%" viewBox="0 0 1049 1025" version="1.1" xmlns="http://www.w3.org/2000/svg" xmlns:xlink="http://www.w3.org/1999/xlink" xml:space="preserve" xmlns:serif="http://www.serif.com/" style="fill-rule:evenodd;clip-rule:evenodd;stroke-linecap:square;stroke-linejoin:bevel;stroke-miterlimit:1.5;">
    <g transform="matrix(1,0,0,1,-435.614,-27.9417)">
        <clipPath id="_clip1">
            <rect x="0" y="0" width="3840" height="1080"/>
        </clipPath>
        <g clip-path="url(#_clip1)">
            <g id="Capa1">
            </g>
        </g>
        <g transform="matrix(5.66933e-17,-0.925872,0.948162,5.80582e-17,-12256.2,95382.8)">
            <circle cx="102436" cy="13938.8" r="553.055" style="fill:rgb(240,240,240);"/>
        </g>
        <g transform="matrix(6.24453,0,0,6.24453,-2336,-3089.73)">
            <path d="M514.562,574.758C514.562,574.758 518.503,570.633 520.004,574.866C521.506,579.1 521.213,581.265 521.213,581.265" style="fill:none;stroke:black;stroke-width:5px;"/>
        </g>
        <g transform="matrix(6.24453,0,0,6.24453,-2542.2,-3015.22)">
            <path d="M539.983,583.234C539.983,583.234 544.782,577.687 546.19,578.515C547.597,579.343 551.173,584.729 550.905,586.234C550.636,587.739 539.332,596.01 537.785,594.815C536.239,593.621 534.17,588.617 534.27,586.799C534.37,584.982 534.623,577.852 534.34,575.531C534.058,573.21 531.402,573.408 531.402,573.408" style="fill:none;stroke:black;stroke-width:5px;"/>
        </g>
        <g transform="matrix(6.24453,0,0,6.24453,-3108.62,-2957.99)">
            <path d="M605.732,577.025C605.732,577.025 612.346,571.633 612.335,578.46C612.322,585.433 612.765,594.815 612.765,594.815" style="fill:none;stroke:black;stroke-width:5px;"/>
        </g>
        <g transform="matrix(21.8033,0,0,21.8033,-14847.2,-12166.9)">
            <path d="M726.935,573.667L726.848,577.886L738.769,577.562L740.346,573.667L738.192,578.99L739.569,591.448L724.19,592.369L720.506,595.882" style="fill:none;stroke:black;stroke-width:2.48px;"/>
        </g>
        <g transform="matrix(6.24453,0,0,6.24453,-2374.79,-3065.18)">
            <path d="M468.688,576.151L470.865,568.83L472.909,573.973L472.466,591.362L478.658,595.626C478.658,595.626 475.311,602.62 472.911,603.041" style="fill:none;stroke:black;stroke-width:5px;"/>
        </g>
    </g>
</svg>
