<svg viewBox="0 0 685 445" xmlns="http://www.w3.org/2000/svg" xml:space="preserve" style="fill-rule:evenodd;clip-rule:evenodd;stroke-linejoin:bevel;stroke-miterlimit:1.5"><circle cx="102436" cy="13938.8" r="553.055" style="fill:#a1a1a1;stroke:#000;stroke-width:22.88px" transform="matrix(.34962 0 0 .34962 -35568.17 -4650.642)"/><path d="M102169 14423c-170-94.3-286-275.9-286-484.2 0-210.5 118-393.7 291-487.1" style="fill:none;stroke:#000;stroke-width:22.88px" transform="matrix(.34962 0 0 .34962 -35181.498 -4650.642)"/><path d="M102698 13451.7c173 93.4 291 276.6 291 487.1 0 209.1-116 391.4-288 485.3" style="fill:none;stroke:#000;stroke-width:22.88px" transform="matrix(.34962 0 0 .34962 -35761.39 -4650.642)"/><circle cx="102436" cy="13938.8" r="553.055" style="fill:none;stroke:#000;stroke-width:45.77px" transform="matrix(.17478 0 0 .17478 -17754.754 -2213.546)"/><circle cx="102436" cy="13938.8" r="553.055" style="fill:none;stroke:#000;stroke-width:45.77px" transform="matrix(.17478 0 0 .17478 -17368.174 -2213.546)"/><circle cx="102436" cy="13938.8" r="553.055" style="fill:none;stroke:#000;stroke-width:45.77px" transform="matrix(.17478 0 0 .17478 -17561.487 -2213.546)"/><circle cx="102436" cy="13938.8" r="553.055" style="fill:none;stroke:#000;stroke-width:91.54px" transform="matrix(.08739 0 0 .08739 -8851.224 -995.476)"/><circle cx="102436" cy="13938.8" r="553.055" style="fill:none;stroke:#000;stroke-width:91.54px" transform="matrix(.08739 0 0 .08739 -8464.62 -995.476)"/><circle cx="102436" cy="13938.8" r="553.055" style="fill:none;stroke:#000;stroke-width:91.54px" transform="matrix(.08739 0 0 .08739 -8657.957 -995.476)"/><circle cx="102436" cy="13938.8" r="553.055" style="fill:none;stroke:#000;stroke-width:91.54px" transform="matrix(.08739 0 0 .08739 -8754.544 -995.476)"/><circle cx="102436" cy="13938.8" r="553.055" style="fill:none;stroke:#000;stroke-width:91.54px" transform="matrix(.08739 0 0 .08739 -8367.964 -995.476)"/><circle cx="102436" cy="13938.8" r="553.055" style="fill:none;stroke:#000;stroke-width:91.54px" transform="matrix(.08739 0 0 .08739 -8561.3 -995.476)"/><circle cx="102436" cy="13938.8" r="553.055" style="fill:none;stroke:#000;stroke-width:22.88px" transform="matrix(.34962 0 0 .34962 -35374.718 -4650.642)"/><circle cx="102436" cy="13938.8" r="553.055" style="fill:#e8e8e8;stroke:#000;stroke-width:91.54px" transform="matrix(.08739 0 0 .08739 -8512.96 -996.271)"/><circle cx="102436" cy="13938.8" r="553.055" style="fill:#e8e8e8;stroke:#000;stroke-width:91.54px" transform="matrix(.08739 0 0 .08739 -8319.462 -996.271)"/><circle cx="102436" cy="13938.8" r="553.055" style="fill:#e8e8e8;stroke:#000;stroke-width:91.54px" transform="matrix(.08739 0 0 .08739 -8416.304 -1165.772)"/><circle cx="102436" cy="13938.8" r="553.055" style="fill:#e8e8e8;stroke:#000;stroke-width:91.54px" transform="matrix(.08739 0 0 .08739 -8604.097 -1165.772)"/><circle cx="102436" cy="13938.8" r="553.055" style="fill:#e8e8e8;stroke:#000;stroke-width:91.54px" transform="matrix(.08739 0 0 .08739 -8806.827 -1165.772)"/><circle cx="102436" cy="13938.8" r="553.055" style="fill:#e8e8e8;stroke:#000;stroke-width:91.54px" transform="matrix(.08739 0 0 .08739 -8416.304 -826.179)"/><circle cx="102436" cy="13938.8" r="553.055" style="fill:#e8e8e8;stroke:#000;stroke-width:91.54px" transform="matrix(.08739 0 0 .08739 -8604.097 -826.179)"/><circle cx="102436" cy="13938.8" r="553.055" style="fill:#e8e8e8;stroke:#000;stroke-width:91.54px" transform="matrix(.08739 0 0 .08739 -8806.827 -826.179)"/><circle cx="102436" cy="13938.8" r="553.055" style="fill:#e8e8e8;stroke:#000;stroke-width:91.54px" transform="matrix(.08739 0 0 .08739 -8706.274 -996.271)"/><circle cx="102436" cy="13938.8" r="553.055" style="stroke:#000;stroke-width:91.54px" transform="matrix(.08739 0 0 .08739 -8899.54 -996.271)"/></svg>