<svg viewBox="0 0 673 447" xmlns="http://www.w3.org/2000/svg" xml:space="preserve" style="fill-rule:evenodd;clip-rule:evenodd;stroke-linejoin:bevel;stroke-miterlimit:1.5"><circle cx="102436" cy="13938.8" r="553.055" style="fill:#e8e8e8;stroke:#a1a1a1;stroke-width:93.2px" transform="translate(-8359.632 -1145.033) scale(.08584)"/><circle cx="102436" cy="13938.8" r="553.055" style="fill:#e8e8e8;stroke:#a1a1a1;stroke-width:93.2px" transform="translate(-8505.834 -1063.536) scale(.08584)"/><circle cx="102436" cy="13938.8" r="553.055" style="fill:#e8e8e8;stroke:#a1a1a1;stroke-width:93.2px" transform="translate(-8504.257 -896.24) scale(.08584)"/><circle cx="102436" cy="13938.8" r="553.055" style="fill:#e8e8e8;stroke:#a1a1a1;stroke-width:93.2px" transform="translate(-8214.218 -896.24) scale(.08584)"/><circle cx="102436" cy="13938.8" r="553.055" style="fill:#e8e8e8;stroke:#a1a1a1;stroke-width:93.2px" transform="translate(-8215.795 -1063.536) scale(.08584)"/><circle cx="102436" cy="13938.8" r="553.055" style="fill:#e8e8e8;stroke:#a1a1a1;stroke-width:93.2px" transform="translate(-8406.093 -894.881) scale(.08584)"/><circle cx="102436" cy="13938.8" r="553.055" style="fill:#e8e8e8;stroke:#a1a1a1;stroke-width:93.2px" transform="translate(-8311.802 -1063.536) scale(.08584)"/><circle cx="102436" cy="13938.8" r="553.055" style="fill:#e8e8e8;stroke:#a1a1a1;stroke-width:93.2px" transform="translate(-8407.67 -1063.536) scale(.08584)"/><circle cx="102436" cy="13938.8" r="553.055" style="fill:#e8e8e8;stroke:#a1a1a1;stroke-width:93.2px" transform="translate(-8456.08 -978.533) scale(.08584)"/><path d="M102698 13451.7c173 93.4 291 276.6 291 487.1 0 209.1-116 391.4-288 485.3" style="fill:none;stroke:#000;stroke-width:23.3px" transform="matrix(.34342 0 0 .34342 -35127.307 -4568.107)"/><circle cx="102436" cy="13938.8" r="553.055" style="fill:#9f9fff;stroke:#000;stroke-width:93.2px" transform="translate(-8266.988 -1145.033) scale(.08584)"/><circle cx="102436" cy="13938.8" r="553.055" style="fill:#a1a1a1;stroke:#000;stroke-width:93.2px" transform="translate(-8451.463 -1145.033) scale(.08584)"/><circle cx="102436" cy="13938.8" r="553.055" style="fill:#e8e8e8;stroke:#a1a1a1;stroke-width:93.2px" transform="translate(-8358.634 -801.292) scale(.08584)"/><circle cx="102436" cy="13938.8" r="553.055" style="fill:#e8e8e8;stroke:#a1a1a1;stroke-width:93.2px" transform="translate(-8311.153 -894.881) scale(.08584)"/><circle cx="102436" cy="13938.8" r="553.055" style="fill:#e8e8e8;stroke:#a1a1a1;stroke-width:93.2px" transform="translate(-8263.67 -978.533) scale(.08584)"/><circle cx="102436" cy="13938.8" r="553.055" style="fill:#e8e8e8;stroke:#000;stroke-width:93.2px" transform="translate(-8650.598 -1145.033) scale(.08584)"/><circle cx="102436" cy="13938.8" r="553.055" style="fill:#ff6874;stroke:#000;stroke-width:93.2px" transform="translate(-8266.988 -811.465) scale(.08584)"/><circle cx="102436" cy="13938.8" r="553.055" style="fill:#a1a1a1;stroke:#000;stroke-width:93.2px" transform="translate(-8451.463 -811.465) scale(.08584)"/><circle cx="102436" cy="13938.8" r="553.055" style="fill:#e8e8e8;stroke:#000;stroke-width:93.2px" transform="translate(-8650.598 -811.465) scale(.08584)"/><circle cx="102436" cy="13938.8" r="553.055" style="stroke:#000;stroke-width:93.2px" transform="translate(-8741.665 -978.533) scale(.08584)"/><text x="13099.4" y="1840.22" style="font-family:Montserrat-Bold,Montserrat;font-weight:700;font-size:107.152px" transform="matrix(.32939 0 0 .32939 -4183.13 -542.106)">9</text><text x="13099.4" y="1840.22" style="font-family:Montserrat-Bold,Montserrat;font-weight:700;font-size:107.152px" transform="matrix(.32939 0 0 .32939 -3984.667 -542.106)">6</text><text x="13099.4" y="1840.22" style="font-family:Montserrat-Bold,Montserrat;font-weight:700;font-size:107.152px;fill:#231f20" transform="matrix(.32939 0 0 .32939 -3798.499 -542.529)">3</text><text x="13099.4" y="1840.22" style="font-family:Montserrat-Bold,Montserrat;font-weight:700;font-size:107.152px;fill:#231f20" transform="matrix(.32939 0 0 .32939 -3798.568 -208.533)">2</text><text x="13099.4" y="1840.22" style="font-family:Montserrat-Bold,Montserrat;font-weight:700;font-size:107.152px" transform="matrix(.32939 0 0 .32939 -4184.08 -208.744)">8</text><text x="13099.4" y="1840.22" style="font-family:Montserrat-Bold,Montserrat;font-weight:700;font-size:107.152px" transform="matrix(.32939 0 0 .32939 -3983.299 -208.956)">5</text><circle cx="102436" cy="13938.8" r="553.055" style="fill:#ffff9f;stroke:#000;stroke-width:93.2px" transform="translate(-8361.928 -978.533) scale(.08584)"/><circle cx="102436" cy="13938.8" r="553.055" style="fill:#2bc4a9;stroke:#000;stroke-width:93.2px" transform="translate(-8171.886 -978.533) scale(.08584)"/><circle cx="102436" cy="13938.8" r="553.055" style="fill:#a1a1a1;stroke:#000;stroke-width:93.2px" transform="translate(-8551.831 -978.533) scale(.08584)"/><text x="13099.4" y="1840.22" style="font-family:Montserrat-Bold,Montserrat;font-weight:700;font-size:107.152px" transform="matrix(.32939 0 0 .32939 -4084.293 -375.818)">7</text><text x="13099.4" y="1840.22" style="font-family:Montserrat-Bold,Montserrat;font-weight:700;font-size:107.152px;fill:#231f20" transform="matrix(.32939 0 0 .32939 -3896.13 -375.818)">4</text><text x="13099.4" y="1840.22" style="font-family:Montserrat-Bold,Montserrat;font-weight:700;font-size:107.152px;fill:#231f20" transform="matrix(.32939 0 0 .32939 -3699.082 -375.818)">1</text></svg>