<svg viewBox="0 0 541 491" xmlns="http://www.w3.org/2000/svg" xml:space="preserve" style="fill-rule:evenodd;clip-rule:evenodd;stroke-linejoin:round;stroke-miterlimit:1.5"><circle cx="102436" cy="13938.8" r="553.055" style="fill:none;stroke:#000;stroke-width:23.17px" transform="matrix(.34534 0 0 .34534 -35105.405 -4569.55)"/><path d="M102169 14422.7c-171-94.3-286-275.8-286-483.9 0-203.3 110-381 274-477.2" style="fill:none;stroke:#000;stroke-width:23.17px" transform="matrix(.34534 0 0 .34534 -34912.649 -4569.55)"/><path d="M102169 14422.7c-171-94.3-286-275.8-286-483.9 0-203.3 110-381 274-477.2" style="fill:none;stroke:#000;stroke-width:23.17px" transform="matrix(-.34534 0 0 .34534 35457.074 -4569.55)"/><circle cx="54" cy="54" r="6" style="fill:#fff;stroke:#000;stroke-width:1.23px;stroke-linecap:square;stroke-linejoin:miter;stroke-miterlimit:10" transform="translate(14.188 -273.093) scale(6.52692)"/><circle cx="54" cy="54" r="6" style="stroke:#000;stroke-width:1.23px;stroke-linecap:square;stroke-linejoin:miter;stroke-miterlimit:10" transform="translate(-178.719 -273.093) scale(6.52692)"/><circle cx="54" cy="54" r="6" style="fill:#ff6874;stroke:#000;stroke-width:1.23px;stroke-linecap:square;stroke-linejoin:miter;stroke-miterlimit:10" transform="translate(14.093 58.82) scale(6.52692)"/><circle cx="54" cy="54" r="6" style="fill:#fff;stroke:#000;stroke-width:1.23px;stroke-linecap:square;stroke-linejoin:miter;stroke-miterlimit:10" transform="translate(-178.814 58.82) scale(6.52692)"/><circle cx="54" cy="54" r="6" style="fill:#ff6874;stroke:#000;stroke-width:1.23px;stroke-linecap:square;stroke-linejoin:miter;stroke-miterlimit:10" transform="translate(108.899 -108.319) scale(6.52692)"/><circle cx="54" cy="54" r="6" style="stroke:#000;stroke-width:1.23px;stroke-linecap:square;stroke-linejoin:miter;stroke-miterlimit:10" transform="translate(-80.22 -107.137) scale(6.52692)"/><circle cx="54" cy="54" r="6" style="fill:#a1a1a1;stroke:#000;stroke-width:1.23px;stroke-linecap:square;stroke-linejoin:miter;stroke-miterlimit:10" transform="translate(-273.09 -108.319) scale(6.52692)"/><text x="13099.4" y="1840.22" style="font-family:Arial-BoldMT,Arial,sans-serif;font-weight:700;font-size:145.21px" transform="matrix(.2449 0 0 .2449 -2851.293 -358.745)">3</text><text x="13099.4" y="1840.22" style="font-family:Arial-BoldMT,Arial,sans-serif;font-weight:700;font-size:145.21px;fill:#fff" transform="matrix(.2449 0 0 .2449 -3044.193 -358.745)">5</text><text x="13099.4" y="1840.22" style="font-family:Arial-BoldMT,Arial,sans-serif;font-weight:700;font-size:145.21px" transform="matrix(.2449 0 0 .2449 -2851.388 -26.833)">2</text><text x="13099.4" y="1840.22" style="font-family:Arial-BoldMT,Arial,sans-serif;font-weight:700;font-size:145.21px" transform="matrix(.2449 0 0 .2449 -3044.286 -26.833)">6</text><text x="13099.4" y="1840.22" style="font-family:Arial-BoldMT,Arial,sans-serif;font-weight:700;font-size:145.21px" transform="matrix(.2449 0 0 .2449 -2756.582 -193.97)">4</text><text x="13099.4" y="1840.22" style="font-family:Arial-BoldMT,Arial,sans-serif;font-weight:700;font-size:145.21px;fill:#e8e8e8" transform="matrix(.2449 0 0 .2449 -2945.7 -192.788)">1</text><text x="13099.4" y="1840.22" style="font-family:Arial-BoldMT,Arial,sans-serif;font-weight:700;font-size:145.21px" transform="matrix(.2449 0 0 .2449 -3138.576 -193.97)">0</text></svg>