<svg viewBox="0 0 680 437" xmlns="http://www.w3.org/2000/svg" xml:space="preserve" style="fill-rule:evenodd;clip-rule:evenodd;stroke-linejoin:round;stroke-miterlimit:2"><path d="m26229 2859.09-17-.06s-384.9 655.46-460 793.38c-8.1 14.91-12.7 24.32-13.4 26.77-.8 2.75-.4 4.69-.1 5.71.3 1.02 5.4 10.84 14.8 27.46 78 137.9 458.6 793.21 458.6 793.21l17.1-.03 472.5-818.29v-9.86l-472.5-818.29Zm-8.5 4.93 472.4 818.29-472.4 818.29s-469.9-808.92-472.5-818.29c-2.5-9.36 472.5-818.29 472.5-818.29Z" style="fill:#fff" transform="matrix(.20287 0 0 .20287 -5177.923 -523.946)"/><path d="m26229 2859.09-17-.06s-384.9 655.46-460 793.38c-8.1 14.91-12.7 24.32-13.4 26.77-.8 2.75-.4 4.69-.1 5.71.3 1.02 5.4 10.84 14.8 27.46 78 137.9 458.6 793.21 458.6 793.21l17.1-.03 472.5-818.29v-9.86l-472.5-818.29Zm-8.5 4.93 472.4 818.29-472.4 818.29s-469.9-808.92-472.5-818.29c-2.5-9.36 472.5-818.29 472.5-818.29Z" style="fill:#fff" transform="matrix(.20287 0 0 .20287 -4986.234 -523.946)"/><path d="m26229 2859.09-17-.06s-384.9 655.46-460 793.38c-8.1 14.91-12.7 24.32-13.4 26.77-.8 2.75-.4 4.69-.1 5.71.3 1.02 5.4 10.84 14.8 27.46 78 137.9 458.6 793.21 458.6 793.21l17.1-.03 472.5-818.29v-9.86l-472.5-818.29Zm-8.5 4.93 472.4 818.29-472.4 818.29s-469.9-808.92-472.5-818.29c-2.5-9.36 472.5-818.29 472.5-818.29Z" style="fill:#fff" transform="matrix(.20287 0 0 .20287 -4794.429 -524.17)"/><circle cx="102436" cy="13938.8" r="553.055" style="fill:#333" transform="matrix(.10025 0 0 .10025 -9649.776 -1175.636)"/><circle cx="102436" cy="13938.8" r="553.055" style="fill:#333" transform="matrix(.10025 0 0 .10025 -9742.141 -1341.904)"/><circle cx="102436" cy="13938.8" r="553.055" style="fill:#333" transform="matrix(.10025 0 0 .10025 -9742.141 -1016.694)"/><circle cx="102436" cy="13938.8" r="553.055" style="fill:#333" transform="matrix(.10025 0 0 .10025 -9840.259 -1175.636)"/><circle cx="102436" cy="13938.8" r="553.055" style="fill:#333" transform="matrix(.10025 0 0 .10025 -10031.948 -1175.636)"/><circle cx="102436" cy="13938.8" r="553.055" style="fill:#333" transform="matrix(.10025 0 0 .10025 -9932.624 -1341.904)"/><circle cx="102436" cy="13938.8" r="553.055" style="fill:#333" transform="matrix(.10025 0 0 .10025 -9936.104 -1016.694)"/><circle cx="102436" cy="13938.8" r="553.055" style="fill:#333" transform="matrix(.10025 0 0 .10025 -10128.164 -1341.904)"/><circle cx="102436" cy="13938.8" r="553.055" style="fill:#333" transform="matrix(.10025 0 0 .10025 -10213.687 -1176.636)"/><circle cx="102436" cy="13938.8" r="553.055" style="fill:#333" transform="matrix(.10025 0 0 .10025 -10128.164 -1016.694)"/><text x="13099.4" y="1840.22" style="font-family:Arial-BoldMT,Arial,sans-serif;font-weight:700;font-size:107.152px;fill:#fff" transform="matrix(.29885 0 0 .29885 -3684.886 -329.643)">7</text><text x="13099.4" y="1840.22" style="font-family:Arial-BoldMT,Arial,sans-serif;font-weight:700;font-size:107.152px;fill:#fff" transform="matrix(.29885 0 0 .29885 -3493.382 -329.237)">4</text><text x="13102" y="1840.22" style="font-family:Montserrat-Bold,Montserrat;font-weight:700;font-size:101.824px;fill:#e8e8e8" transform="matrix(.29885 0 0 .29885 -3880.704 -330.587)">0</text><text x="13099.4" y="1840.22" style="font-family:Arial-BoldMT,Arial,sans-serif;font-weight:700;font-size:107.152px;fill:#fff" transform="matrix(.29885 0 0 .29885 -3782.47 -503.391)">9</text><text x="13099.4" y="1840.22" style="font-family:Arial-BoldMT,Arial,sans-serif;font-weight:700;font-size:107.152px;fill:#fff" transform="matrix(.29885 0 0 .29885 -3587.278 -503.383)">6</text><text x="13099.4" y="1840.22" style="font-family:Arial-BoldMT,Arial,sans-serif;font-weight:700;font-size:107.152px;fill:#fff" transform="matrix(.29885 0 0 .29885 -3402.594 -503.383)">3</text><text x="13099.4" y="1840.22" style="font-family:Arial-BoldMT,Arial,sans-serif;font-weight:700;font-size:107.152px;fill:#fff" transform="matrix(.29885 0 0 .29885 -3301.438 -329.237)">1</text><text x="13099.4" y="1840.22" style="font-family:Arial-BoldMT,Arial,sans-serif;font-weight:700;font-size:107.152px;fill:#fff" transform="matrix(.29885 0 0 .29885 -3397.398 -171.003)">2</text><text x="13099.4" y="1840.22" style="font-family:Arial-BoldMT,Arial,sans-serif;font-weight:700;font-size:107.152px;fill:#fff" transform="matrix(.29885 0 0 .29885 -3782.632 -171.003)">8</text><text x="13099.4" y="1840.22" style="font-family:Arial-BoldMT,Arial,sans-serif;font-weight:700;font-size:107.152px;fill:#fff" transform="matrix(.29885 0 0 .29885 -3589.227 -171.41)">5</text><text x="2104.54" y="2396.87" style="font-family:Montserrat-Bold,Montserrat;font-weight:700;font-size:13.388px;fill:#fff" transform="matrix(.89633 0 0 .89632 -1610.606 -1740.275)">Ar<tspan x="2120.45" y="2396.87">q</tspan>uit<tspan x="2148.51px 2156.95px 2164.97px" y="2396.87px 2396.87px 2396.87px">ect</tspan>ura lógica</text><text x="2104.55" y="2396.87" style="font-family:Montserrat-Bold,Montserrat;font-weight:700;font-size:13.388px;fill:#fff" transform="matrix(.89633 0 0 .89632 -1387.67 -1740.275)">Int<tspan x="2123.79" y="2396.87">e</tspan>rf<tspan x="2143.06" y="2396.87">a</tspan>ce</text><text x="2104.54" y="2396.87" style="font-family:Montserrat-Bold,Montserrat;font-weight:700;font-size:13.388px;fill:#fff" transform="matrix(.89633 0 0 .89632 -1799.029 -1742.755)">Red - Despliegue</text><text x="2104.54" y="2396.87" style="font-family:Montserrat-Bold,Montserrat;font-weight:700;font-size:13.388px;fill:#fff" transform="matrix(.89633 0 0 .89632 -1324.909 -1902.18)">Viv<tspan x="2126.3" y="2396.87">e</tspan>ncia Hardw<tspan x="2214.36px 2222.62px 2228.27px" y="2396.87px 2396.87px 2396.87px">are</tspan></text><text x="2116.74" y="2396.87" style="font-family:Montserrat-Bold,Montserrat;font-weight:700;font-size:13.388px;fill:#fff" transform="matrix(.89633 0 0 .89632 -1422.607 -2074.095)">C<tspan x="2126.3" y="2396.87">ó</tspan>digo - Dat<tspan x="2204.17" y="2396.87">o</tspan>s</text><text x="2104.54" y="2396.87" style="font-family:Montserrat-Bold,Montserrat;font-weight:700;font-size:13.388px;fill:#fff" transform="matrix(.89633 0 0 .89632 -1614.363 -2074.095)">C<tspan x="2114.1" y="2396.87">o</tspan>ntr<tspan x="2143.59" y="2396.87">o</tspan>l de v<tspan x="2189.49" y="2396.87">e</tspan>rsiones</text><text x="2123.5" y="2396.87" style="font-family:Montserrat-Bold,Montserrat;font-weight:700;font-size:13.388px;fill:#fff" transform="matrix(.89633 0 0 .89632 -1792.685 -2074.095)">P<tspan x="2133.17px 2138.82px" y="2396.87px 2396.87px">ro</tspan>pósit<tspan x="2182.33" y="2396.87">o</tspan></text><text x="2115.26" y="2396.87" style="font-family:Montserrat-Bold,Montserrat;font-weight:700;font-size:13.388px;fill:#e8e8e8" transform="matrix(.89633 0 0 .89632 -1876.776 -1902.18)">La Nube</text><text x="2104.54" y="2396.87" style="font-family:Montserrat-Bold,Montserrat;font-weight:700;font-size:13.388px;fill:#fff" transform="matrix(.89633 0 0 .89632 -1698.928 -1902.18)">Ser<tspan x="2127.5" y="2396.87">v</tspan>idor C<tspan x="2176.69" y="2396.87">e</tspan>ntral</text><text x="2104.54" y="2396.87" style="font-family:Montserrat-Bold,Montserrat;font-weight:700;font-size:13.388px;fill:#fff" transform="matrix(.89633 0 0 .89632 -1488.594 -1902.18)">P<tspan x="2114.21px 2119.86px" y="2396.87px 2396.87px">ro</tspan>grama</text></svg>