<svg viewBox="0 0 541 491" xmlns="http://www.w3.org/2000/svg" xml:space="preserve" style="fill-rule:evenodd;clip-rule:evenodd;stroke-linejoin:round;stroke-miterlimit:1.5"><circle cx="102436" cy="13938.8" r="553.055" style="fill:none;stroke:#000;stroke-width:23.17px" transform="matrix(.34534 0 0 .34534 -35105.492 -4569.54)"/><path d="M102169 14422.7c-171-94.3-286-275.8-286-483.9 0-203.3 110-381 274-477.2" style="fill:none;stroke:#000;stroke-width:23.17px" transform="matrix(.34534 0 0 .34534 -34912.504 -4569.54)"/><path d="M102169 14422.7c-171-94.3-286-275.8-286-483.9 0-203.3 110-381 274-477.2" style="fill:none;stroke:#000;stroke-width:23.17px" transform="matrix(-.34534 0 0 .34534 35456.987 -4569.54)"/><circle cx="54" cy="54" r="6" style="fill:#9f9fff;stroke:#000;stroke-width:1.23px;stroke-linecap:square;stroke-linejoin:miter;stroke-miterlimit:10" transform="matrix(6.52692 0 0 6.52693 14.183 -273.082)"/><circle cx="54" cy="54" r="6" style="fill:#a1a1a1;stroke:#000;stroke-width:1.23px;stroke-linecap:square;stroke-linejoin:miter;stroke-miterlimit:10" transform="matrix(6.52692 0 0 6.52693 -178.724 -273.082)"/><circle cx="54" cy="54" r="6" style="fill:#ff6874;stroke:#000;stroke-width:1.23px;stroke-linecap:square;stroke-linejoin:miter;stroke-miterlimit:10" transform="matrix(6.52692 0 0 6.52693 14.087 58.824)"/><circle cx="54" cy="54" r="6" style="fill:#a1a1a1;stroke:#000;stroke-width:1.23px;stroke-linecap:square;stroke-linejoin:miter;stroke-miterlimit:10" transform="matrix(6.52692 0 0 6.52693 -178.82 58.824)"/><circle cx="54" cy="54" r="6" style="fill:#2bc4a9;stroke:#000;stroke-width:1.23px;stroke-linecap:square;stroke-linejoin:miter;stroke-miterlimit:10" transform="matrix(6.52692 0 0 6.52693 108.893 -108.315)"/><circle cx="54" cy="54" r="6" style="fill:#ffff9f;stroke:#000;stroke-width:1.23px;stroke-linecap:square;stroke-linejoin:miter;stroke-miterlimit:10" transform="matrix(6.52692 0 0 6.52693 -80.224 -107.14)"/><circle cx="54" cy="54" r="6" style="stroke:#000;stroke-width:1.23px;stroke-linecap:square;stroke-linejoin:miter;stroke-miterlimit:10" transform="matrix(6.52692 0 0 6.52693 -273.097 -108.315)"/><text x="13099.4" y="1840.22" style="font-family:Arial-BoldMT,Arial,sans-serif;font-size:145.21px;font-weight:700" transform="matrix(.2449 0 0 .2449 -2851.291 -358.74)">3</text><text x="13099.4" y="1840.22" style="font-family:Arial-BoldMT,Arial,sans-serif;font-size:145.21px;font-weight:700" transform="matrix(.2449 0 0 .2449 -3044.21 -358.74)">5</text><text x="13099.4" y="1840.22" style="font-family:Arial-BoldMT,Arial,sans-serif;font-size:145.21px;font-weight:700" transform="matrix(.2449 0 0 .2449 -2851.384 -26.834)">2</text><text x="13099.4" y="1840.22" style="font-family:Arial-BoldMT,Arial,sans-serif;font-size:145.21px;font-weight:700" transform="matrix(.2449 0 0 .2449 -3044.303 -26.834)">6</text><text x="13099.4" y="1840.22" style="font-family:Arial-BoldMT,Arial,sans-serif;font-size:145.21px;font-weight:700" transform="matrix(.2449 0 0 .2449 -2756.583 -193.972)">4</text><text x="13099.4" y="1840.22" style="font-family:Arial-BoldMT,Arial,sans-serif;font-size:145.21px;font-weight:700" transform="matrix(.2449 0 0 .2449 -2945.698 -192.776)">1</text><text x="13099.4" y="1840.22" style="fill:#fff;font-family:Arial-BoldMT,Arial,sans-serif;font-size:145.21px;font-weight:700" transform="matrix(.2449 0 0 .2449 -3138.57 -193.972)">0</text></svg>