<?xml version="1.0" encoding="UTF-8" standalone="no"?>
<!DOCTYPE svg PUBLIC "-//W3C//DTD SVG 1.1//EN" "http://www.w3.org/Graphics/SVG/1.1/DTD/svg11.dtd">
<svg width="100%" height="100%" viewBox="0 0 830 830" version="1.1" xmlns="http://www.w3.org/2000/svg" xmlns:xlink="http://www.w3.org/1999/xlink" xml:space="preserve" xmlns:serif="http://www.serif.com/" style="fill-rule:evenodd;clip-rule:evenodd;stroke-linejoin:round;stroke-miterlimit:2;">
    <g transform="matrix(1,0,0,1,-551.059,-125.385)">
        <g transform="matrix(0.89841,0,0,0.89841,103.2,54.8584)">
            <g transform="matrix(0.833978,0,0,0.833978,-84469.8,-11084.9)">
                <circle cx="102436" cy="13938.8" r="553.055"/>
            </g>
            <g transform="matrix(4.46554,0,0,4.46554,-5472.08,-2167.76)">
                <g transform="matrix(0.0622577,0,0,0.0622577,-4937.07,-192.513)">
                    <circle cx="102436" cy="13938.8" r="553.055" style="fill:white;"/>
                </g>
                <g transform="matrix(0.0622577,0,0,0.0622577,-4868.15,-261.377)">
                    <circle cx="102436" cy="13938.8" r="553.055" style="fill:white;"/>
                </g>
                <g transform="matrix(0.0622577,0,0,0.0622577,-5005.98,-261.377)">
                    <circle cx="102436" cy="13938.8" r="553.055" style="fill:white;"/>
                </g>
                <g transform="matrix(0.0622577,0,0,0.0622577,-4937.07,-330.342)">
                    <circle cx="102436" cy="13938.8" r="553.055" style="fill:white;"/>
                </g>
                <g transform="matrix(0.0622577,0,0,0.0622577,-4937.07,-261.427)">
                    <circle cx="102436" cy="13938.8" r="553.055" style="fill:white;"/>
                </g>
            </g>
            <g transform="matrix(0.382214,0,0,0.382214,861.884,424.04)">
                <g transform="matrix(0.980066,0,0,1,0,0)">
                    <g transform="matrix(62.9325,0,0,62.9325,516.163,56.9097)">
                    </g>
                    <text x="0px" y="56.91px" style="font-family:'IsaiahScroll', 'Isaiah Scroll';font-size:62.932px;">h<tspan x="55.447px 101.798px 129.067px 168.166px 216.638px 272.085px 292.716px 333.075px 381.547px 435.365px 476.462px " y="56.91px 56.91px 56.91px 56.91px 56.91px 56.91px 56.91px 56.91px 56.91px 56.91px 56.91px ">ayrbh tbfxm</tspan></text>
                </g>
            </g>
            <g transform="matrix(0.155741,0,0,0.155741,897.402,403.855)">
                <g transform="matrix(0.980066,0,0,1,0,0)">
                    <g transform="matrix(123.568,0,0,123.568,838.226,111.743)">
                    </g>
                    <text x="0px" y="111.743px" style="font-family:'IsaiahScroll', 'Isaiah Scroll';font-size:123.568px;">a<tspan x="91.011px 167.783px 262.957px 334.118px 425.129px 490.437px 581.448px 658.219px 753.394px " y="111.743px 111.743px 111.743px 111.743px 111.743px 111.743px 111.743px 111.743px 111.743px ">rbdakarBa</tspan></text>
                </g>
            </g>
            <g transform="matrix(0.96522,0,0,0.96522,65.8926,245.954)">
                <g transform="matrix(0.980066,0,0,1,12.0266,0)">
                    <g transform="matrix(41.4509,0,0,41.4509,737.206,244.032)">
                    </g>
                    <text x="603.32px" y="244.032px" style="font-family:'IsaiahScroll', 'Isaiah Scroll';font-size:41.451px;">l<tspan x="618.755px 632.571px 660.352px 683.275px 707.352px " y="244.032px 244.032px 244.032px 244.032px 244.032px ">ybqmb</tspan></text>
                </g>
            </g>
            <g transform="matrix(1.00697,0,0,1.00697,-19.3343,192.297)">
                <g transform="matrix(0.980066,0,0,1,12.0266,0)">
                    <g transform="matrix(41.4509,0,0,41.4509,735.51,244.032)">
                    </g>
                    <text x="603.32px" y="244.032px" style="font-family:'IsaiahScroll', 'Isaiah Scroll';font-size:41.451px;">y<tspan x="617.136px 633.097px 649.22px 670.2px 679.644px 695.079px 710.514px " y="244.032px 244.032px 244.032px 244.032px 244.032px 244.032px 244.032px ">wnp llx</tspan></text>
                </g>
            </g>
            <g transform="matrix(0.792425,0,0,0.792425,158.476,369.155)">
                <g transform="matrix(0.980066,0,0,1,12.0266,0)">
                    <g transform="matrix(41.4509,0,0,41.4509,806.729,244.032)">
                    </g>
                    <text x="612.764px" y="244.032px" style="font-family:'IsaiahScroll', 'Isaiah Scroll';font-size:41.451px;"><tspan x="612.764px 634.473px 649.908px 676.292px 685.736px 718.112px 727.556px 741.371px 757.332px 772.767px " y="244.032px 244.032px 244.032px 244.032px 244.032px 244.032px 244.032px 244.032px 244.032px 244.032px ">Mla H ywlg</tspan></text>
                </g>
            </g>
            <g transform="matrix(0.411709,0,0,0.411709,613.943,213.969)">
                <g transform="matrix(0.980066,0,0,1,12.4356,0)">
                    <g transform="matrix(41.4509,0,0,41.4509,701.502,244.032)">
                    </g>
                    <text x="623.839px" y="244.032px" style="font-family:'IsaiahScroll', 'Isaiah Scroll';font-size:41.451px;">{<tspan x="644.05px 668.127px " y="244.032px 244.032px ">mf</tspan></text>
                </g>
            </g>
            <g transform="matrix(0.411709,0,0,0.411709,584.936,208.144)">
                <g transform="matrix(0.980066,0,0,1,12.0266,0)">
                    <g transform="matrix(41.4509,0,0,41.4509,674.528,244.032)">
                    </g>
                    <text x="603.32px" y="244.032px" style="font-family:'IsaiahScroll', 'Isaiah Scroll';font-size:41.451px;">M<tspan x="625.029px 656.332px " y="244.032px 244.032px ">fn</tspan></text>
                </g>
            </g>
            <g transform="matrix(1.13221,0,0,1.13221,174.974,74.4336)">
                <g transform="matrix(0.980066,0,0,1,12.2943,0)">
                    <g transform="matrix(41.4509,0,0,41.4509,671.836,244.032)">
                    </g>
                    <text x="616.752px" y="244.032px" style="font-family:'IsaiahScroll', 'Isaiah Scroll';font-size:41.451px;">M<tspan x="638.461px " y="244.032px ">f</tspan></text>
                </g>
            </g>
            <g transform="matrix(0.411709,0,0,0.411709,663.665,213.969)">
                <g transform="matrix(0.980066,0,0,1,12.0266,0)">
                    <g transform="matrix(41.4509,0,0,41.4509,709.271,244.032)">
                    </g>
                    <text x="603.32px" y="244.032px" style="font-family:'IsaiahScroll', 'Isaiah Scroll';font-size:41.451px;">h<tspan x="635.696px 659.773px 691.076px " y="244.032px 244.032px 244.032px ">mvn</tspan></text>
                </g>
            </g>
            <g transform="matrix(0.411709,0,0,0.411709,636.144,193.712)">
                <g transform="matrix(0.980066,0,0,1,12.1533,0)">
                    <g transform="matrix(41.4509,0,0,41.4509,702.655,244.032)">
                    </g>
                    <text x="609.678px" y="244.032px" style="font-family:'IsaiahScroll', 'Isaiah Scroll';font-size:41.451px;">M<tspan x="631.387px 645.202px 669.28px " y="244.032px 244.032px 244.032px ">ymv</tspan></text>
                </g>
            </g>
            <g transform="matrix(1.22086,0,0,1.22086,232.69,13.584)">
                <g transform="matrix(0.980066,0,0,1,12.0266,0)">
                    <g transform="matrix(41.4509,0,0,41.4509,705.061,244.032)">
                    </g>
                    <text x="603.32px" y="244.032px" style="font-family:'IsaiahScroll', 'Isaiah Scroll';font-size:41.451px;">{<tspan x="623.532px 647.609px 678.911px " y="244.032px 244.032px 244.032px ">mfm</tspan></text>
                </g>
            </g>
            <g transform="matrix(1.46247,0,0,1.46247,32.7488,-210.455)">
                <g transform="matrix(0.980066,0,0,1,12.0266,0)">
                    <g transform="matrix(41.4509,0,0,41.4509,696.297,244.032)">
                    </g>
                    <text x="603.32px" y="244.032px" style="font-family:'IsaiahScroll', 'Isaiah Scroll';font-size:41.451px;">M<tspan x="625.029px 638.845px 662.922px " y="244.032px 244.032px 244.032px ">ymf</tspan></text>
                </g>
            </g>
            <g transform="matrix(0.939538,0,0,0.939538,454.341,-54.2406)">
                <g transform="matrix(0.980066,0,0,1,12.0266,0)">
                    <g transform="matrix(41.4509,0,0,41.4509,670.176,244.032)">
                    </g>
                    <text x="603.32px" y="244.032px" style="font-family:'IsaiahScroll', 'Isaiah Scroll';font-size:41.451px;">t<tspan x="625.758px 641.719px " y="244.032px 244.032px ">wa</tspan></text>
                </g>
            </g>
            <g transform="matrix(0.371028,0,0,0.371028,718.145,282.472)">
                <g transform="matrix(0.980066,0,0,1,12.0266,0)">
                    <g transform="matrix(41.4509,0,0,41.4509,716.002,244.032)">
                    </g>
                    <text x="603.32px" y="244.032px" style="font-family:'IsaiahScroll', 'Isaiah Scroll';font-size:41.451px;">l<tspan x="618.754px 634.715px 666.605px 682.04px " y="244.032px 244.032px 244.032px 244.032px ">wglg</tspan></text>
                </g>
            </g>
            <g transform="matrix(0.371028,0,0,0.371028,718.145,239.604)">
                <g transform="matrix(0.980066,0,0,1,12.0266,0)">
                    <g transform="matrix(41.4509,0,0,41.4509,676.794,244.032)">
                    </g>
                    <text x="603.32px" y="244.032px" style="font-family:'IsaiahScroll', 'Isaiah Scroll';font-size:41.451px;">l<tspan x="618.754px 642.832px " y="244.032px 244.032px ">mg</tspan></text>
                </g>
            </g>
            <g transform="matrix(1.03739,0,0,1.03739,379.286,-37.97)">
                <g transform="matrix(0.980066,0,0,1,12.0266,0)">
                    <g transform="matrix(41.4509,0,0,41.4509,695.387,244.032)">
                    </g>
                    <text x="603.32px" y="244.032px" style="font-family:'IsaiahScroll', 'Isaiah Scroll';font-size:41.451px;">h<tspan x="635.696px 655.421px 669.237px " y="244.032px 244.032px 244.032px ">dym</tspan></text>
                </g>
            </g>
            <g transform="matrix(0.643425,0,0,0.643425,591.151,188.058)">
                <g transform="matrix(0.980066,0,0,1,12.0266,0)">
                    <g transform="matrix(41.4509,0,0,41.4509,727.357,244.032)">
                    </g>
                    <text x="603.32px" y="244.032px" style="font-family:'IsaiahScroll', 'Isaiah Scroll';font-size:41.451px;">h<tspan x="635.696px 662.08px 675.896px 697.504px " y="244.032px 244.032px 244.032px 244.032px ">ayrb</tspan></text>
                </g>
            </g>
            <g transform="matrix(1.21197,0,0,1.21197,176.514,-75.3027)">
                <g transform="matrix(0.980066,0,0,1,12.0266,0)">
                    <g transform="matrix(41.4509,0,0,41.4509,674.507,244.032)">
                    </g>
                    <text x="603.32px" y="244.032px" style="font-family:'IsaiahScroll', 'Isaiah Scroll';font-size:41.451px;">r<tspan x="624.928px 652.709px " y="244.032px 244.032px ">bd</tspan></text>
                </g>
            </g>
            <g transform="matrix(0.665182,0,0,0.665182,413.739,388.701)">
                <g transform="matrix(0.980066,0,0,1,12.0266,0)">
                    <g transform="matrix(41.4509,0,0,41.4509,774.593,244.032)">
                    </g>
                    <text x="603.32px" y="244.032px" style="font-family:'IsaiahScroll', 'Isaiah Scroll';font-size:41.451px;">t<tspan x="625.758px 641.719px 657.842px 673.965px 689.926px 717.707px 740.145px " y="244.032px 244.032px 244.032px 244.032px 244.032px 244.032px 244.032px ">wnnwbth</tspan></text>
                </g>
            </g>
            <g transform="matrix(1.34695,0,0,1.34695,5.52192,-49.9491)">
                <g transform="matrix(0.980066,0,0,1,12.0266,0)">
                    <g transform="matrix(41.4509,0,0,41.4509,727.175,244.032)">
                    </g>
                    <text x="603.32px" y="244.032px" style="font-family:'IsaiahScroll', 'Isaiah Scroll';font-size:41.451px;">r<tspan x="624.928px 640.889px 672.192px 693.8px " y="244.032px 244.032px 244.032px 244.032px ">wfrf</tspan></text>
                </g>
            </g>
            <g transform="matrix(0.371028,0,0,0.371028,846.185,455.846)">
                <g transform="matrix(0.980066,0,0,1,12.3896,0)">
                    <g transform="matrix(41.4509,0,0,41.4509,697.686,244.032)">
                    </g>
                    <text x="621.528px" y="244.032px" style="font-family:'IsaiahScroll', 'Isaiah Scroll';font-size:41.451px;">d<tspan x="641.254px 657.215px 681.798px " y="244.032px 244.032px 244.032px ">wsy</tspan></text>
                </g>
            </g>
            <g transform="matrix(0.963722,0,0,0.963722,702.524,301.483)">
                <g transform="matrix(0.980066,0,0,1,12.0266,0)">
                    <g transform="matrix(41.4509,0,0,41.4509,662.667,244.032)">
                    </g>
                    <text x="603.32px" y="244.032px" style="font-family:'IsaiahScroll', 'Isaiah Scroll';font-size:41.451px;">K<tspan x="621.083px 636.517px " y="244.032px 244.032px ">lm</tspan></text>
                </g>
            </g>
            <g transform="matrix(1.2596,0,0,1.2596,589.597,250.519)">
                <g transform="matrix(0.980066,0,0,1,12.0266,0)">
                    <g transform="matrix(41.4509,0,0,41.4509,654.215,244.032)">
                    </g>
                    <text x="603.32px" y="244.032px" style="font-family:'IsaiahScroll', 'Isaiah Scroll';font-size:41.451px;">a<tspan x="629.705px " y="244.032px ">t</tspan></text>
                </g>
            </g>
            <g transform="matrix(0.792503,0,0,0.792503,896.5,394.214)">
                <g transform="matrix(0.980066,0,0,1,12.0266,0)">
                    <g transform="matrix(41.4509,0,0,41.4509,651.908,244.032)">
                    </g>
                    <text x="603.32px" y="244.032px" style="font-family:'IsaiahScroll', 'Isaiah Scroll';font-size:41.451px;">t<tspan x="625.758px " y="244.032px ">m</tspan></text>
                </g>
            </g>
            <g transform="matrix(0.769171,0,0,0.769171,739.455,418.044)">
                <g transform="matrix(0.980066,0,0,1,12.0266,0)">
                    <g transform="matrix(41.4509,0,0,41.4509,707.955,244.032)">
                    </g>
                    <text x="603.32px" y="244.032px" style="font-family:'IsaiahScroll', 'Isaiah Scroll';font-size:41.451px;">h<tspan x="635.696px 659.773px 679.498px " y="244.032px 244.032px 244.032px ">mda</tspan></text>
                </g>
            </g>
            <g transform="matrix(0.94227,0,0,0.94227,334.692,611.047)">
                <g transform="matrix(0.980066,0,0,1,12.0266,0)">
                    <g transform="matrix(41.4509,0,0,41.4509,676.26,244.032)">
                    </g>
                    <text x="603.32px" y="244.032px" style="font-family:'IsaiahScroll', 'Isaiah Scroll';font-size:41.451px;">M<tspan x="625.029px 640.99px 656.425px " y="244.032px 244.032px 244.032px ">wlk</tspan></text>
                </g>
            </g>
            <g transform="matrix(1.11686,0,0,1.11686,480.506,361.228)">
                <g transform="matrix(0.980066,0,0,1,12.0266,0)">
                    <g transform="matrix(41.4509,0,0,41.4509,646.827,244.032)">
                    </g>
                    <text x="603.32px" y="244.032px" style="font-family:'IsaiahScroll', 'Isaiah Scroll';font-size:41.451px;">M<tspan x="625.029px " y="244.032px ">d</tspan></text>
                </g>
            </g>
            <g transform="matrix(0.789527,0,0,0.789527,807.053,380.118)">
                <g transform="matrix(0.980066,0,0,1,12.0266,0)">
                    <g transform="matrix(41.4509,0,0,41.4509,677.657,244.032)">
                    </g>
                    <text x="603.32px" y="244.032px" style="font-family:'IsaiahScroll', 'Isaiah Scroll';font-size:41.451px;">M<tspan x="625.029px 638.845px 652.661px " y="244.032px 244.032px 244.032px ">yyx</tspan></text>
                </g>
            </g>
            <g transform="matrix(0.789527,0,0,0.789527,811.13,411.84)">
                <g transform="matrix(0.980066,0,0,1,12.0266,0)">
                    <g transform="matrix(41.4509,0,0,41.4509,708.636,244.032)">
                    </g>
                    <text x="603.32px" y="244.032px" style="font-family:'IsaiahScroll', 'Isaiah Scroll';font-size:41.451px;">M<tspan x="625.029px 638.845px 660.453px 682.486px " y="244.032px 244.032px 244.032px 244.032px ">yrcm</tspan></text>
                </g>
            </g>
            <g transform="matrix(0.650067,0,0,0.650067,817.336,413.832)">
                <g transform="matrix(0.980066,0,0,1,12.2203,0)">
                    <g transform="matrix(41.4509,0,0,41.4509,710.782,244.032)">
                    </g>
                    <text x="613.036px" y="244.032px" style="font-family:'IsaiahScroll', 'Isaiah Scroll';font-size:41.451px;">t<tspan x="635.474px 651.435px 669.198px 684.632px " y="244.032px 244.032px 244.032px 244.032px ">wklm</tspan></text>
                </g>
            </g>
            <g transform="matrix(1.11954,0,0,1.11954,510.293,172.646)">
                <g transform="matrix(0.980066,0,0,1,12.0266,0)">
                    <g transform="matrix(41.4509,0,0,41.4509,735.251,244.032)">
                    </g>
                    <text x="603.32px" y="244.032px" style="font-family:'IsaiahScroll', 'Isaiah Scroll';font-size:41.451px;">h<tspan x="635.696px 663.477px 679.438px 710.74px " y="244.032px 244.032px 244.032px 244.032px ">bwft</tspan></text>
                </g>
            </g>
            <g transform="matrix(0.958087,0,0,0.958087,554.279,355.752)">
                <g transform="matrix(0.980066,0,0,1,12.0266,0)">
                    <g transform="matrix(41.4509,0,0,41.4509,678.709,244.032)">
                    </g>
                    <text x="603.32px" y="244.032px" style="font-family:'IsaiahScroll', 'Isaiah Scroll';font-size:41.451px;">M<tspan x="625.029px 640.464px 656.425px " y="244.032px 244.032px 244.032px ">lw{</tspan></text>
                </g>
            </g>
            <g transform="matrix(0.958087,0,0,0.958087,556.421,308.638)">
                <g transform="matrix(0.980066,0,0,1,12.0266,0)">
                    <g transform="matrix(41.4509,0,0,41.4509,678.709,244.032)">
                    </g>
                    <text x="603.32px" y="244.032px" style="font-family:'IsaiahScroll', 'Isaiah Scroll';font-size:41.451px;">M<tspan x="625.029px 640.99px 656.425px " y="244.032px 244.032px 244.032px ">wl{</tspan></text>
                </g>
            </g>
            <g transform="matrix(1.29457,0,0,1.29457,204.895,-52.3771)">
                <g transform="matrix(0.980066,0,0,1,12.0266,0)">
                    <g transform="matrix(41.4509,0,0,41.4509,698.584,244.032)">
                    </g>
                    <text x="603.32px" y="244.032px" style="font-family:'IsaiahScroll', 'Isaiah Scroll';font-size:41.451px;">r<tspan x="624.928px 652.709px 672.435px " y="244.032px 244.032px 244.032px ">bdm</tspan></text>
                </g>
            </g>
            <g transform="matrix(1.70245,0,0,1.70245,117.341,84.687)">
                <g transform="matrix(0.980066,0,0,1,12.0266,0)">
                    <g transform="matrix(41.4509,0,0,41.4509,676.005,244.032)">
                    </g>
                    <text x="603.32px" y="244.032px" style="font-family:'IsaiahScroll', 'Isaiah Scroll';font-size:41.451px;">b<tspan x="631.101px 647.062px " y="244.032px 244.032px ">wj</tspan></text>
                </g>
            </g>
            <g transform="matrix(0.616503,0,0,0.616503,961.337,304.576)">
                <g transform="matrix(0.980066,0,0,1,12.0266,0)">
                    <g transform="matrix(41.4509,0,0,41.4509,673.799,244.032)">
                    </g>
                    <text x="603.32px" y="244.032px" style="font-family:'IsaiahScroll', 'Isaiah Scroll';font-size:41.451px;">f<tspan x="634.623px 655.603px " y="244.032px 244.032px ">pn</tspan></text>
                </g>
            </g>
            <g transform="matrix(0.842186,0,0,0.842186,683.899,433.342)">
                <g transform="matrix(0.980066,0,0,1,12.3418,0)">
                    <g transform="matrix(41.4509,0,0,41.4509,700.36,244.032)">
                    </g>
                    <text x="619.134px" y="244.032px" style="font-family:'IsaiahScroll', 'Isaiah Scroll';font-size:41.451px;">f<tspan x="650.436px 671.417px " y="244.032px 244.032px ">pj</tspan></text>
                </g>
            </g>
            <g transform="matrix(0.648804,0,0,0.648804,956.444,357.852)">
                <g transform="matrix(0.980066,0,0,1,12.3641,0)">
                    <g transform="matrix(41.4509,0,0,41.4509,701.476,244.032)">
                    </g>
                    <text x="620.25px" y="244.032px" style="font-family:'IsaiahScroll', 'Isaiah Scroll';font-size:41.451px;">j<tspan x="647.12px 678.423px " y="244.032px 244.032px ">fp</tspan></text>
                </g>
            </g>
            <g transform="matrix(0.919968,0,0,0.919968,662.015,315.499)">
                <g transform="matrix(0.980066,0,0,1,12.0266,0)">
                    <g transform="matrix(41.4509,0,0,41.4509,662.991,244.032)">
                    </g>
                    <text x="603.32px" y="244.032px" style="font-family:'IsaiahScroll', 'Isaiah Scroll';font-size:41.451px;">t<tspan x="625.758px 641.193px " y="244.032px 244.032px ">ld</tspan></text>
                </g>
            </g>
            <g transform="matrix(1.12535,0,0,1.12535,596.526,217.998)">
                <g transform="matrix(0.980066,0,0,1,12.0266,0)">
                    <g transform="matrix(41.4509,0,0,41.4509,703.098,244.032)">
                    </g>
                    <text x="603.32px" y="244.032px" style="font-family:'IsaiahScroll', 'Isaiah Scroll';font-size:41.451px;">h<tspan x="635.696px 649.511px 680.814px " y="244.032px 244.032px 244.032px ">yf{</tspan></text>
                </g>
            </g>
            <g transform="matrix(0.674796,0,0,0.674796,534.772,310.2)">
                <g transform="matrix(0.980066,0,0,1,12.0266,0)">
                    <g transform="matrix(41.4509,0,0,41.4509,710.376,244.032)">
                    </g>
                    <text x="603.32px" y="244.032px" style="font-family:'IsaiahScroll', 'Isaiah Scroll';font-size:41.451px;">t<tspan x="625.758px 641.719px 657.842px 681.919px " y="244.032px 244.032px 244.032px 244.032px ">wnma</tspan></text>
                </g>
            </g>
            <g transform="matrix(1.03928,0,0,1.03928,585.637,426.347)">
                <g transform="matrix(0.980066,0,0,1,12.0266,0)">
                    <g transform="matrix(41.4509,0,0,41.4509,716.772,244.032)">
                    </g>
                    <text x="603.32px" y="244.032px" style="font-family:'IsaiahScroll', 'Isaiah Scroll';font-size:41.451px;">h<tspan x="635.696px 651.819px 665.634px 683.397px " y="244.032px 244.032px 244.032px 244.032px ">nykf</tspan></text>
                </g>
            </g>
            <g transform="matrix(0.371028,0,0,0.371028,718.145,260.491)">
                <g transform="matrix(0.980066,0,0,1,12.0266,0)">
                    <g transform="matrix(41.4509,0,0,41.4509,674.325,244.032)">
                    </g>
                    <text x="603.32px" y="244.032px" style="font-family:'IsaiahScroll', 'Isaiah Scroll';font-size:41.451px;">l<tspan x="618.754px 650.644px " y="244.032px 244.032px ">gr</tspan></text>
                </g>
            </g>
            <g transform="matrix(0.651784,0,0,0.651784,522.036,16.0272)">
                <g transform="matrix(0.980066,0,0,1,12.4645,0)">
                    <g transform="matrix(41.4509,0,0,41.4509,699.995,244.032)">
                    </g>
                    <text x="625.287px" y="244.032px" style="font-family:'IsaiahScroll', 'Isaiah Scroll';font-size:41.451px;">f<tspan x="656.589px 678.197px " y="244.032px 244.032px ">rd</tspan></text>
                </g>
            </g>
            <g transform="matrix(0.672295,0,0,0.672295,595.808,724.476)">
                <g transform="matrix(0.980066,0,0,1,12.0266,0)">
                    <g transform="matrix(41.4509,0,0,41.4509,669.427,244.032)">
                    </g>
                    <text x="603.32px" y="244.032px" style="font-family:'IsaiahScroll', 'Isaiah Scroll';font-size:41.451px;">t<tspan x="625.758px 639.574px " y="244.032px 244.032px ">yb</tspan></text>
                </g>
            </g>
            <g transform="matrix(1.39792,0,0,1.39792,66.5331,630.523)">
                <g transform="matrix(0.980066,0,0,1,12.0266,0)">
                    <g transform="matrix(41.4509,0,0,41.4509,705.255,244.032)">
                    </g>
                    <text x="603.32px" y="244.032px" style="font-family:'IsaiahScroll', 'Isaiah Scroll';font-size:41.451px;">l<tspan x="618.755px 634.716px 661.586px 675.402px " y="244.032px 244.032px 244.032px 244.032px ">wjyb</tspan></text>
                </g>
            </g>
            <g transform="matrix(1.22023,0,0,1.22023,237.277,560.443)">
                <g transform="matrix(0.980066,0,0,1,12.0266,0)">
                    <g transform="matrix(41.4509,0,0,41.4509,714.756,244.032)">
                    </g>
                    <text x="603.32px" y="244.032px" style="font-family:'IsaiahScroll', 'Isaiah Scroll';font-size:41.451px;">h<tspan x="635.696px 659.773px 691.076px " y="244.032px 244.032px 244.032px ">mFr</tspan></text>
                </g>
            </g>
            <g transform="matrix(0.676695,0,0,0.676695,643.421,721.369)">
                <g transform="matrix(0.980066,0,0,1,12.0266,0)">
                    <g transform="matrix(41.4509,0,0,41.4509,678.515,244.032)">
                    </g>
                    <text x="603.32px" y="244.032px" style="font-family:'IsaiahScroll', 'Isaiah Scroll';font-size:41.451px;">F<tspan x="634.623px 654.834px " y="244.032px 244.032px ">{r</tspan></text>
                </g>
            </g>
            <g transform="matrix(1.33203,0,0,1.33203,81.2465,430.041)">
                <g transform="matrix(0.980066,0,0,1,12.0266,0)">
                    <g transform="matrix(41.4509,0,0,41.4509,709.04,244.032)">
                    </g>
                    <text x="603.32px" y="244.032px" style="font-family:'IsaiahScroll', 'Isaiah Scroll';font-size:41.451px;">h<tspan x="635.696px 657.304px 671.119px 693.152px " y="244.032px 244.032px 244.032px 244.032px ">rycy</tspan></text>
                </g>
            </g>
            <g transform="matrix(0.768655,0,0,0.768655,576.353,734.118)">
                <g transform="matrix(0.980066,0,0,1,12.0266,0)">
                    <g transform="matrix(41.4509,0,0,41.4509,659.55,244.032)">
                    </g>
                    <text x="603.32px" y="244.032px" style="font-family:'IsaiahScroll', 'Isaiah Scroll';font-size:41.451px;">z<tspan x="611.792px 635.87px " y="244.032px 244.032px ">mr</tspan></text>
                </g>
            </g>
            <g transform="matrix(0.672295,0,0,0.672295,451.806,788.45)">
                <g transform="matrix(0.980066,0,0,1,12.0266,0)">
                    <g transform="matrix(41.4509,0,0,41.4509,665.885,244.032)">
                    </g>
                    <text x="603.32px" y="244.032px" style="font-family:'IsaiahScroll', 'Isaiah Scroll';font-size:41.451px;">x<tspan x="626.244px 642.205px " y="244.032px 244.032px ">wr</tspan></text>
                </g>
            </g>
            <g transform="matrix(1.51509,0,0,1.51509,-64.0958,435.939)">
                <g transform="matrix(0.980066,0,0,1,12.0266,0)">
                    <g transform="matrix(41.4509,0,0,41.4509,691.998,244.032)">
                    </g>
                    <text x="603.32px" y="244.032px" style="font-family:'IsaiahScroll', 'Isaiah Scroll';font-size:41.451px;">y<tspan x="617.136px 633.097px 654.077px 667.893px " y="244.032px 244.032px 244.032px 244.032px ">wpyc</tspan></text>
                </g>
            </g>
            <g transform="matrix(0.884357,0,0,0.884357,319.774,420.795)">
                <g transform="matrix(0.980066,0,0,1,12.0266,0)">
                    <g transform="matrix(41.4509,0,0,41.4509,671.815,244.032)">
                    </g>
                    <text x="603.32px" y="244.032px" style="font-family:'IsaiahScroll', 'Isaiah Scroll';font-size:41.451px;">K<tspan x="621.083px 645.666px " y="244.032px 244.032px ">sm</tspan></text>
                </g>
            </g>
            <g transform="matrix(0.540751,0,0,0.540751,566.422,537.033)">
                <g transform="matrix(0.980066,0,0,1,12.0266,0)">
                    <g transform="matrix(41.4509,0,0,41.4509,842.323,244.032)">
                    </g>
                    <text x="603.32px" y="244.032px" style="font-family:'IsaiahScroll', 'Isaiah Scroll';font-size:41.451px;">M<tspan x="625.029px 638.845px 654.28px 672.042px 681.486px 713.861px 723.305px 745.743px 767.351px 781.167px 808.948px " y="244.032px 244.032px 244.032px 244.032px 244.032px 244.032px 244.032px 244.032px 244.032px 244.032px 244.032px ">ylk h trybf</tspan></text>
                </g>
            </g>
            <g transform="matrix(0.540751,0,0,0.540751,686.185,629.255)">
                <g transform="matrix(0.980066,0,0,1,12.0266,0)">
                    <g transform="matrix(41.4509,0,0,41.4509,695.488,244.032)">
                    </g>
                    <text x="603.32px" y="244.032px" style="font-family:'IsaiahScroll', 'Isaiah Scroll';font-size:41.451px;">h<tspan x="635.696px 651.819px 665.634px " y="244.032px 244.032px 244.032px ">nyb</tspan></text>
                </g>
            </g>
            <g transform="matrix(0.990196,0,0,0.990196,678.066,398.368)">
                <g transform="matrix(0.980066,0,0,1,12.0266,0)">
                    <g transform="matrix(41.4509,0,0,41.4509,712.016,244.032)">
                    </g>
                    <text x="603.32px" y="244.032px" style="font-family:'IsaiahScroll', 'Isaiah Scroll';font-size:41.451px;">g<tspan x="635.21px 651.171px 667.294px 687.505px " y="244.032px 244.032px 244.032px 244.032px ">wn{t</tspan></text>
                </g>
            </g>
            <g transform="matrix(0.343046,0,0,0.343046,728.591,601.919)">
                <g transform="matrix(0.980066,0,0,1,12.0266,0)">
                    <g transform="matrix(41.4509,0,0,41.4509,748.722,244.032)">
                    </g>
                    <text x="603.32px" y="244.032px" style="font-family:'IsaiahScroll', 'Isaiah Scroll';font-size:41.451px;">t<tspan x="625.758px 639.574px 670.876px 697.261px 718.869px " y="244.032px 244.032px 244.032px 244.032px 244.032px ">yfarb</tspan></text>
                </g>
            </g>
            <g transform="matrix(1.44734,0,0,1.44734,-57.8773,511.614)">
                <g transform="matrix(0.980066,0,0,1,12.0266,0)">
                    <g transform="matrix(41.4509,0,0,41.4509,664.57,244.032)">
                    </g>
                    <text x="603.32px" y="244.032px" style="font-family:'IsaiahScroll', 'Isaiah Scroll';font-size:41.451px;">M<tspan x="625.029px 640.464px " y="244.032px 244.032px ">lc</tspan></text>
                </g>
            </g>
            <g transform="matrix(1.31578,0,0,1.31578,112.088,581.994)">
                <g transform="matrix(0.980066,0,0,1,12.0266,0)">
                    <g transform="matrix(41.4509,0,0,41.4509,674.115,244.032)">
                    </g>
                    <text x="603.32px" y="244.032px" style="font-family:'IsaiahScroll', 'Isaiah Scroll';font-size:41.451px;">M<tspan x="625.029px 638.845px 654.28px " y="244.032px 244.032px 244.032px ">ylk</tspan></text>
                </g>
            </g>
            <g transform="matrix(1.06332,0,0,1.06332,194.292,657.84)">
                <g transform="matrix(0.980066,0,0,1,12.0266,0)">
                    <g transform="matrix(41.4509,0,0,41.4509,669.245,244.032)">
                    </g>
                    <text x="603.32px" y="244.032px" style="font-family:'IsaiahScroll', 'Isaiah Scroll';font-size:41.451px;">l<tspan x="618.755px 640.788px " y="244.032px 244.032px ">ca</tspan></text>
                </g>
            </g>
            <g transform="matrix(1.42284,0,0,1.42284,-274.373,309.358)">
                <g transform="matrix(0.980066,0,0,1,12.0266,0)">
                    <g transform="matrix(41.4509,0,0,41.4509,673.212,244.032)">
                    </g>
                    <text x="603.32px" y="244.032px" style="font-family:'IsaiahScroll', 'Isaiah Scroll';font-size:41.451px;">M<tspan x="625.029px 644.755px " y="244.032px 244.032px ">da</tspan></text>
                </g>
            </g>
            <g transform="matrix(0.327613,0,0,0.327613,884.963,487.199)">
                <g transform="matrix(0.980066,0,0,1,12.0266,0)">
                    <g transform="matrix(41.4509,0,0,41.4509,671.787,244.032)">
                    </g>
                    <text x="603.32px" y="244.032px" style="font-family:'IsaiahScroll', 'Isaiah Scroll';font-size:41.451px;">K<tspan x="621.083px 636.517px 654.28px " y="244.032px 244.032px 244.032px ">lKl</tspan></text>
                </g>
            </g>
            <g transform="matrix(0.674796,0,0,0.674796,415.519,309.161)">
                <g transform="matrix(0.980066,0,0,1,12.6626,0)">
                    <g transform="matrix(41.4509,0,0,41.4509,752.219,244.032)">
                    </g>
                    <text x="635.225px" y="244.032px" style="font-family:'IsaiahScroll', 'Isaiah Scroll';font-size:41.451px;">h<tspan x="667.6px 683.723px 699.684px 723.762px " y="244.032px 244.032px 244.032px 244.032px ">nwma</tspan></text>
                </g>
            </g>
            <g transform="matrix(0.464299,0,0,0.464299,730.57,511.782)">
                <g transform="matrix(0.980066,0,0,1,12.4421,0)">
                    <g transform="matrix(41.4509,0,0,41.4509,726.412,244.032)">
                    </g>
                    <text x="624.165px" y="244.032px" style="font-family:'IsaiahScroll', 'Isaiah Scroll';font-size:41.451px;">f<tspan x="655.468px 677.076px 693.037px " y="244.032px 244.032px 244.032px ">rwf</tspan></text>
                </g>
            </g>
            <g transform="matrix(1.22934,0,0,1.22934,232.78,511.479)">
                <g transform="matrix(0.980066,0,0,1,12.0266,0)">
                    <g transform="matrix(41.4509,0,0,41.4509,704.919,244.032)">
                    </g>
                    <text x="603.32px" y="244.032px" style="font-family:'IsaiahScroll', 'Isaiah Scroll';font-size:41.451px;">h<tspan x="635.696px 653.458px 675.066px " y="244.032px 244.032px 244.032px ">krb</tspan></text>
                </g>
            </g>
            <g transform="matrix(0.631291,0,0,0.631291,625.74,495.308)">
                <g transform="matrix(0.980066,0,0,1,12.0266,0)">
                    <g transform="matrix(41.4509,0,0,41.4509,686.979,244.032)">
                    </g>
                    <text x="603.32px" y="244.032px" style="font-family:'IsaiahScroll', 'Isaiah Scroll';font-size:41.451px;">y<tspan x="617.136px 633.097px 649.058px 662.873px " y="244.032px 244.032px 244.032px 244.032px ">wwyc</tspan></text>
                </g>
            </g>
            <g transform="matrix(0.531733,0,0,0.531733,505.977,366.816)">
                <g transform="matrix(0.980066,0,0,1,12.0266,0)">
                    <g transform="matrix(41.4509,0,0,41.4509,718.492,244.032)">
                    </g>
                    <text x="603.32px" y="244.032px" style="font-family:'IsaiahScroll', 'Isaiah Scroll';font-size:41.451px;">h<tspan x="635.696px 659.773px 677.535px 693.496px " y="244.032px 244.032px 244.032px 244.032px ">mkwx</tspan></text>
                </g>
            </g>
            <g transform="matrix(0.819768,0,0,0.819768,440.371,366.028)">
                <g transform="matrix(0.980066,0,0,1,12.0266,0)">
                    <g transform="matrix(41.4509,0,0,41.4509,678.292,244.032)">
                    </g>
                    <text x="603.32px" y="244.032px" style="font-family:'IsaiahScroll', 'Isaiah Scroll';font-size:41.451px;">t<tspan x="625.758px 649.835px " y="244.032px 244.032px ">ma</tspan></text>
                </g>
            </g>
            <g transform="matrix(0.561824,0,0,0.561824,593.178,458.985)">
                <g transform="matrix(0.980066,0,0,1,12.0266,0)">
                    <g transform="matrix(41.4509,0,0,41.4509,721.459,244.032)">
                    </g>
                    <text x="603.32px" y="244.032px" style="font-family:'IsaiahScroll', 'Isaiah Scroll';font-size:41.451px;">t<tspan x="625.758px 641.719px 657.154px 670.969px 693.002px " y="244.032px 244.032px 244.032px 244.032px 244.032px ">wlyca</tspan></text>
                </g>
            </g>
            <g transform="matrix(1.32886,0,0,1.32886,215.844,196.817)">
                <g transform="matrix(0.980066,0,0,1,12.0266,0)">
                    <g transform="matrix(41.4509,0,0,41.4509,665.663,244.032)">
                    </g>
                    <text x="603.32px" y="244.032px" style="font-family:'IsaiahScroll', 'Isaiah Scroll';font-size:41.451px;">d<tspan x="623.046px 639.007px " y="244.032px 244.032px ">ws</tspan></text>
                </g>
            </g>
            <g transform="matrix(1.30044,0,0,1.30044,134.707,326.093)">
                <g transform="matrix(0.980066,0,0,1,12.0266,0)">
                    <g transform="matrix(41.4509,0,0,41.4509,667.201,244.032)">
                    </g>
                    <text x="603.32px" y="244.032px" style="font-family:'IsaiahScroll', 'Isaiah Scroll';font-size:41.451px;">r<tspan x="624.928px 647.366px " y="244.032px 244.032px ">tk</tspan></text>
                </g>
            </g>
            <g transform="matrix(0.973314,0,0,0.973314,413.254,363.565)">
                <g transform="matrix(0.980066,0,0,1,12.1138,0)">
                    <g transform="matrix(41.4509,0,0,41.4509,691.343,244.032)">
                    </g>
                    <text x="607.697px" y="244.032px" style="font-family:'IsaiahScroll', 'Isaiah Scroll';font-size:41.451px;">l<tspan x="623.132px 650.913px 673.836px " y="244.032px 244.032px 244.032px ">bql</tspan></text>
                </g>
            </g>
            <g transform="matrix(1.44093,0,0,1.44093,-44.2662,246.451)">
                <g transform="matrix(0.980066,0,0,1,12.0266,0)">
                    <g transform="matrix(41.4509,0,0,41.4509,675.289,244.032)">
                    </g>
                    <text x="603.32px" y="244.032px" style="font-family:'IsaiahScroll', 'Isaiah Scroll';font-size:41.451px;">N<tspan x="613.614px 629.575px 651.608px " y="244.032px 244.032px 244.032px ">wcr</tspan></text>
                </g>
            </g>
            <g transform="matrix(0.674796,0,0,0.674796,619.791,309.369)">
                <g transform="matrix(0.980066,0,0,1,12.0266,0)">
                    <g transform="matrix(41.4509,0,0,41.4509,679.964,244.032)">
                    </g>
                    <text x="603.32px" y="244.032px" style="font-family:'IsaiahScroll', 'Isaiah Scroll';font-size:41.451px;">N<tspan x="613.614px 637.691px 651.507px " y="244.032px 244.032px 244.032px ">mya</tspan></text>
                </g>
            </g>
            <g transform="matrix(0.5962,0,0,0.5962,616.849,386.664)">
                <g transform="matrix(0.980066,0,0,1,12.0266,0)">
                    <g transform="matrix(41.4509,0,0,41.4509,689.052,244.032)">
                    </g>
                    <text x="603.32px" y="244.032px" style="font-family:'IsaiahScroll', 'Isaiah Scroll';font-size:41.451px;">K<tspan x="621.083px 647.467px 662.902px " y="244.032px 244.032px 244.032px ">alm</tspan></text>
                </g>
            </g>
            <g transform="matrix(1.10236,0,0,1.10236,353.971,297.065)">
                <g transform="matrix(0.980066,0,0,1,12.0266,0)">
                    <g transform="matrix(41.4509,0,0,41.4509,650.511,244.032)">
                    </g>
                    <text x="603.32px" y="244.032px" style="font-family:'IsaiahScroll', 'Isaiah Scroll';font-size:41.451px;">f<tspan x="634.623px " y="244.032px ">y</tspan></text>
                </g>
            </g>
            <g transform="matrix(0.58751,0,0,0.58751,541.423,356.203)">
                <g transform="matrix(0.980066,0,0,1,12.0266,0)">
                    <g transform="matrix(41.4509,0,0,41.4509,661.716,244.032)">
                    </g>
                    <text x="603.32px" y="244.032px" style="font-family:'IsaiahScroll', 'Isaiah Scroll';font-size:41.451px;">y<tspan x="617.136px 633.259px " y="244.032px 244.032px ">na</tspan></text>
                </g>
            </g>
            <g transform="matrix(0.769457,0,0,0.769457,458.528,343.981)">
                <g transform="matrix(0.980066,0,0,1,12.0266,0)">
                    <g transform="matrix(41.4509,0,0,41.4509,669.346,244.032)">
                    </g>
                    <text x="603.32px" y="244.032px" style="font-family:'IsaiahScroll', 'Isaiah Scroll';font-size:41.451px;">r<tspan x="624.928px 640.889px " y="244.032px 244.032px ">wa</tspan></text>
                </g>
            </g>
            <g transform="matrix(0.910385,0,0,0.910385,98.9754,385.978)">
                <g transform="matrix(0.980066,0,0,1,12.0266,0)">
                    <g transform="matrix(41.4509,0,0,41.4509,758.308,244.032)">
                    </g>
                    <text x="603.32px" y="244.032px" style="font-family:'IsaiahScroll', 'Isaiah Scroll';font-size:41.451px;">d<tspan x="623.046px 639.007px 663.59px 695.965px 715.691px 731.652px " y="244.032px 244.032px 244.032px 244.032px 244.032px 244.032px ">wshdws</tspan></text>
                </g>
            </g>
            <g transform="matrix(0.593717,0,0,0.593717,521.006,379.4)">
                <g transform="matrix(0.980066,0,0,1,12.0266,0)">
                    <g transform="matrix(41.4509,0,0,41.4509,667.767,244.032)">
                    </g>
                    <text x="603.32px" y="244.032px" style="font-family:'IsaiahScroll', 'Isaiah Scroll';font-size:41.451px;">t<tspan x="625.758px 645.969px " y="244.032px 244.032px ">{d</tspan></text>
                </g>
            </g>
            <g transform="matrix(0.632536,0,0,0.632536,434.316,369.927)">
                <g transform="matrix(0.980066,0,0,1,12.0266,0)">
                    <g transform="matrix(41.4509,0,0,41.4509,697.876,244.032)">
                    </g>
                    <text x="603.32px" y="244.032px" style="font-family:'IsaiahScroll', 'Isaiah Scroll';font-size:41.451px;">M<tspan x="625.029px 640.99px 673.366px " y="244.032px 244.032px 244.032px ">wht</tspan></text>
                </g>
            </g>
            <g transform="matrix(0.707665,0,0,0.707665,400.146,59.5658)">
                <g transform="matrix(0.980066,0,0,1,12.0266,0)">
                    <g transform="matrix(41.4509,0,0,41.4509,718.755,244.032)">
                    </g>
                    <text x="603.32px" y="244.032px" style="font-family:'IsaiahScroll', 'Isaiah Scroll';font-size:41.451px;">h<tspan x="635.696px 657.304px 671.119px 692.1px " y="244.032px 244.032px 244.032px 244.032px ">ryps</tspan></text>
                </g>
            </g>
            <g transform="matrix(0.371028,0,0,0.371028,396.779,595.443)">
                <g transform="matrix(0.980066,0,0,1,12.4425,0)">
                    <g transform="matrix(41.4509,0,0,41.4509,726.613,244.032)">
                    </g>
                    <text x="624.184px" y="244.032px" style="font-family:'IsaiahScroll', 'Isaiah Scroll';font-size:41.451px;">h<tspan x="656.559px 684.34px 698.156px " y="244.032px 244.032px 244.032px ">bya</tspan></text>
                </g>
            </g>
            <g transform="matrix(0.849898,0,0,0.849898,131.991,314.33)">
                <g transform="matrix(0.980066,0,0,1,12.0266,0)">
                    <g transform="matrix(41.4509,0,0,41.4509,777.689,244.032)">
                    </g>
                    <text x="603.32px" y="244.032px" style="font-family:'IsaiahScroll', 'Isaiah Scroll';font-size:41.451px;">w<tspan x="619.281px 651.657px 679.438px 695.399px 704.843px 720.804px 753.179px " y="244.032px 244.032px 244.032px 244.032px 244.032px 244.032px 244.032px ">hbw wht</tspan></text>
                </g>
            </g>
            <g transform="matrix(0.491111,0,0,0.491111,630.769,381.879)">
                <g transform="matrix(0.980066,0,0,1,12.4124,0)">
                    <g transform="matrix(41.4509,0,0,41.4509,766.843,244.032)">
                    </g>
                    <text x="622.672px" y="244.032px" style="font-family:'IsaiahScroll', 'Isaiah Scroll';font-size:41.451px;">L<tspan x="638.106px 646.579px 670.656px 680.1px 701.809px 717.77px 740.693px " y="244.032px 244.032px 244.032px 244.032px 244.032px 244.032px 244.032px ">zm Mwqm</tspan></text>
                </g>
            </g>
            <g transform="matrix(0.707665,0,0,0.707665,439.176,-34.4889)">
                <g transform="matrix(0.980066,0,0,1,12.0266,0)">
                    <g transform="matrix(41.4509,0,0,41.4509,672.564,244.032)">
                    </g>
                    <text x="603.32px" y="244.032px" style="font-family:'IsaiahScroll', 'Isaiah Scroll';font-size:41.451px;">r<tspan x="624.928px 645.909px " y="244.032px 244.032px ">ps</tspan></text>
                </g>
            </g>
            <g transform="matrix(0.707665,0,0,0.707665,409.373,26.4883)">
                <g transform="matrix(0.980066,0,0,1,12.0266,0)">
                    <g transform="matrix(41.4509,0,0,41.4509,686.38,244.032)">
                    </g>
                    <text x="603.32px" y="244.032px" style="font-family:'IsaiahScroll', 'Isaiah Scroll';font-size:41.451px;">r<tspan x="624.928px 645.909px 659.724px " y="244.032px 244.032px 244.032px ">pys</tspan></text>
                </g>
            </g>
            <g transform="matrix(0.707665,0,0,0.707665,416.399,-3.86466)">
                <g transform="matrix(0.980066,0,0,1,12.0266,0)">
                    <g transform="matrix(41.4509,0,0,41.4509,696.641,244.032)">
                    </g>
                    <text x="603.32px" y="244.032px" style="font-family:'IsaiahScroll', 'Isaiah Scroll';font-size:41.451px;">r<tspan x="624.928px 645.909px 670.492px " y="244.032px 244.032px 244.032px ">psm</tspan></text>
                </g>
            </g>
            <g transform="matrix(0.692132,0,0,0.692132,269.833,470.528)">
                <g transform="matrix(0.980066,0,0,1,12.0266,0)">
                    <g transform="matrix(41.4509,0,0,41.4509,711.206,244.032)">
                    </g>
                    <text x="603.32px" y="244.032px" style="font-family:'IsaiahScroll', 'Isaiah Scroll';font-size:41.451px;">M<tspan x="625.029px 640.99px 663.023px 687.1px " y="244.032px 244.032px 244.032px 244.032px ">wcmc</tspan></text>
                </g>
            </g>
            <g transform="matrix(10.8028,0,0,10.8028,-6006.3,-1792.41)">
                <g transform="matrix(0.980066,0,0,1,12.0528,0)">
                    <text x="604.636px" y="214.435px" style="font-family:'IsaiahScroll', 'Isaiah Scroll';font-size:8.722px;">N<tspan x="606.803px 609.71px " y="214.435px 214.435px ">ya</tspan></text>
                </g>
                <g transform="matrix(0.980066,0,0,1,12.0442,0)">
                    <g transform="matrix(8.72231,0,0,8.72231,619.114,221.76)">
                    </g>
                    <text x="604.204px" y="221.76px" style="font-family:'IsaiahScroll', 'Isaiah Scroll';font-size:8.722px;">P<tspan x="607.18px 610.538px " y="221.76px 221.76px ">ws</tspan></text>
                </g>
            </g>
        </g>
    </g>
</svg>
