<?xml version="1.0" encoding="UTF-8" standalone="no"?>
<!DOCTYPE svg PUBLIC "-//W3C//DTD SVG 1.1//EN" "http://www.w3.org/Graphics/SVG/1.1/DTD/svg11.dtd">
<svg width="100%" height="100%" viewBox="0 0 171 173" version="1.1" xmlns="http://www.w3.org/2000/svg" xmlns:xlink="http://www.w3.org/1999/xlink" xml:space="preserve" xmlns:serif="http://www.serif.com/" style="fill-rule:evenodd;clip-rule:evenodd;stroke-linejoin:bevel;stroke-miterlimit:1.5;">
    <g transform="matrix(1,0,0,1,-880.188,-100.513)">
        <g transform="matrix(0.0622728,0,0,0.0622728,-5447.83,-682.222)">
            <circle cx="102436" cy="13938.8" r="553.055" style="fill:none;stroke:#000;stroke-width:66.91px;"/>
        </g>
        <g transform="matrix(0.0622728,0,0,0.0622728,-5378.95,-682.222)">
            <circle cx="102436" cy="13938.8" r="553.055" style="fill:none;stroke:#000;stroke-width:66.91px;"/>
        </g>
        <g transform="matrix(0.124467,0,0,0.124467,-11784.4,-1549.13)">
            <circle cx="102436" cy="13938.8" r="553.055" style="fill:none;stroke:#000;stroke-width:33.48px;"/>
        </g>
        <g transform="matrix(0.034852,0,0,0.0351163,-2538.7,-303.057)">
            <circle cx="102436" cy="13938.8" r="553.055" style="fill:#dad8d5;"/>
        </g>
        <g transform="matrix(0.034852,0,0,0.0351163,-2604.9,-303.057)">
            <circle cx="102436" cy="13938.8" r="553.055" style="fill:#dad8d5;"/>
        </g>
        <g transform="matrix(0.0309586,0,0,0.0311934,-2273.98,-248.378)">
            <circle cx="102436" cy="13938.8" r="553.055" style="fill:#dad8d5;"/>
        </g>
        <g transform="matrix(0.0309586,0,0,0.0311934,-2205.69,-317.033)">
            <circle cx="102436" cy="13938.8" r="553.055" style="fill:#dad8d5;"/>
        </g>
        <g transform="matrix(0.0309586,0,0,0.0311934,-2205.69,-178.712)">
            <circle cx="102436" cy="13938.8" r="553.055" style="fill:#dad8d5;"/>
        </g>
        <g transform="matrix(0.72074,0,0,1.07427,-201.844,-1037.7)">
            <path d="M1524.2,1149.7c7.272,0 12.61,-3.694 12.61,-10.208c-0,-6.514 -5.338,-10.208 -12.61,-10.208c-7.229,0 -12.609,3.694 -12.609,10.208c-0,6.514 5.38,10.208 12.609,10.208Zm0,-3.863c-3.362,0 -5.716,-1.861 -5.716,-6.345c0,-4.483 2.354,-6.344 5.716,-6.344c3.405,-0 5.758,1.861 5.758,6.344c0,4.484 -2.353,6.345 -5.758,6.345Z"/>
        </g>
        <g transform="matrix(0.731355,0,0,1.07427,-83.6677,-1037.7)">
            <path d="M1538.11,1141.5l-4.722,0l-0,-3.694l-6.337,0l-0,3.694l-7.788,0l12.675,-11.871l-7.041,-0l-13.669,12.52l-0,3.074l15.616,-0l-0,4.145l6.544,0l-0,-4.145l4.722,-0l-0,-3.723Z"/>
        </g>
        <g transform="matrix(0.731355,0,0,1.07427,-149.842,-1037.7)">
            <path d="M1516.39,1129.63l-0,3.666l5.799,-0l-0,16.073l6.71,0l-0,-19.739l-12.509,-0Z"/>
        </g>
        <g transform="matrix(0.626275,0,0,1.07427,11.2755,-968.869)">
            <path d="M1522.57,1145.64l7.787,-4.287c4.741,-2.566 5.66,-4.314 5.66,-6.231c-0,-3.582 -5.031,-5.838 -12.577,-5.838c-6.094,0 -10.835,1.438 -13.447,3.666l5.708,2.143c1.645,-1.325 4.112,-1.974 7.014,-1.974c3.579,0 5.417,0.903 5.417,2.454c0,0.958 -0.532,1.974 -3.531,3.637l-13.06,7.191l0,2.961l25.588,0l0,-3.722l-14.559,-0Z"/>
        </g>
        <g transform="matrix(0.6284,0,0,1.07427,8.03732,-1106.54)">
            <path d="M1527.59,1137.66l7.617,-5.075l-0,-2.961l-23.622,-0l-0,3.666l14.366,-0l-6.942,4.596l-0,3.017l3.567,0c4.435,0 6.315,0.931 6.315,2.425c0,1.608 -2.41,2.538 -6.315,2.538c-3.519,0 -7.086,-0.648 -9.641,-1.776l-3.037,3.497c3.278,1.353 8.147,2.114 12.871,2.114c9.593,0 13.98,-3.045 13.98,-6.373c0,-2.904 -3.085,-5.104 -9.159,-5.668Z"/>
        </g>
    </g>
</svg>
