<?xml version="1.0" encoding="UTF-8" standalone="no"?>
<!DOCTYPE svg PUBLIC "-//W3C//DTD SVG 1.1//EN" "http://www.w3.org/Graphics/SVG/1.1/DTD/svg11.dtd">
<svg width="100%" height="100%" viewBox="0 0 875 875" version="1.1" xmlns="http://www.w3.org/2000/svg" xmlns:xlink="http://www.w3.org/1999/xlink" xml:space="preserve" xmlns:serif="http://www.serif.com/" style="fill-rule:evenodd;clip-rule:evenodd;stroke-linejoin:round;stroke-miterlimit:1.5;">
    <g transform="matrix(1,0,0,1,-522.554,-102.554)">
        <g transform="matrix(0.263525,0,0,0.263525,-26034.5,-2841.51)">
            <circle cx="102436" cy="13938.8" r="553.055"/>
        </g>
        <g transform="matrix(0.263525,0,0,0.263525,-26034.5,-3133.22)">
            <circle cx="102436" cy="13938.8" r="553.055"/>
        </g>
        <g transform="matrix(0.263525,0,0,0.263525,-25742.8,-3133)">
            <circle cx="102436" cy="13938.8" r="553.055"/>
        </g>
        <g transform="matrix(0.263525,0,0,0.263525,-26326.2,-3133)">
            <circle cx="102436" cy="13938.8" r="553.055"/>
        </g>
        <g transform="matrix(0.263525,0,0,0.263525,-26034.5,-3424.92)">
            <circle cx="102436" cy="13938.8" r="553.055"/>
        </g>
        <g transform="matrix(0.820722,0,0,0.820722,389.528,309.259)">
            <g transform="matrix(0.980066,0,0,1,12.3758,0)">
                <g transform="matrix(132.643,0,0,132.643,789.758,326.496)">
                </g>
                <text x="620.84px" y="326.496px" style="font-family:'IsaiahScroll', 'Isaiah Scroll';font-size:132.643px;fill:rgb(254,255,254);">v<tspan x="738.916px " y="326.496px ">y</tspan></text>
            </g>
        </g>
        <g transform="matrix(0.443605,0,0,0.443605,335.887,385.19)">
            <g transform="matrix(0.980066,0,0,1,12.9928,0)">
                <text x="651.788px" y="304.281px" style="font-family:'EzraSILSR', 'Ezra SIL SR';font-size:132.643px;fill:rgb(254,255,254);">ן<tspan x="713.757px 771.775px " y="304.281px 304.281px ">יא</tspan></text>
            </g>
            <g transform="matrix(0.980066,0,0,1,12.6372,0)">
                <g transform="matrix(132.643,0,0,132.643,869.418,473.379)">
                </g>
                <text x="633.951px" y="473.379px" style="font-family:'EzraSILSR', 'Ezra SIL SR';font-size:132.643px;fill:rgb(254,255,254);">ף<tspan x="728.951px 786.905px " y="473.379px 473.379px ">וס</tspan></text>
            </g>
        </g>
        <g transform="matrix(0.583161,0,0,0.583161,-324.898,66.947)">
            <g transform="matrix(0.0231951,0,0,0.0213445,290.045,-542.188)">
                <g transform="matrix(0.920216,0,0,1,6061.93,0)">
                    <g transform="matrix(2865.98,0,0,2865.98,77821.9,42979.8)">
                    </g>
                    <text x="75978.9px" y="42979.8px" style="font-family:'IsaiahScroll', 'Isaiah Scroll';font-size:2865.98px;fill:rgb(254,255,254);">s</text>
                </g>
            </g>
            <g transform="matrix(0.0224095,0,0,0.0224095,384.974,-754.594)">
                <g transform="matrix(2729.77,0,0,2729.77,77566.3,42979.8)">
                </g>
                <text x="75978.9px" y="42979.8px" style="font-family:'IsaiahScroll', 'Isaiah Scroll';font-size:2729.77px;fill:rgb(254,255,254);">c</text>
            </g>
            <g transform="matrix(0.0205813,0,0,0.0205813,756.01,-474.254)">
                <g transform="matrix(2972.26,0,0,2972.26,78054.2,42979.8)">
                </g>
                <text x="75978.9px" y="42979.8px" style="font-family:'IsaiahScroll', 'Isaiah Scroll';font-size:2972.26px;fill:rgb(254,255,254);">j</text>
            </g>
            <g transform="matrix(0.0225767,0,0,0.0225767,627.358,-699.101)">
                <g transform="matrix(2709.56,0,0,2709.56,76668.2,42979.8)">
                </g>
                <text x="75978.9px" y="42979.8px" style="font-family:'IsaiahScroll', 'Isaiah Scroll';font-size:2709.56px;fill:rgb(254,255,254);">z</text>
            </g>
            <g transform="matrix(0.0221581,0,0,0.0221581,-574.055,-229.881)">
                <g transform="matrix(2760.75,0,0,2760.75,128402,21145.7)">
                </g>
                <text x="126414px" y="21145.7px" style="font-family:'IsaiahScroll', 'Isaiah Scroll';font-size:2760.75px;fill:rgb(254,255,254);">b</text>
            </g>
            <g transform="matrix(0.0205813,0,0,0.0205813,-380.962,-37.5196)">
                <g transform="matrix(2972.26,0,0,2972.26,127903,21145.7)">
                </g>
                <text x="126481px" y="21145.7px" style="font-family:'IsaiahScroll', 'Isaiah Scroll';font-size:2972.26px;fill:rgb(254,255,254);">k</text>
            </g>
            <g transform="matrix(0.0205813,0,0,0.0205813,-414.097,43.3362)">
                <g transform="matrix(2972.26,0,0,2972.26,127781,21145.7)">
                </g>
                <text x="126525px" y="21145.7px" style="font-family:'IsaiahScroll', 'Isaiah Scroll';font-size:2972.26px;fill:rgb(254,255,254);">l</text>
            </g>
            <g transform="matrix(0.0237713,0,0,0.0237713,-845.629,-329.256)">
                <g transform="matrix(2573.39,0,0,2573.39,127882,21145.7)">
                </g>
                <text x="126330px" y="21145.7px" style="font-family:'IsaiahScroll', 'Isaiah Scroll';font-size:2573.39px;fill:rgb(254,255,254);">q</text>
            </g>
            <g transform="matrix(0.0212603,0,0,0.0212603,-481.472,-156.867)">
                <g transform="matrix(2877.33,0,0,2877.33,128325,21145.7)">
                </g>
                <text x="126349px" y="21145.7px" style="font-family:'IsaiahScroll', 'Isaiah Scroll';font-size:2877.33px;fill:rgb(254,255,254);">a</text>
            </g>
            <g transform="matrix(0.0221914,0,0,0.0221914,-458.397,-131.513)">
                <g transform="matrix(2756.6,0,0,2756.6,128063,21145.7)">
                </g>
                <text x="126401px" y="21145.7px" style="font-family:'IsaiahScroll', 'Isaiah Scroll';font-size:2756.6px;fill:rgb(254,255,254);">x</text>
            </g>
            <g transform="matrix(0.0231951,0,0,0.0213445,-816.261,6.91876)">
                <g transform="matrix(2865.98,0,0,2865.98,127403,21145.7)">
                </g>
                <text x="126547px" y="21145.7px" style="font-family:'IsaiahScroll', 'Isaiah Scroll';font-size:2865.98px;fill:rgb(254,255,254);">N</text>
            </g>
            <g transform="matrix(0.0231951,0,0,0.0213445,-790.179,-76.0181)">
                <g transform="matrix(0.920216,0,0,1,10091.4,0)">
                    <g transform="matrix(2865.98,0,0,2865.98,128077,21145.7)">
                    </g>
                    <text x="126483px" y="21145.7px" style="font-family:'IsaiahScroll', 'Isaiah Scroll';font-size:2865.98px;fill:rgb(254,255,254);">p</text>
                </g>
            </g>
            <g transform="matrix(0.0210012,0,0,0.0210012,-505.848,-199.618)">
                <g transform="matrix(2912.84,0,0,2912.84,128105,21145.7)">
                </g>
                <text x="126382px" y="21145.7px" style="font-family:'IsaiahScroll', 'Isaiah Scroll';font-size:2912.84px;fill:rgb(254,255,254);">t</text>
            </g>
            <g transform="matrix(0.0210012,0,0,0.0210012,-554.21,-135.38)">
                <g transform="matrix(2912.84,0,0,2912.84,128140,21145.7)">
                </g>
                <text x="126476px" y="21145.7px" style="font-family:'IsaiahScroll', 'Isaiah Scroll';font-size:2912.84px;fill:rgb(254,255,254);">r</text>
            </g>
            <g transform="matrix(0.0210012,0,0,0.0210012,-625.883,-145.755)">
                <g transform="matrix(2912.84,0,0,2912.84,128042,21145.7)">
                </g>
                <text x="126476px" y="21145.7px" style="font-family:'IsaiahScroll', 'Isaiah Scroll';font-size:2912.84px;fill:rgb(254,255,254);">{</text>
            </g>
            <g transform="matrix(0.0205813,0,0,0.0205813,-385.915,-93.1901)">
                <g transform="matrix(2972.26,0,0,2972.26,128228,21145.7)">
                </g>
                <text x="126352px" y="21145.7px" style="font-family:'IsaiahScroll', 'Isaiah Scroll';font-size:2972.26px;fill:rgb(254,255,254);">m</text>
            </g>
            <g transform="matrix(0.0212603,0,0,0.0212603,-416.175,-151.949)">
                <g transform="matrix(2877.33,0,0,2877.33,128765,21145.7)">
                </g>
                <text x="126407px" y="21145.7px" style="font-family:'IsaiahScroll', 'Isaiah Scroll';font-size:2877.33px;fill:rgb(254,255,254);">g</text>
            </g>
            <g transform="matrix(0.0212603,0,0,0.0212603,-413.81,-80.1316)">
                <g transform="matrix(2877.33,0,0,2877.33,127920,21145.7)">
                </g>
                <text x="126407px" y="21145.7px" style="font-family:'IsaiahScroll', 'Isaiah Scroll';font-size:2877.33px;fill:rgb(254,255,254);">d</text>
            </g>
            <g transform="matrix(0.0210012,0,0,0.0210012,-493.55,-139.109)">
                <g transform="matrix(2912.84,0,0,2912.84,128619,21145.7)">
                </g>
                <text x="126273px" y="21145.7px" style="font-family:'IsaiahScroll', 'Isaiah Scroll';font-size:2912.84px;fill:rgb(254,255,254);">f</text>
            </g>
            <g transform="matrix(0.0225767,0,0,0.0225767,-548.875,-267.048)">
                <g transform="matrix(2709.56,0,0,2709.56,127830,21145.7)">
                </g>
                <text x="126651px" y="21145.7px" style="font-family:'IsaiahScroll', 'Isaiah Scroll';font-size:2709.56px;fill:rgb(254,255,254);">w</text>
            </g>
            <g transform="matrix(0.020891,0,0,0.020891,-409.513,-268.413)">
                <g transform="matrix(2928.19,0,0,2928.19,128693,21145.7)">
                </g>
                <text x="126260px" y="21145.7px" style="font-family:'IsaiahScroll', 'Isaiah Scroll';font-size:2928.19px;fill:rgb(254,255,254);">h</text>
            </g>
            <g transform="matrix(0.315152,0,0,0.315152,2258.92,419.634)">
                <g transform="matrix(194.106,0,0,194.106,74.401,175.53)">
                </g>
                <text x="0px" y="175.53px" style="font-family:'IsaiahScroll', 'Isaiah Scroll';font-size:194.106px;fill:rgb(254,255,254);">y</text>
            </g>
            <g transform="matrix(0.0344328,0,0,0.0344328,-520.467,-1017.63)">
                <g transform="matrix(1776.59,0,0,1776.59,76508.9,42979.8)">
                </g>
                <text x="75978.9px" y="42979.8px" style="font-family:'IsaiahScroll', 'Isaiah Scroll';font-size:1776.59px;fill:rgb(254,255,254);">N</text>
            </g>
            <g transform="matrix(0.0319307,0,0,0.0319307,-305.271,-985.385)">
                <g transform="matrix(1915.8,0,0,1915.8,76728.2,42979.8)">
                </g>
                <text x="75978.9px" y="42979.8px" style="font-family:'IsaiahScroll', 'Isaiah Scroll';font-size:1915.8px;fill:rgb(254,255,254);">P</text>
            </g>
            <g transform="matrix(0.0295155,0,0,0.0295155,-47.3483,-862.881)">
                <g transform="matrix(2072.57,0,0,2072.57,76970.6,42979.8)">
                </g>
                <text x="75978.9px" y="42979.8px" style="font-family:'IsaiahScroll', 'Isaiah Scroll';font-size:2072.57px;fill:rgb(254,255,254);">K</text>
            </g>
            <g transform="matrix(0.0656092,0,0,0.0656092,-2933.68,-2600.15)">
                <g transform="matrix(0.980066,0,0,1,1517.23,0)">
                    <g transform="matrix(932.383,0,0,932.383,76555,42979.8)">
                    </g>
                    <text x="76112.4px" y="42979.8px" style="font-family:'IsaiahScroll', 'Isaiah Scroll';font-size:932.383px;fill:rgb(254,255,254);">C</text>
                </g>
            </g>
            <g transform="matrix(0.0310956,0,0,0.0310956,-180.82,-989.58)">
                <g transform="matrix(1967.25,0,0,1967.25,77107.5,42979.8)">
                </g>
                <text x="75978.9px" y="42979.8px" style="font-family:'IsaiahScroll', 'Isaiah Scroll';font-size:1967.25px;fill:rgb(254,255,254);">M</text>
            </g>
        </g>
        <g transform="matrix(1,0,0,1,-1920,0)">
            <g transform="matrix(4.71539e-17,0.770081,-0.770081,4.71539e-17,3391.88,-3209.76)">
                <circle cx="5220.57" cy="612.126" r="26.289" style="fill:rgb(254,255,254);stroke:black;stroke-width:24.35px;"/>
            </g>
            <g transform="matrix(4.71539e-17,0.770081,-0.770081,4.71539e-17,3310.9,-3209.76)">
                <circle cx="5220.57" cy="612.126" r="26.289" style="fill:rgb(254,255,254);stroke:black;stroke-width:24.35px;"/>
            </g>
            <g transform="matrix(4.71539e-17,0.770081,-0.770081,4.71539e-17,3391.88,-3256)">
                <circle cx="5220.57" cy="612.126" r="26.289" style="fill:rgb(254,255,254);stroke:black;stroke-width:24.35px;"/>
            </g>
            <g transform="matrix(4.71539e-17,0.770081,-0.770081,4.71539e-17,3351.39,-3282.23)">
                <circle cx="5220.57" cy="612.126" r="26.289" style="fill:rgb(254,255,254);stroke:black;stroke-width:24.35px;"/>
            </g>
            <g transform="matrix(4.71539e-17,0.770081,-0.770081,4.71539e-17,3391.88,-3161.89)">
                <circle cx="5220.57" cy="612.126" r="26.289" style="fill:rgb(254,255,254);stroke:black;stroke-width:24.35px;"/>
            </g>
            <g transform="matrix(4.71539e-17,0.770081,-0.770081,4.71539e-17,3310.9,-3161.89)">
                <circle cx="5220.57" cy="612.126" r="26.289" style="fill:rgb(254,255,254);stroke:black;stroke-width:24.35px;"/>
            </g>
            <g transform="matrix(4.71539e-17,0.770081,-0.770081,4.71539e-17,3351.39,-3186.49)">
                <circle cx="5220.57" cy="612.126" r="26.289" style="fill:rgb(254,255,254);stroke:black;stroke-width:24.35px;"/>
            </g>
            <g transform="matrix(4.71539e-17,0.770081,-0.770081,4.71539e-17,3310.9,-3256)">
                <circle cx="5220.57" cy="612.126" r="26.289" style="fill:rgb(254,255,254);stroke:black;stroke-width:24.35px;"/>
            </g>
            <g transform="matrix(4.71539e-17,0.770081,-0.770081,4.71539e-17,3352.42,-3138.49)">
                <circle cx="5220.57" cy="612.126" r="26.289" style="fill:rgb(254,255,254);stroke:black;stroke-width:24.35px;"/>
            </g>
            <g transform="matrix(4.71539e-17,0.770081,-0.770081,4.71539e-17,3351.39,-3094.89)">
                <circle cx="5220.57" cy="612.126" r="26.289" style="fill:rgb(254,255,254);stroke:black;stroke-width:24.35px;"/>
            </g>
        </g>
        <g transform="matrix(0.423936,0,0,0.423936,-36.5707,593.761)">
            <g transform="matrix(3.593,0,0,3.593,-5659.41,-1665.93)">
                <g transform="matrix(1,0,0,1,2125.74,70.4056)">
                    <path d="M329.165,572.309C329.165,572.309 330.654,579.922 321.072,581.657" style="fill:none;stroke:black;stroke-width:2.46px;stroke-linecap:square;stroke-linejoin:bevel;"/>
                </g>
                <g transform="matrix(1,0,0,1,2125.74,70.4056)">
                    <path d="M317.698,572.309L320.076,580.286L323.69,591.416L314.058,596.655" style="fill:none;stroke:black;stroke-width:2.46px;stroke-linecap:square;stroke-linejoin:bevel;"/>
                </g>
            </g>
            <g transform="matrix(3.593,0,0,3.593,1353.4,-1486.3)">
                <path d="M466.142,572.194L468.331,548.924L471.841,562.699L472.466,591.362L478.658,595.626C478.658,595.626 476.176,602.974 473.434,604.893" style="fill:none;stroke:black;stroke-width:2.46px;stroke-linecap:square;stroke-linejoin:bevel;"/>
            </g>
            <g transform="matrix(0.891285,0,0,0.891285,1112.42,-110.807)">
                <g transform="matrix(1.80866,0,0,1.80866,-691.814,549.48)">
                    <path d="M1506.85,165.571C1506.98,172.007 1512.42,173.255 1518.36,173.595C1518.36,173.595 1524.5,175.269 1524.73,184.887C1524.96,194.504 1524.92,198.307 1523.2,206.164C1521.49,214.022 1517.47,229.102 1518.88,242.445" style="fill:none;stroke:black;stroke-width:5.49px;stroke-linecap:square;"/>
                </g>
                <g transform="matrix(1.80866,0,0,1.80866,-691.814,549.48)">
                    <path d="M1522.58,177.035C1522.58,177.035 1532.2,162.401 1535.4,164.167C1538.6,165.932 1543.14,168.903 1546.07,177.379C1548.99,185.854 1550.81,210.54 1550.81,210.54C1550.81,210.54 1550.43,219.41 1545.63,222.472C1543.23,224.006 1522.6,232.205 1521.44,234.314" style="fill:none;stroke:black;stroke-width:5.49px;stroke-linecap:square;"/>
                </g>
            </g>
        </g>
        <g transform="matrix(0.423936,0,0,0.423936,-33.6718,141.641)">
            <g transform="matrix(3.60374,0,0,3.60374,746.629,-1160.21)">
                <path d="M605.732,577.025C605.732,577.025 612.346,571.633 612.335,578.46C612.322,585.433 612.765,594.815 612.765,594.815" style="fill:none;stroke:white;stroke-width:1.64px;stroke-linecap:square;stroke-linejoin:bevel;"/>
            </g>
            <g transform="matrix(3.60374,0,0,3.60374,-6588.5,308.992)">
                <g transform="matrix(1,0,0,1,1958.75,-410.782)">
                    <path d="M753.472,595.268C753.472,595.268 753,582.182 759.251,582.147C765.502,582.112 765.243,585.902 768.949,574.262" style="fill:none;stroke:white;stroke-width:1.64px;stroke-linecap:square;stroke-linejoin:bevel;"/>
                </g>
                <g transform="matrix(1,0,0,1,1958.75,-410.782)">
                    <path d="M753.472,573.667L771.47,593.796" style="fill:none;stroke:white;stroke-width:1.64px;stroke-linecap:square;stroke-linejoin:bevel;"/>
                </g>
            </g>
            <g transform="matrix(3.60374,0,0,3.60374,-5251.54,-1417.72)">
                <g transform="matrix(1,0,0,1,2037.16,70.4056)">
                    <path d="M203.988,572.545L206.234,590.854L200.804,595.866" style="fill:none;stroke:white;stroke-width:1.64px;stroke-linecap:square;stroke-linejoin:bevel;"/>
                </g>
                <g transform="matrix(1,0,0,1,2037.16,70.4056)">
                    <path d="M200.804,576.86L214.144,576.298L215.666,579.311L216.191,588.356L214.056,592.514" style="fill:none;stroke:white;stroke-width:1.64px;stroke-linecap:square;stroke-linejoin:bevel;"/>
                </g>
            </g>
            <g transform="matrix(3.60374,0,0,3.60374,1483.98,-1157.48)">
                <path d="M429.061,574.245C429.061,574.245 427.204,578.451 428.007,581.181C428.809,583.911 430.169,587.842 430.169,587.842L420.284,593.546" style="fill:none;stroke:white;stroke-width:1.64px;stroke-linecap:square;stroke-linejoin:bevel;"/>
            </g>
            <g transform="matrix(3.60374,0,0,3.60374,-6578.58,-1419.88)">
                <g transform="matrix(1,0,0,1,2236.2,70.4056)">
                    <path d="M446.061,572.224L449.533,577.111C449.533,577.111 445.727,584.828 443.437,584.679" style="fill:none;stroke:white;stroke-width:1.64px;stroke-linecap:square;stroke-linejoin:bevel;"/>
                </g>
                <g transform="matrix(1,0,0,1,2236.2,70.4056)">
                    <path d="M449.957,575.739L453.248,575.681L454.636,573.404L455.784,583.093L458.352,589.51L447.442,592.972L443.437,595.955" style="fill:none;stroke:white;stroke-width:1.64px;stroke-linecap:square;stroke-linejoin:bevel;"/>
                </g>
            </g>
        </g>
        <g transform="matrix(0.125521,1.96319,-1.96319,0.125521,1241.03,-4705.42)">
            <g transform="matrix(0.0324354,-0.507301,0.507301,0.0324354,2415.78,520.431)">
                <path d="M607.653,689.456L597.398,686.177L600.677,675.923" style="fill:none;stroke:black;stroke-width:1.22px;stroke-linejoin:miter;stroke-miterlimit:10;"/>
                <path d="M696.569,738.731L696.816,739.29L695.698,739.785L695.45,739.226C695.45,739.226 694.685,738.111 693.357,736.072C692.775,735.178 692.092,734.122 691.335,732.892C690.847,732.098 690.345,731.229 689.805,730.306C689.1,729.101 688.356,727.79 687.531,726.416C679.633,713.273 665.386,693.762 645.666,684.794C632.133,678.639 616.04,677.467 597.679,686.721L597.135,687.001L596.575,685.914L597.118,685.634C615.865,675.753 632.487,676.722 646.537,682.836C666.905,691.699 681.893,711.445 690.119,724.844C690.974,726.237 691.768,727.554 692.455,728.8C692.982,729.756 693.463,730.66 693.869,731.519C694.498,732.85 694.985,734.037 695.367,735.055C696.242,737.382 696.569,738.731 696.569,738.731Z"/>
            </g>
        </g>
    </g>
</svg>
