<?xml version="1.0" encoding="UTF-8" standalone="no"?>
<!DOCTYPE svg PUBLIC "-//W3C//DTD SVG 1.1//EN" "http://www.w3.org/Graphics/SVG/1.1/DTD/svg11.dtd">
<svg width="100%" height="100%" viewBox="0 0 722 722" version="1.1" xmlns="http://www.w3.org/2000/svg" xmlns:xlink="http://www.w3.org/1999/xlink" xml:space="preserve" xmlns:serif="http://www.serif.com/" style="fill-rule:evenodd;clip-rule:evenodd;stroke-linejoin:round;stroke-miterlimit:2;">
    <g transform="matrix(1,0,0,1,-599.03,-179.03)">
        <g transform="matrix(1.9672,0,0,1.9672,-5191.91,39.691)">
            <g transform="matrix(2.27832,0,0,2.27832,-4093.41,-690.295)">
                <g transform="matrix(0.0485182,0,0,0.0485182,-1800.74,-207.966)">
                    <circle cx="102436" cy="13938.8" r="553.055" style="fill:white;"/>
                </g>
                <g transform="matrix(0.0485182,0,0,0.0485182,-1747.04,-261.633)">
                    <circle cx="102436" cy="13938.8" r="553.055" style="fill:white;"/>
                </g>
                <g transform="matrix(0.0485182,0,0,0.0485182,-1854.45,-261.633)">
                    <circle cx="102436" cy="13938.8" r="553.055" style="fill:white;"/>
                </g>
                <g transform="matrix(0.0485182,0,0,0.0485182,-1800.74,-315.378)">
                    <circle cx="102436" cy="13938.8" r="553.055" style="fill:white;"/>
                </g>
                <g transform="matrix(0.0485182,0,0,0.0485182,-1800.74,-261.672)">
                    <circle cx="102436" cy="13938.8" r="553.055" style="fill:white;"/>
                </g>
            </g>
            <g transform="matrix(0.725111,0,0,0.725111,2645.76,-30.9659)">
                <g transform="matrix(0.980066,0,0,1,12.0266,0)">
                    <g transform="matrix(41.4509,0,0,41.4509,727.175,244.032)">
                    </g>
                    <text x="603.32px" y="244.032px" style="font-family:'IsaiahScroll', 'Isaiah Scroll';font-size:41.451px;">r<tspan x="624.928px 640.889px 672.192px 693.8px " y="244.032px 244.032px 244.032px 244.032px ">wfrf</tspan></text>
                </g>
            </g>
            <g transform="matrix(1.06534,0,0,1.06534,2573.92,8.2491)">
                <g transform="matrix(0.980066,0,0,1,12.0266,0)">
                    <g transform="matrix(41.4509,0,0,41.4509,676.005,244.032)">
                    </g>
                    <text x="603.32px" y="244.032px" style="font-family:'IsaiahScroll', 'Isaiah Scroll';font-size:41.451px;">b<tspan x="631.101px 647.062px " y="244.032px 244.032px ">wj</tspan></text>
                </g>
            </g>
            <g transform="matrix(1.14828,0,0,1.14828,2402.05,110.837)">
                <g transform="matrix(0.980066,0,0,1,12.0266,0)">
                    <g transform="matrix(41.4509,0,0,41.4509,664.57,244.032)">
                    </g>
                    <text x="603.32px" y="244.032px" style="font-family:'IsaiahScroll', 'Isaiah Scroll';font-size:41.451px;">M<tspan x="625.029px 640.464px " y="244.032px 244.032px ">lc</tspan></text>
                </g>
            </g>
            <g transform="matrix(1.37814,0,0,1.37814,2265.2,-60.5854)">
                <g transform="matrix(0.980066,0,0,1,12.0266,0)">
                    <g transform="matrix(41.4509,0,0,41.4509,650.511,244.032)">
                    </g>
                    <text x="603.32px" y="244.032px" style="font-family:'IsaiahScroll', 'Isaiah Scroll';font-size:41.451px;">f<tspan x="634.623px " y="244.032px ">y</tspan></text>
                </g>
            </g>
            <g transform="matrix(2.98563,0,0,2.98563,1159,-374.666)">
                <g transform="matrix(0.980066,0,0,1,12.0797,0)">
                    <g transform="matrix(8.72231,0,0,8.72231,630.541,214.435)">
                    </g>
                    <text x="605.985px" y="214.435px" style="font-family:'IsaiahScroll', 'Isaiah Scroll';font-size:8.722px;">P<tspan x="608.961px 612.319px 617.492px 619.479px 621.645px 624.553px " y="214.435px 214.435px 214.435px 214.435px 214.435px 214.435px ">ws Nya</tspan></text>
                </g>
            </g>
        </g>
    </g>
</svg>
