<?xml version="1.0" encoding="UTF-8" standalone="no"?>
<!DOCTYPE svg PUBLIC "-//W3C//DTD SVG 1.1//EN" "http://www.w3.org/Graphics/SVG/1.1/DTD/svg11.dtd">
<svg width="100%" height="100%" viewBox="0 0 685 445" version="1.1" xmlns="http://www.w3.org/2000/svg" xmlns:xlink="http://www.w3.org/1999/xlink" xml:space="preserve" xmlns:serif="http://www.serif.com/" style="fill-rule:evenodd;clip-rule:evenodd;stroke-linejoin:bevel;stroke-miterlimit:1.5;">
    <g transform="matrix(1,0,0,1,-7455.72,-1489.89)">
        <g transform="matrix(2.31957,0,0,8.13184,6809.14,715.602)">
            <g transform="matrix(0.150726,0,0,0.042994,-15055.2,-476.689)">
                <circle cx="102436" cy="13938.8" r="553.055" style="fill:rgb(161,161,161);stroke:black;stroke-width:22.88px;"/>
            </g>
        </g>
        <g transform="matrix(2.31957,0,0,8.13184,6809.14,715.602)">
            <g transform="matrix(0.150726,0,0,0.042994,-14888.5,-476.689)">
                <path d="M102169,14423C101999,14328.7 101883,14147.1 101883,13938.8C101883,13728.3 102001,13545.1 102174,13451.7" style="fill:none;stroke:black;stroke-width:22.88px;"/>
            </g>
        </g>
        <g transform="matrix(2.31957,0,0,8.13184,6809.14,715.602)">
            <g transform="matrix(0.150726,0,0,0.042994,-15138.5,-476.689)">
                <path d="M102698,13451.7C102871,13545.1 102989,13728.3 102989,13938.8C102989,14147.9 102873,14330.2 102701,14424.1" style="fill:none;stroke:black;stroke-width:22.88px;"/>
            </g>
        </g>
        <g transform="matrix(2.31957,0,0,8.13184,6809.14,715.602)">
            <g transform="matrix(0.0753499,0,0,0.0214932,-7375.58,-176.991)">
                <circle cx="102436" cy="13938.8" r="553.055" style="fill:none;stroke:black;stroke-width:45.77px;"/>
            </g>
        </g>
        <g transform="matrix(2.31957,0,0,8.13184,6809.14,715.602)">
            <g transform="matrix(0.0753499,0,0,0.0214932,-7208.92,-176.991)">
                <circle cx="102436" cy="13938.8" r="553.055" style="fill:none;stroke:black;stroke-width:45.77px;"/>
            </g>
        </g>
        <g transform="matrix(2.31957,0,0,8.13184,6809.14,715.602)">
            <g transform="matrix(0.0753499,0,0,0.0214932,-7292.26,-176.991)">
                <circle cx="102436" cy="13938.8" r="553.055" style="fill:none;stroke:black;stroke-width:45.77px;"/>
            </g>
        </g>
        <g transform="matrix(2.31957,0,0,8.13184,6809.14,715.602)">
            <g transform="matrix(0.037675,0,0,0.0107466,-3537.14,-27.2008)">
                <circle cx="102436" cy="13938.8" r="553.055" style="fill:none;stroke:black;stroke-width:91.54px;"/>
            </g>
        </g>
        <g transform="matrix(2.31957,0,0,8.13184,6809.14,715.602)">
            <g transform="matrix(0.037675,0,0,0.0107466,-3370.47,-27.2008)">
                <circle cx="102436" cy="13938.8" r="553.055" style="fill:none;stroke:black;stroke-width:91.54px;"/>
            </g>
        </g>
        <g transform="matrix(2.31957,0,0,8.13184,6809.14,715.602)">
            <g transform="matrix(0.037675,0,0,0.0107466,-3453.82,-27.2008)">
                <circle cx="102436" cy="13938.8" r="553.055" style="fill:none;stroke:black;stroke-width:91.54px;"/>
            </g>
        </g>
        <g transform="matrix(2.31957,0,0,8.13184,6809.14,715.602)">
            <g transform="matrix(0.037675,0,0,0.0107466,-3495.46,-27.2008)">
                <circle cx="102436" cy="13938.8" r="553.055" style="fill:none;stroke:black;stroke-width:91.54px;"/>
            </g>
        </g>
        <g transform="matrix(2.31957,0,0,8.13184,6809.14,715.602)">
            <g transform="matrix(0.037675,0,0,0.0107466,-3328.8,-27.2008)">
                <circle cx="102436" cy="13938.8" r="553.055" style="fill:none;stroke:black;stroke-width:91.54px;"/>
            </g>
        </g>
        <g transform="matrix(2.31957,0,0,8.13184,6809.14,715.602)">
            <g transform="matrix(0.037675,0,0,0.0107466,-3412.15,-27.2008)">
                <circle cx="102436" cy="13938.8" r="553.055" style="fill:none;stroke:black;stroke-width:91.54px;"/>
            </g>
        </g>
        <g transform="matrix(2.31957,0,0,8.13184,6809.14,715.602)">
            <g transform="matrix(0.150726,0,0,0.042994,-14971.8,-476.689)">
                <circle cx="102436" cy="13938.8" r="553.055" style="fill:none;stroke:black;stroke-width:22.88px;"/>
            </g>
        </g>
        <g transform="matrix(2.31957,0,0,8.13184,6809.14,715.602)">
            <g transform="matrix(0.037675,0,0,0.0107466,-3391.31,-27.2986)">
                <circle cx="102436" cy="13938.8" r="553.055" style="fill:rgb(255,255,159);stroke:black;stroke-width:91.54px;"/>
            </g>
        </g>
        <g transform="matrix(2.31957,0,0,8.13184,6809.14,715.602)">
            <g transform="matrix(0.037675,0,0,0.0107466,-3307.89,-27.2986)">
                <circle cx="102436" cy="13938.8" r="553.055" style="fill:rgb(43,196,169);stroke:black;stroke-width:91.54px;"/>
            </g>
        </g>
        <g transform="matrix(2.31957,0,0,8.13184,6809.14,715.602)">
            <g transform="matrix(0.037675,0,0,0.0107466,-3349.64,-48.1427)">
                <circle cx="102436" cy="13938.8" r="553.055" style="fill:rgb(159,159,255);stroke:black;stroke-width:91.54px;"/>
            </g>
        </g>
        <g transform="matrix(2.31957,0,0,8.13184,6809.14,715.602)">
            <g transform="matrix(0.037675,0,0,0.0107466,-3430.6,-48.1427)">
                <circle cx="102436" cy="13938.8" r="553.055" style="fill:rgb(232,232,232);stroke:black;stroke-width:91.54px;"/>
            </g>
        </g>
        <g transform="matrix(2.31957,0,0,8.13184,6809.14,715.602)">
            <g transform="matrix(0.037675,0,0,0.0107466,-3518,-48.1427)">
                <circle cx="102436" cy="13938.8" r="553.055" style="fill:rgb(232,232,232);stroke:black;stroke-width:91.54px;"/>
            </g>
        </g>
        <g transform="matrix(2.31957,0,0,8.13184,6809.14,715.602)">
            <g transform="matrix(0.037675,0,0,0.0107466,-3349.64,-6.38182)">
                <circle cx="102436" cy="13938.8" r="553.055" style="fill:rgb(255,104,116);stroke:black;stroke-width:91.54px;"/>
            </g>
        </g>
        <g transform="matrix(2.31957,0,0,8.13184,6809.14,715.602)">
            <g transform="matrix(0.037675,0,0,0.0107466,-3430.6,-6.38182)">
                <circle cx="102436" cy="13938.8" r="553.055" style="fill:rgb(232,232,232);stroke:black;stroke-width:91.54px;"/>
            </g>
        </g>
        <g transform="matrix(2.31957,0,0,8.13184,6809.14,715.602)">
            <g transform="matrix(0.037675,0,0,0.0107466,-3518,-6.38182)">
                <circle cx="102436" cy="13938.8" r="553.055" style="fill:rgb(232,232,232);stroke:black;stroke-width:91.54px;"/>
            </g>
        </g>
        <g transform="matrix(2.31957,0,0,8.13184,6809.14,715.602)">
            <g transform="matrix(0.037675,0,0,0.0107466,-3474.65,-27.2986)">
                <circle cx="102436" cy="13938.8" r="553.055" style="fill:rgb(232,232,232);stroke:black;stroke-width:91.54px;"/>
            </g>
        </g>
        <g transform="matrix(2.31957,0,0,8.13184,6809.14,715.602)">
            <g transform="matrix(0.037675,0,0,0.0107466,-3557.97,-27.2986)">
                <circle cx="102436" cy="13938.8" r="553.055" style="stroke:black;stroke-width:91.54px;"/>
            </g>
        </g>
    </g>
</svg>
