<svg xmlns="http://www.w3.org/2000/svg" width="48" height="48" viewBox="0 0 48 48"><title>flick-right</title><g stroke-linecap="square" stroke-linejoin="miter" stroke-width="1" transform="translate(0.5 0.5)" fill="none" stroke="#000000" stroke-miterlimit="10"><path d="M3.73442,11.49777 C9.68863,7.8491,16.69221,5.74572,24.18706,5.74572c7.04558,0,13.83368,1.90826,19.54736,5.16217" stroke-linecap="butt" stroke="#000000"></path> <polyline points=" 41.25349,3 43.73442,10.9079 35.69646,13.38399 " stroke="#000000"></polyline> <line x1="15.08511" y1="29.33587" x2="12.0064" y2="34.48578" stroke-linecap="butt"></line> <path d="M27.62087,45.99999l3.36769-3.78566 c1.4588-1.63986,1.32375-4.14892-0.30266-5.62271l-8.39841-7.61032l5.6443-9.4415c0.85016-1.42211,0.38651-3.26414-1.0356-4.1143 l-0.00001,0c-1.42211-0.85016-3.26414-0.38651-4.1143,1.0356l-7.69677,12.87477l-3.43327-2.05247 c-0.94807-0.56677-2.1761-0.25767-2.74287,0.6904l-4.10494,6.86655c-1.79591,3.00411,1.18081,7.76914-0.83959,11.14877" stroke-linecap="butt"></path></g></svg>
