<?xml version="1.0" encoding="UTF-8" standalone="no"?>
<!DOCTYPE svg PUBLIC "-//W3C//DTD SVG 1.1//EN" "http://www.w3.org/Graphics/SVG/1.1/DTD/svg11.dtd">
<svg width="100%" height="100%" viewBox="0 0 685 445" version="1.1" xmlns="http://www.w3.org/2000/svg" xmlns:xlink="http://www.w3.org/1999/xlink" xml:space="preserve" xmlns:serif="http://www.serif.com/" style="fill-rule:evenodd;clip-rule:evenodd;stroke-linejoin:bevel;stroke-miterlimit:1.5;">
    <g transform="matrix(1,0,0,1,-7453.63,-2104.87)">
        <g transform="matrix(2.31957,0,0,8.13184,6809.14,715.602)">
            <g transform="matrix(1,0,0,1,-0.900911,0.0237731)">
                <g transform="matrix(0.150726,0,0,0.042994,-15055.2,-401.086)">
                    <circle cx="102436" cy="13938.8" r="553.055" style="fill:rgb(161,161,161);stroke:black;stroke-width:22.88px;"></circle>
                </g>
                <g transform="matrix(0.150726,0,0,0.042994,-14888.5,-401.086)">
                    <path d="M102169,14423C101999,14328.7 101883,14147.1 101883,13938.8C101883,13728.3 102001,13545.1 102174,13451.7" style="fill:none;stroke:black;stroke-width:22.88px;"></path>
                </g>
                <g transform="matrix(0.150726,0,0,0.042994,-15138.5,-401.086)">
                    <path d="M102698,13451.7C102871,13545.1 102989,13728.3 102989,13938.8C102989,14147.9 102873,14330.2 102701,14424.1" style="fill:none;stroke:black;stroke-width:22.88px;"></path>
                </g>
                <g transform="matrix(0.0753499,0,0,0.0214932,-7375.58,-101.388)">
                    <circle cx="102436" cy="13938.8" r="553.055" style="fill:none;stroke:black;stroke-width:45.77px;"></circle>
                </g>
                <g transform="matrix(0.0753499,0,0,0.0214932,-7208.92,-101.388)">
                    <circle cx="102436" cy="13938.8" r="553.055" style="fill:none;stroke:black;stroke-width:45.77px;"></circle>
                </g>
                <g transform="matrix(0.0753499,0,0,0.0214932,-7292.26,-101.388)">
                    <circle cx="102436" cy="13938.8" r="553.055" style="fill:none;stroke:black;stroke-width:45.77px;"></circle>
                </g>
                <g transform="matrix(0.037675,0,0,0.0107466,-3537.14,48.4022)">
                    <circle cx="102436" cy="13938.8" r="553.055" style="fill:none;stroke:black;stroke-width:91.54px;"></circle>
                </g>
                <g transform="matrix(0.037675,0,0,0.0107466,-3370.47,48.4022)">
                    <circle cx="102436" cy="13938.8" r="553.055" style="fill:none;stroke:black;stroke-width:91.54px;"></circle>
                </g>
                <g transform="matrix(0.037675,0,0,0.0107466,-3453.82,48.4022)">
                    <circle cx="102436" cy="13938.8" r="553.055" style="fill:none;stroke:black;stroke-width:91.54px;"></circle>
                </g>
                <g transform="matrix(0.037675,0,0,0.0107466,-3495.46,48.4022)">
                    <circle cx="102436" cy="13938.8" r="553.055" style="fill:none;stroke:black;stroke-width:91.54px;"></circle>
                </g>
                <g transform="matrix(0.037675,0,0,0.0107466,-3328.8,48.4022)">
                    <circle cx="102436" cy="13938.8" r="553.055" style="fill:none;stroke:black;stroke-width:91.54px;"></circle>
                </g>
                <g transform="matrix(0.037675,0,0,0.0107466,-3412.15,48.4022)">
                    <circle cx="102436" cy="13938.8" r="553.055" style="fill:none;stroke:black;stroke-width:91.54px;"></circle>
                </g>
                <g transform="matrix(0.150726,0,0,0.042994,-14971.8,-401.086)">
                    <circle cx="102436" cy="13938.8" r="553.055" style="fill:none;stroke:black;stroke-width:22.88px;"></circle>
                </g>
                <g transform="matrix(0.037675,0,0,0.0107466,-3391.31,48.3044)">
                    <circle cx="102436" cy="13938.8" r="553.055" style="fill:rgb(232,232,232);stroke:black;stroke-width:91.54px;"></circle>
                </g>
                <g transform="matrix(0.037675,0,0,0.0107466,-3307.89,48.3044)">
                    <circle cx="102436" cy="13938.8" r="553.055" style="fill:rgb(232,232,232);stroke:black;stroke-width:91.54px;"></circle>
                </g>
                <g transform="matrix(0.037675,0,0,0.0107466,-3349.64,27.4603)">
                    <circle cx="102436" cy="13938.8" r="553.055" style="fill:rgb(232,232,232);stroke:black;stroke-width:91.54px;"></circle>
                </g>
                <g transform="matrix(0.037675,0,0,0.0107466,-3430.6,27.4603)">
                    <circle cx="102436" cy="13938.8" r="553.055" style="fill:rgb(232,232,232);stroke:black;stroke-width:91.54px;"></circle>
                </g>
                <g transform="matrix(0.037675,0,0,0.0107466,-3518,27.4603)">
                    <circle cx="102436" cy="13938.8" r="553.055" style="fill:rgb(232,232,232);stroke:black;stroke-width:91.54px;"></circle>
                </g>
                <g transform="matrix(0.037675,0,0,0.0107466,-3349.64,69.2212)">
                    <circle cx="102436" cy="13938.8" r="553.055" style="fill:rgb(232,232,232);stroke:black;stroke-width:91.54px;"></circle>
                </g>
                <g transform="matrix(0.037675,0,0,0.0107466,-3430.6,69.2212)">
                    <circle cx="102436" cy="13938.8" r="553.055" style="fill:rgb(232,232,232);stroke:black;stroke-width:91.54px;"></circle>
                </g>
                <g transform="matrix(0.037675,0,0,0.0107466,-3518,69.2212)">
                    <circle cx="102436" cy="13938.8" r="553.055" style="fill:rgb(232,232,232);stroke:black;stroke-width:91.54px;"></circle>
                </g>
                <g transform="matrix(0.037675,0,0,0.0107466,-3474.65,48.3044)">
                    <circle cx="102436" cy="13938.8" r="553.055" style="fill:rgb(232,232,232);stroke:black;stroke-width:91.54px;"></circle>
                </g>
                <g transform="matrix(0.037675,0,0,0.0107466,-3557.97,48.3044)">
                    <circle cx="102436" cy="13938.8" r="553.055" style="stroke:black;stroke-width:91.54px;"></circle>
                </g>
            </g>
        </g>
    </g>
</svg>
