<?xml version="1.0" encoding="UTF-8" standalone="no"?>
<!DOCTYPE svg PUBLIC "-//W3C//DTD SVG 1.1//EN" "http://www.w3.org/Graphics/SVG/1.1/DTD/svg11.dtd">
<svg width="100%" height="100%" viewBox="0 0 541 491" version="1.1" xmlns="http://www.w3.org/2000/svg" xmlns:xlink="http://www.w3.org/1999/xlink" xml:space="preserve" xmlns:serif="http://www.serif.com/" style="fill-rule:evenodd;clip-rule:evenodd;stroke-linejoin:round;stroke-miterlimit:1.5;">
    <g transform="matrix(1,0,0,1,-3830.62,-769.183)">
        <g transform="matrix(2.31957,0,0,8.13184,3112.84,715.602)">
            <g transform="matrix(0.148883,0,0,0.0424682,-14825,-555.344)">
                <circle cx="102436" cy="13938.8" r="553.055" style="fill:none;stroke:black;stroke-width:23.17px;"></circle>
            </g>
        </g>
        <g transform="matrix(2.31957,0,0,8.13184,3112.84,715.602)">
            <g transform="matrix(0.148883,0,0,0.0424682,-14741.9,-555.344)">
                <path d="M102169,14422.7C101998,14328.4 101883,14146.9 101883,13938.8C101883,13735.5 101993,13557.8 102157,13461.6" style="fill:none;stroke:black;stroke-width:23.17px;"></path>
            </g>
        </g>
        <g transform="matrix(2.31957,0,0,8.13184,3112.84,715.602)">
            <g transform="matrix(-0.148883,0,0,0.0424682,15595.5,-555.344)">
                <path d="M102169,14422.7C101998,14328.4 101883,14146.9 101883,13938.8C101883,13735.5 101993,13557.8 102157,13461.6" style="fill:none;stroke:black;stroke-width:23.17px;"></path>
            </g>
        </g>
        <g transform="matrix(2.31957,0,0,8.13184,3112.84,715.602)">
            <g transform="matrix(2.81385,0,0,0.802637,315.562,-26.9941)">
                <circle cx="54" cy="54" r="6" style="fill:white;stroke:black;stroke-width:1.23px;stroke-linecap:square;stroke-linejoin:miter;stroke-miterlimit:10;"></circle>
            </g>
        </g>
        <g transform="matrix(2.31957,0,0,8.13184,3112.84,715.602)">
            <g transform="matrix(2.81385,0,0,0.802637,232.397,-26.9941)">
                <circle cx="54" cy="54" r="6" style="stroke:black;stroke-width:1.23px;stroke-linecap:square;stroke-linejoin:miter;stroke-miterlimit:10;"></circle>
            </g>
        </g>
        <g transform="matrix(2.31957,0,0,8.13184,3112.84,715.602)">
            <g transform="matrix(2.81385,0,0,0.802637,315.521,13.8223)">
                <circle cx="54" cy="54" r="6" style="fill:rgb(255,104,116);stroke:black;stroke-width:1.23px;stroke-linecap:square;stroke-linejoin:miter;stroke-miterlimit:10;"></circle>
            </g>
        </g>
        <g transform="matrix(2.31957,0,0,8.13184,3112.84,715.602)">
            <g transform="matrix(2.81385,0,0,0.802637,232.356,13.8223)">
                <circle cx="54" cy="54" r="6" style="fill:white;stroke:black;stroke-width:1.23px;stroke-linecap:square;stroke-linejoin:miter;stroke-miterlimit:10;"></circle>
            </g>
        </g>
        <g transform="matrix(2.31957,0,0,8.13184,3112.84,715.602)">
            <g transform="matrix(2.81385,0,0,0.802637,356.393,-6.73132)">
                <circle cx="54" cy="54" r="6" style="fill:rgb(255,104,116);stroke:black;stroke-width:1.23px;stroke-linecap:square;stroke-linejoin:miter;stroke-miterlimit:10;"></circle>
            </g>
        </g>
        <g transform="matrix(2.31957,0,0,8.13184,3112.84,715.602)">
            <g transform="matrix(2.81385,0,0,0.802637,274.861,-6.58592)">
                <circle cx="54" cy="54" r="6" style="stroke:black;stroke-width:1.23px;stroke-linecap:square;stroke-linejoin:miter;stroke-miterlimit:10;"></circle>
            </g>
        </g>
        <g transform="matrix(2.31957,0,0,8.13184,3112.84,715.602)">
            <g transform="matrix(2.81385,0,0,0.802637,191.712,-6.73132)">
                <circle cx="54" cy="54" r="6" style="fill:rgb(161,161,161);stroke:black;stroke-width:1.23px;stroke-linecap:square;stroke-linejoin:miter;stroke-miterlimit:10;"></circle>
            </g>
        </g>
        <g transform="matrix(2.31957,0,0,8.13184,3112.84,715.602)">
            <g transform="matrix(0.10558,-1.89616e-33,-7.74421e-33,0.0301162,-919.788,-37.527)">
                <text x="13099.4px" y="1840.22px" style="font-family:'Arial-BoldMT', 'Arial', sans-serif;font-weight:700;font-size:145.21px;">3</text>
            </g>
        </g>
        <g transform="matrix(2.31957,0,0,8.13184,3112.84,715.602)">
            <g transform="matrix(0.10558,-1.89616e-33,-7.74421e-33,0.0301162,-1002.95,-37.527)">
                <text x="13099.4px" y="1840.22px" style="font-family:'Arial-BoldMT', 'Arial', sans-serif;font-weight:700;font-size:145.21px;fill:white;">5</text>
            </g>
        </g>
        <g transform="matrix(2.31957,0,0,8.13184,3112.84,715.602)">
            <g transform="matrix(0.10558,-1.89616e-33,-7.74421e-33,0.0301162,-919.829,3.28933)">
                <text x="13099.4px" y="1840.22px" style="font-family:'Arial-BoldMT', 'Arial', sans-serif;font-weight:700;font-size:145.21px;">2</text>
            </g>
        </g>
        <g transform="matrix(2.31957,0,0,8.13184,3112.84,715.602)">
            <g transform="matrix(0.10558,-1.89616e-33,-7.74421e-33,0.0301162,-1002.99,3.28933)">
                <text x="13099.4px" y="1840.22px" style="font-family:'Arial-BoldMT', 'Arial', sans-serif;font-weight:700;font-size:145.21px;">6</text>
            </g>
        </g>
        <g transform="matrix(2.31957,0,0,8.13184,3112.84,715.602)">
            <g transform="matrix(0.10558,-1.89616e-33,-7.74421e-33,0.0301162,-878.957,-17.2642)">
                <text x="13099.4px" y="1840.22px" style="font-family:'Arial-BoldMT', 'Arial', sans-serif;font-weight:700;font-size:145.21px;">4</text>
            </g>
        </g>
        <g transform="matrix(2.31957,0,0,8.13184,3112.84,715.602)">
            <g transform="matrix(0.10558,-1.89616e-33,-7.74421e-33,0.0301162,-960.488,-17.1188)">
                <text x="13099.4px" y="1840.22px" style="font-family:'Arial-BoldMT', 'Arial', sans-serif;font-weight:700;font-size:145.21px;fill:rgb(232,232,232);">1</text>
            </g>
        </g>
        <g transform="matrix(2.31957,0,0,8.13184,3112.84,715.602)">
            <g transform="matrix(0.10558,-1.89616e-33,-7.74421e-33,0.0301162,-1043.64,-17.2642)">
                <text x="13099.4px" y="1840.22px" style="font-family:'Arial-BoldMT', 'Arial', sans-serif;font-weight:700;font-size:145.21px;">0</text>
            </g>
        </g>
    </g>
</svg>
