<?xml version="1.0" encoding="UTF-8" standalone="no"?>
<!DOCTYPE svg PUBLIC "-//W3C//DTD SVG 1.1//EN" "http://www.w3.org/Graphics/SVG/1.1/DTD/svg11.dtd">
<svg width="100%" height="100%" viewBox="0 0 680 437" version="1.1" xmlns="http://www.w3.org/2000/svg" xmlns:xlink="http://www.w3.org/1999/xlink" xml:space="preserve" xmlns:serif="http://www.serif.com/" style="fill-rule:evenodd;clip-rule:evenodd;stroke-linejoin:round;stroke-miterlimit:2;">
    <g transform="matrix(1,0,0,1,-2045.09,-1091.33)">
        <g transform="matrix(2.31957,0,0,8.13184,1421.48,715.602)">
            <g transform="matrix(0.0874589,0,0,0.0249473,-1963.43,-18.2269)">
                <path d="M26229,2859.09L26212,2859.03C26212,2859.03 25827.1,3514.49 25752,3652.41C25743.9,3667.32 25739.3,3676.73 25738.6,3679.18C25737.8,3681.93 25738.2,3683.87 25738.5,3684.89C25738.8,3685.91 25743.9,3695.73 25753.3,3712.35C25831.3,3850.25 26211.9,4505.56 26211.9,4505.56L26229,4505.53L26701.5,3687.24L26701.5,3677.38L26229,2859.09ZM26220.5,2864.02L26692.9,3682.31L26220.5,4500.6C26220.5,4500.6 25750.6,3691.68 25748,3682.31C25745.5,3672.95 26220.5,2864.02 26220.5,2864.02Z" style="fill:white;"></path>
            </g>
            <g transform="matrix(0.0874589,0,0,0.0249473,-1880.79,-18.2269)">
                <path d="M26229,2859.09L26212,2859.03C26212,2859.03 25827.1,3514.49 25752,3652.41C25743.9,3667.32 25739.3,3676.73 25738.6,3679.18C25737.8,3681.93 25738.2,3683.87 25738.5,3684.89C25738.8,3685.91 25743.9,3695.73 25753.3,3712.35C25831.3,3850.25 26211.9,4505.56 26211.9,4505.56L26229,4505.53L26701.5,3687.24L26701.5,3677.38L26229,2859.09ZM26220.5,2864.02L26692.9,3682.31L26220.5,4500.6C26220.5,4500.6 25750.6,3691.68 25748,3682.31C25745.5,3672.95 26220.5,2864.02 26220.5,2864.02Z" style="fill:white;"></path>
            </g>
            <g transform="matrix(0.0874589,0,0,0.0249473,-1798.1,-18.2545)">
                <path d="M26229,2859.09L26212,2859.03C26212,2859.03 25827.1,3514.49 25752,3652.41C25743.9,3667.32 25739.3,3676.73 25738.6,3679.18C25737.8,3681.93 25738.2,3683.87 25738.5,3684.89C25738.8,3685.91 25743.9,3695.73 25753.3,3712.35C25831.3,3850.25 26211.9,4505.56 26211.9,4505.56L26229,4505.53L26701.5,3687.24L26701.5,3677.38L26229,2859.09ZM26220.5,2864.02L26692.9,3682.31L26220.5,4500.6C26220.5,4500.6 25750.6,3691.68 25748,3682.31C25745.5,3672.95 26220.5,2864.02 26220.5,2864.02Z" style="fill:white;"></path>
            </g>
            <g transform="matrix(0.0432188,0,0,0.012328,-3891.31,-98.3674)">
                <circle cx="102436" cy="13938.8" r="553.055" style="fill:rgb(51,51,51);"></circle>
            </g>
            <g transform="matrix(0.0432188,0,0,0.012328,-3931.13,-118.814)">
                <circle cx="102436" cy="13938.8" r="553.055" style="fill:rgb(51,51,51);"></circle>
            </g>
            <g transform="matrix(0.0432188,0,0,0.012328,-3931.13,-78.8218)">
                <circle cx="102436" cy="13938.8" r="553.055" style="fill:rgb(51,51,51);"></circle>
            </g>
            <g transform="matrix(0.0432188,0,0,0.012328,-3973.43,-98.3674)">
                <circle cx="102436" cy="13938.8" r="553.055" style="fill:rgb(51,51,51);"></circle>
            </g>
            <g transform="matrix(0.0432188,0,0,0.012328,-4056.07,-98.3674)">
                <circle cx="102436" cy="13938.8" r="553.055" style="fill:rgb(51,51,51);"></circle>
            </g>
            <g transform="matrix(0.0432188,0,0,0.012328,-4013.25,-118.814)">
                <circle cx="102436" cy="13938.8" r="553.055" style="fill:rgb(51,51,51);"></circle>
            </g>
            <g transform="matrix(0.0432188,0,0,0.012328,-4014.75,-78.8218)">
                <circle cx="102436" cy="13938.8" r="553.055" style="fill:rgb(51,51,51);"></circle>
            </g>
            <g transform="matrix(0.0432188,0,0,0.012328,-4097.55,-118.814)">
                <circle cx="102436" cy="13938.8" r="553.055" style="fill:rgb(51,51,51);"></circle>
            </g>
            <g transform="matrix(0.0432188,0,0,0.012328,-4134.42,-98.4904)">
                <circle cx="102436" cy="13938.8" r="553.055" style="fill:rgb(51,51,51);"></circle>
            </g>
            <g transform="matrix(0.0432188,0,0,0.012328,-4097.55,-78.8218)">
                <circle cx="102436" cy="13938.8" r="553.055" style="fill:rgb(51,51,51);"></circle>
            </g>
            <g transform="matrix(0.128838,-2.31387e-33,-9.45021e-33,0.0367505,-1319.76,5.66719)">
                <text x="13099.4px" y="1840.22px" style="font-family:'Arial-BoldMT', 'Arial', sans-serif;font-weight:700;font-size:107.152px;fill:white;">7</text>
            </g>
            <g transform="matrix(0.128838,-2.31387e-33,-9.45021e-33,0.0367505,-1237.2,5.71718)">
                <text x="13099.4px" y="1840.22px" style="font-family:'Arial-BoldMT', 'Arial', sans-serif;font-weight:700;font-size:107.152px;fill:white;">4</text>
            </g>
            <g transform="matrix(0.128838,-2.31387e-33,-9.45021e-33,0.0367505,-1404.18,5.55118)">
                <text x="13102px" y="1840.22px" style="font-family:'Montserrat-Bold', 'Montserrat';font-weight:700;font-size:101.824px;fill:rgb(232,232,232);">0</text>
            </g>
            <g transform="matrix(0.128838,-2.31387e-33,-9.45021e-33,0.0367505,-1361.83,-15.6992)">
                <text x="13099.4px" y="1840.22px" style="font-family:'Arial-BoldMT', 'Arial', sans-serif;font-weight:700;font-size:107.152px;fill:white;">9</text>
            </g>
            <g transform="matrix(0.128838,-2.31387e-33,-9.45021e-33,0.0367505,-1277.68,-15.6982)">
                <text x="13099.4px" y="1840.22px" style="font-family:'Arial-BoldMT', 'Arial', sans-serif;font-weight:700;font-size:107.152px;fill:white;">6</text>
            </g>
            <g transform="matrix(0.128838,-2.31387e-33,-9.45021e-33,0.0367505,-1198.06,-15.6982)">
                <text x="13099.4px" y="1840.22px" style="font-family:'Arial-BoldMT', 'Arial', sans-serif;font-weight:700;font-size:107.152px;fill:white;">3</text>
            </g>
            <g transform="matrix(0.128838,-2.31387e-33,-9.45021e-33,0.0367505,-1154.45,5.71718)">
                <text x="13099.4px" y="1840.22px" style="font-family:'Arial-BoldMT', 'Arial', sans-serif;font-weight:700;font-size:107.152px;fill:white;">1</text>
            </g>
            <g transform="matrix(0.128838,-2.31387e-33,-9.45021e-33,0.0367505,-1195.82,25.1757)">
                <text x="13099.4px" y="1840.22px" style="font-family:'Arial-BoldMT', 'Arial', sans-serif;font-weight:700;font-size:107.152px;fill:white;">2</text>
            </g>
            <g transform="matrix(0.128838,-2.31387e-33,-9.45021e-33,0.0367505,-1361.9,25.1757)">
                <text x="13099.4px" y="1840.22px" style="font-family:'Arial-BoldMT', 'Arial', sans-serif;font-weight:700;font-size:107.152px;fill:white;">8</text>
            </g>
            <g transform="matrix(0.128838,-2.31387e-33,-9.45021e-33,0.0367505,-1278.52,25.1257)">
                <text x="13099.4px" y="1840.22px" style="font-family:'Arial-BoldMT', 'Arial', sans-serif;font-weight:700;font-size:107.152px;fill:white;">5</text>
            </g>
            <g transform="matrix(0.386419,0,0,0.110224,-425.508,-167.803)">
                <text x="2104.54px" y="2396.87px" style="font-family:'Montserrat-Bold', 'Montserrat';font-weight:700;font-size:13.388px;fill:white;">Ar<tspan x="2120.45px " y="2396.87px ">q</tspan>uit<tspan x="2148.51px 2156.95px 2164.97px " y="2396.87px 2396.87px 2396.87px ">ect</tspan>ura lógica</text>
            </g>
            <g transform="matrix(0.386419,0,0,0.110224,-329.397,-167.803)">
                <text x="2104.55px" y="2396.87px" style="font-family:'Montserrat-Bold', 'Montserrat';font-weight:700;font-size:13.388px;fill:white;">Int<tspan x="2123.79px " y="2396.87px ">e</tspan>rf<tspan x="2143.06px " y="2396.87px ">a</tspan>ce</text>
            </g>
            <g transform="matrix(0.386419,0,0,0.110224,-506.74,-168.108)">
                <text x="2104.54px" y="2396.87px" style="font-family:'Montserrat-Bold', 'Montserrat';font-weight:700;font-size:13.388px;fill:white;">Red - Despliegue</text>
            </g>
            <g transform="matrix(0.386419,0,0,0.110224,-302.34,-187.713)">
                <text x="2104.54px" y="2396.87px" style="font-family:'Montserrat-Bold', 'Montserrat';font-weight:700;font-size:13.388px;fill:white;">Viv<tspan x="2126.3px " y="2396.87px ">e</tspan>ncia Hardw<tspan x="2214.36px 2222.62px 2228.27px " y="2396.87px 2396.87px 2396.87px ">are</tspan></text>
            </g>
            <g transform="matrix(0.386419,0,0,0.110224,-344.459,-208.854)">
                <text x="2116.74px" y="2396.87px" style="font-family:'Montserrat-Bold', 'Montserrat';font-weight:700;font-size:13.388px;fill:white;">C<tspan x="2126.3px " y="2396.87px ">ó</tspan>digo - Dat<tspan x="2204.17px " y="2396.87px ">o</tspan>s</text>
            </g>
            <g transform="matrix(0.386419,0,0,0.110224,-427.128,-208.854)">
                <text x="2104.54px" y="2396.87px" style="font-family:'Montserrat-Bold', 'Montserrat';font-weight:700;font-size:13.388px;fill:white;">C<tspan x="2114.1px " y="2396.87px ">o</tspan>ntr<tspan x="2143.59px " y="2396.87px ">o</tspan>l de v<tspan x="2189.49px " y="2396.87px ">e</tspan>rsiones</text>
            </g>
            <g transform="matrix(0.386419,0,0,0.110224,-504.005,-208.854)">
                <text x="2123.5px" y="2396.87px" style="font-family:'Montserrat-Bold', 'Montserrat';font-weight:700;font-size:13.388px;fill:white;">P<tspan x="2133.17px 2138.82px " y="2396.87px 2396.87px ">ro</tspan>pósit<tspan x="2182.33px " y="2396.87px ">o</tspan></text>
            </g>
            <g transform="matrix(0.386419,0,0,0.110224,-540.258,-187.713)">
                <text x="2115.26px" y="2396.87px" style="font-family:'Montserrat-Bold', 'Montserrat';font-weight:700;font-size:13.388px;fill:rgb(232,232,232);">La Nube</text>
            </g>
            <g transform="matrix(0.386419,0,0,0.110224,-463.585,-187.713)">
                <text x="2104.54px" y="2396.87px" style="font-family:'Montserrat-Bold', 'Montserrat';font-weight:700;font-size:13.388px;fill:white;">Ser<tspan x="2127.5px " y="2396.87px ">v</tspan>idor C<tspan x="2176.69px " y="2396.87px ">e</tspan>ntral</text>
            </g>
            <g transform="matrix(0.386419,0,0,0.110224,-372.907,-187.713)">
                <text x="2104.54px" y="2396.87px" style="font-family:'Montserrat-Bold', 'Montserrat';font-weight:700;font-size:13.388px;fill:white;">P<tspan x="2114.21px 2119.86px " y="2396.87px 2396.87px ">ro</tspan>grama</text>
            </g>
        </g>
    </g>
</svg>
