<!DOCTYPE svg PUBLIC "-//W3C//DTD SVG 1.1//EN" "http://www.w3.org/Graphics/SVG/1.1/DTD/svg11.dtd">
<svg xmlns="http://www.w3.org/2000/svg" xml:space="preserve" style="fill-rule:evenodd;clip-rule:evenodd;stroke-linecap:square;stroke-miterlimit:10" viewBox="0 0 360 360">
  <path d="M20 20H2V2h18v18Z" style="fill:#9f9fff;fill-rule:nonzero;stroke:#000;stroke-width:.75px" transform="translate(9.465 9.465) scale(5.31664)"/>
  <path d="M8 8h6v6H8z" style="fill:#2bc4a9;stroke:#000;stroke-width:.75px" transform="translate(9.465 9.465) scale(5.31664)"/>
  <path d="M20 62H2V44h18v18Z" style="fill:#2bc4a9;fill-rule:nonzero;stroke:#000;stroke-width:.75px" transform="translate(9.465 9.465) scale(5.31664)"/>
  <path d="M8 50h6v6H8z" style="fill:#ffff9f;stroke:#000;stroke-width:.75px" transform="translate(9.465 9.465) scale(5.31664)"/>
  <path d="M62 20H44V2h18v18Z" style="fill:#ffff9f;fill-rule:nonzero;stroke:#000;stroke-width:.75px" transform="translate(9.465 9.465) scale(5.31664)"/>
  <path d="M50 8h6v6h-6z" style="fill:#ff6874;stroke:#000;stroke-width:.75px" transform="translate(9.465 9.465) scale(5.31664)"/>
  <path d="M62 61H40v-3M34 61h-4v-9h-4v-7M26 59h4M38 2v6h-6V2h-6v12h6v11H21M26 19h6M2 26h5v4h10v9h8M12 36h5M13 26v4M23 34v-3h8v11h5v11h12M42 49v4M42 37v6h6v-6h14" style="fill:none;fill-rule:nonzero;stroke:#000;stroke-width:.75px" transform="translate(9.465 9.465) scale(5.31664)"/>
  <path d="M62 34v15h-5v6h5M38 23v8h15M44 26h9M47 26v5M49 26v5M55 42v-5M2 38v-2h4M62 28v-3h-3M48 56v-7M26 4h6M42 41h6" style="fill:none;fill-rule:nonzero;stroke:#000;stroke-width:.75px" transform="translate(9.465 9.465) scale(5.31664)"/>
</svg>
