<svg id="mapabasediez" xmlns="http://www.w3.org/2000/svg" viewBox="0 0 101 66">
  <g id="adicionales" fill="none" fill-rule="evenodd">
    <circle id="grande2" fill="#A1A1A1" cx="35.25" cy="31.919" r="28.228" vector-effect="non-scaling-stroke" />
    <circle id="grande1" cx="63.491" cy="31.919" r="28.228" vector-effect="non-scaling-stroke" />
    <g transform="translate(7.05 7.057)">
      <path d="M71.021 49.575c-8.677-4.813-14.597-14.082-14.597-24.714 0-10.743 6.023-20.094 14.852-24.861M13.365 0c8.83 4.767 14.853 14.118 14.853 24.861 0 10.673-5.921 19.977-14.7 24.77" id="Path" vector-effect="non-scaling-stroke" />
      <circle cx="14.111" cy="24.864" r="14.111" vector-effect="non-scaling-stroke" />
      <circle cx="70.546" cy="24.864" r="14.111" vector-effect="non-scaling-stroke" />
      <circle cx="42.325" cy="24.864" r="14.111" vector-effect="non-scaling-stroke" />
      <circle cx="7.059" cy="24.859" r="7.056" vector-effect="non-scaling-stroke" />
      <circle cx="63.497" cy="24.859" r="7.056" vector-effect="non-scaling-stroke" />
      <circle cx="35.273" cy="24.859" r="7.056" vector-effect="non-scaling-stroke" />
      <circle cx="21.173" cy="24.859" r="7.056" vector-effect="non-scaling-stroke" />
      <circle cx="77.608" cy="24.859" r="7.056" vector-effect="non-scaling-stroke" />
      <circle cx="49.384" cy="24.859" r="7.056" vector-effect="non-scaling-stroke" />
    </g>
  </g>
  <g id="botones" stroke="none" fill="none" fill-rule="evenodd">
    
    <circle id="cero" fill="#000" cx="7.056" cy="31.8" r="7.056" vector-effect="non-scaling-stroke" />
    <text x="7.056" y="31.8">0</text>
    <circle id="uno" cx="91.739" cy="31.8" r="7.056" vector-effect="non-scaling-stroke" />
    <text x="91.739" y="31.8">1</text>
    <circle id="dos" cx="77.601" cy="56.631" r="7.056" vector-effect="non-scaling-stroke" />
    <text x="77.601" y="56.631">2</text>
    <circle id="tres" cx="77.601" cy="7.056" r="7.056" vector-effect="non-scaling-stroke" />
    <text x="77.601" y="7.056">3</text>
    <circle id="cuatro" cx="63.491" cy="31.8" r="7.056" vector-effect="non-scaling-stroke" />
    <text x="63.491" y="31.8">4</text>
    <circle id="cinco" cx="50.186" cy="56.631" r="7.056" vector-effect="non-scaling-stroke" />
    <text x="50.186" y="56.631">5</text>
    <circle id="seis" cx="50.186" cy="7.056" r="7.056" vector-effect="non-scaling-stroke" />
    <text x="50.186" y="7.056">6</text>
    <circle id="siete" cx="35.27" cy="31.8" r="7.056" vector-effect="non-scaling-stroke" />
    <text x="35.27" y="31.8">7</text>
    <circle id="ocho" cx="20.59" cy="56.631" r="7.056" vector-effect="non-scaling-stroke" />
    <text x="20.59" y="56.631">8</text>
    <circle id="nueve" cx="20.59" cy="7.056" r="7.056" vector-effect="non-scaling-stroke" />
    <text x="20.59" y="7.056">9</text>
    
    
    

    



    
  </g>
</svg>
