<svg xmlns="http://www.w3.org/2000/svg" style="display: none;">
    <symbol id="icon-check" viewBox="0 0 24 24">
        <polyline points="20 6 9 17 4 12"></polyline>
    </symbol>
    <symbol id="icon-star" viewBox="0 0 24 24">
        <polygon points="12 2 15.09 8.26 22 9.27 17 14.14 18.18 21.02 12 17.77 5.82 21.02 7 14.14 2 9.27 8.91 8.26 12 2"></polygon>
    </symbol>
    <symbol id="icon-heart" viewBox="0 0 24 24">
        <path d="M20.84 4.61a5.5 5.5 0 0 0-7.78 0L12 5.67l-1.06-1.06a5.5 5.5 0 0 0-7.78 7.78l1.06 1.06L12 21.23l7.78-7.78 1.06-1.06a5.5 5.5 0 0 0 0-7.78z"></path>
    </symbol>
    <symbol id="icon-search" viewBox="0 0 24 24">
        <circle cx="11" cy="11" r="8"></circle>
        <line x1="21" y1="21" x2="16.65" y2="16.65"></line>
    </symbol>
    <symbol id="icon-external" viewBox="0 0 24 24">
        <path d="M18 13v6a2 2 0 0 1-2 2H5a2 2 0 0 1-2-2V8a2 2 0 0 1 2-2h6"></path>
        <polyline points="15 3 21 3 21 9"></polyline>
        <line x1="10" y1="14" x2="21" y2="3"></line>
    </symbol>
    <symbol id="icon-mail" viewBox="0 0 24 24">
        <path d="M4 4h16c1.1 0 2 .9 2 2v12c0 1.1-.9 2-2 2H4c-1.1 0-2-.9-2-2V6c0-1.1.9-2 2-2z"></path>
        <polyline points="22,6 12,13 2,6"></polyline>
    </symbol>
    <symbol id="icon-phone" viewBox="0 0 24 24">
        <path d="M22 16.92v3a2 2 0 0 1-2.18 2.04l-4.31-1.11a2 2 0 0 0-1.92.32l-3.64 3.64a20.77 20.77 0 0 1-9.9-9.9l3.64-3.64a2 2 0 0 0 .32-1.92L2.04 2.18A2 2 0 0 1 5.08 0h3a2 2 0 0 1 2 2.18l-.9 5.08a2 2 0 0 0 .7 1.92l2.74 2.74a2 2 0 0 0 1.92.7l5.08-.9a2 2 0 0 1 2.18 2z"></path>
    </symbol>
    <symbol id="icon-location" viewBox="0 0 24 24">
        <path d="M21 10c0 7-9 13-9 13s-9-6-9-13a9 9 0 0 1 18 0z"></path>
        <circle cx="12" cy="12" r="3"></circle>
    </symbol>
    <symbol id="icon-globe" viewBox="0 0 24 24">
        <circle cx="12" cy="12" r="10"></circle>
        <line x1="2" y1="12" x2="22" y2="12"></line>
        <path d="M12 2a15.3 15.3 0 0 1 4 10 15.3 15.3 0 0 1-4 10 15.3 15.3 0 0 1-4-10 15.3 15.3 0 0 1 4-10z"></path>
    </symbol>
    <symbol id="icon-instagram" viewBox="0 0 24 24">
        <rect x="2" y="2" width="20" height="20" rx="5" ry="5"></rect>
        <path d="M16 11.37A4 4 0 1 1 12.63 8 4 4 0 0 1 16 11.37z"></path>
        <line x1="17.5" y1="6.5" x2="17.51" y2="6.5"></line>
    </symbol>
    <symbol id="icon-twitter" viewBox="0 0 24 24">
        <path d="M23 3a10.9 10.9 0 0 1-3.14 1.53 4.48 4.48 0 0 0-7.86 3v1A10.66 10.66 0 0 1 3 4s-4 9 5 13a11.64 11.64 0 0 1-7 2c9 5 20 0 20-11.5a4.5 4.5 0 0 0-.08-.83A7.72 7.72 0 0 0 23 3z"></path>
    </symbol>
    <symbol id="icon-linkedin" viewBox="0 0 24 24">
        <path d="M16 8a6 6 0 0 1 6 6v7h-4v-7a2 2 0 0 0-2-2 2 2 0 0 0-2 2v7h-4v-7a6 6 0 0 1 6-6z"></path>
        <rect x="2" y="9" width="4" height="12"></rect>
        <circle cx="4" cy="4" r="2"></circle>
    </symbol>
    <symbol id="icon-github" viewBox="0 0 24 24">
        <path d="M9 19c-5 1.5-5-2.5-7-3m14 6v-3.87a3.37 3.37 0 0 0-.94-2.61c3.14-.35 6.44-1.54 6.44-7A5.44 5.44 0 0 0 20 4.77 5.07 5.07 0 0 0 19.91 3s-1.5-1-4 0A5.07 5.07 0 0 0 12 3c-2.5 0-4 1-4 1S6.09 3 6 3.08a5.44 5.44 0 0 0-1.95 4.91c0 5.49 3.3 6.69 6.44 7A3.37 3.37 0 0 0 9 18.13V22"></path>
    </symbol>
    <symbol id="icon-youtube" viewBox="0 0 24 24">
        <path d="M22.54 6.42a2.78 2.78 0 0 0-1.94-1.94C18.88 4 12 4 12 4s-6.88 0-8.6.48a2.78 2.78 0 0 0-1.94 1.94C2 8.16 2 12 2 12s0 3.84.46 5.58a2.78 2.78 0 0 0 1.94 1.94c1.72.48 8.6.48 8.6.48s6.88 0 8.6-.48a2.78 2.78 0 0 0 1.94-1.94c.46-1.74.46-5.58.46-5.58s0-3.84-.46-5.58z"></path>
        <polygon points="10 15 15 12 10 9 10 15"></polygon>
    </symbol>
</svg>