<?xml version="1.0" encoding="UTF-8" standalone="no"?>
<!DOCTYPE svg PUBLIC "-//W3C//DTD SVG 1.1//EN" "http://www.w3.org/Graphics/SVG/1.1/DTD/svg11.dtd">
<svg width="100%" height="100%" viewBox="0 0 171 173" version="1.1" xmlns="http://www.w3.org/2000/svg" xmlns:xlink="http://www.w3.org/1999/xlink" xml:space="preserve" xmlns:serif="http://www.serif.com/" style="fill-rule:evenodd;clip-rule:evenodd;stroke-linecap:round;stroke-miterlimit:1;">
    <g>
        <path d="M79.283,104.861c-6.22,8.972 -16.591,14.852 -28.324,14.852c-13.116,0 -24.53,-7.347 -30.345,-18.148" style="fill:none;stroke:#000;stroke-width:4.17px;"/>
        <path d="M21.103,68.102c5.952,-10.318 17.098,-17.269 29.856,-17.269c11.506,-0 21.702,5.655 27.958,14.335" style="fill:none;stroke:#000;stroke-width:4.17px;"/>
        <path d="M150.265,101.413c-5.79,10.883 -17.249,18.3 -30.426,18.3c-12.078,0 -22.711,-6.229 -28.86,-15.648" style="fill:none;stroke:#000;stroke-width:4.17px;"/>
        <path d="M92.065,64.914c6.271,-8.536 16.38,-14.081 27.774,-14.081c12.233,-0 22.985,6.392 29.095,16.015" style="fill:none;stroke:#000;stroke-width:4.17px;"/>
        <path d="M152.215,101.54c-6.314,26.029 -27.441,46.295 -53.936,51.353" style="fill:none;stroke:#000;stroke-width:4.17px;"/>
        <path d="M76.516,153.557c-28.668,-3.664 -51.849,-24.991 -58.268,-52.709" style="fill:none;stroke:#000;stroke-width:4.17px;"/>
        <path d="M18.466,68.793c6.609,-26.849 28.989,-47.522 56.735,-51.614" style="fill:none;stroke:#000;stroke-width:4.17px;"/>
        <path d="M99.067,17.817c25.766,5.234 46.325,24.878 52.882,50.139" style="fill:none;stroke:#000;stroke-width:4.17px;"/>
        <g>
            <path d="M16.52,96.875c5.241,0 9.088,-3.968 9.088,-10.966c0,-6.998 -3.847,-10.966 -9.088,-10.966c-5.21,-0 -9.088,3.968 -9.088,10.966c0,6.998 3.878,10.966 9.088,10.966Zm-0,-4.15c-2.423,0 -4.12,-1.999 -4.12,-6.816c0,-4.816 1.697,-6.815 4.12,-6.815c2.454,-0 4.15,1.999 4.15,6.815c-0,4.817 -1.696,6.816 -4.15,6.816Z"/>
        </g>
        <g>
            <path d="M161.049,88.066l-3.454,0l0,-3.968l-4.634,-0l-0,3.968l-5.696,0l9.27,-12.752l-5.15,-0l-9.997,13.449l0,3.303l11.421,-0l0,4.453l4.786,-0l0,-4.453l3.454,-0l-0,-4Z"/>
        </g>
        <g>
            <path d="M78.989,75.315l0,3.938l4.242,-0l-0,17.267l4.907,-0l-0,-21.205l-9.149,-0Z"/>
        </g>
        <g>
            <path d="M84.635,161.345l4.877,-4.606c2.969,-2.756 3.545,-4.634 3.545,-6.693c-0,-3.849 -3.151,-6.272 -7.877,-6.272c-3.817,-0 -6.786,1.545 -8.422,3.938l3.575,2.302c1.03,-1.423 2.575,-2.12 4.393,-2.12c2.241,-0 3.392,0.97 3.392,2.636c0,1.029 -0.333,2.121 -2.211,3.907l-8.179,7.725l-0,3.181l16.025,0l-0,-3.998l-9.118,-0Z"/>
        </g>
        <g>
            <path d="M87.787,15.101l4.786,-5.452l0,-3.181l-14.844,0l0,3.938l9.028,0l-4.362,4.938l-0,3.241l2.241,-0c2.787,-0 3.968,1 3.968,2.605c0,1.727 -1.514,2.726 -3.968,2.726c-2.211,0 -4.453,-0.696 -6.058,-1.907l-1.909,3.756c2.06,1.454 5.12,2.271 8.088,2.271c6.029,0 8.785,-3.271 8.785,-6.846c0,-3.12 -1.938,-5.483 -5.755,-6.089Z"/>
        </g>
    </g>
</svg>
