<?xml version="1.0" encoding="UTF-8" standalone="no"?>
<!DOCTYPE svg PUBLIC "-//W3C//DTD SVG 1.1//EN" "http://www.w3.org/Graphics/SVG/1.1/DTD/svg11.dtd">
<svg width="100%" height="100%" viewBox="0 0 96 96" version="1.1" xmlns="http://www.w3.org/2000/svg" xmlns:xlink="http://www.w3.org/1999/xlink" xml:space="preserve" xmlns:serif="http://www.serif.com/" style="fill-rule:evenodd;clip-rule:evenodd;stroke-miterlimit:10;">
    <g transform="matrix(1,0,0,1,-8031.35,-2723.89)">
        <g transform="matrix(2.31957,0,0,25.1326,6794.33,2223.67)">
            <g transform="matrix(0.862228,0,0,0.079578,553.991,21.8132)">
                <g transform="matrix(1,0,0,1,-24,-24)">
                    <clipPath id="_clip1">
                        <rect x="0" y="0" width="48" height="48"/>
                    </clipPath>
                    <g clip-path="url(#_clip1)">
                        <g transform="matrix(1,0,0,1,0.5,0.5)">
                            <path d="M23.962,24L43,13.009C39.076,6.206 31.796,2 23.942,2C11.873,2 1.942,11.931 1.942,24C1.942,36.069 11.873,46 23.942,46C31.796,46 39.076,41.794 43,34.991L23.962,24Z" style="fill:none;fill-rule:nonzero;stroke:black;stroke-width:1px;"/>
                            <circle cx="43" cy="24" r="3" style="fill:none;stroke:black;stroke-width:1px;"/>
                            <circle cx="25" cy="13" r="2" style="fill:none;stroke:black;stroke-width:1px;"/>
                        </g>
                    </g>
                </g>
            </g>
        </g>
    </g>
</svg>
