<?xml version="1.0" encoding="UTF-8" standalone="no"?><!DOCTYPE svg PUBLIC "-//W3C//DTD SVG 1.1//EN" "http://www.w3.org/Graphics/SVG/1.1/DTD/svg11.dtd"><svg width="100%" height="100%" viewBox="0 0 119 107" version="1.1" xmlns="http://www.w3.org/2000/svg" xmlns:xlink="http://www.w3.org/1999/xlink" xml:space="preserve" xmlns:serif="http://www.serif.com/" style="fill-rule:evenodd;clip-rule:evenodd;stroke-linecap:round;stroke-linejoin:round;stroke-miterlimit:1.5;"><g transform="matrix(1,0,0,1,-5490.41,-927.755)"><g transform="matrix(2.31957,0,0,26.3905,4833.41,1723.75)"><g transform="matrix(1.13257,0,4.00251e-15,1.13257,-32.4966,3.76078)"><g transform="matrix(0.373356,-0.0189462,0.215557,0.0328157,-2021.18,46.8005)"><path d="M5618.84,1000.96L5690.83,959.012" style="fill:none;stroke:#000;stroke-width:1.77px;"/></g><g transform="matrix(0.366274,0.0199855,-0.227382,0.0321933,-1546.64,-172.735)"><path d="M5618.43,1002.17L5689.38,958.525" style="fill:none;stroke:#000;stroke-width:1.77px;"/></g><g transform="matrix(0.366274,0.0199855,-0.227382,0.0321933,-1542.58,-174.064)"><path d="M5628.88,995.907L5662.92,973.483" style="fill:none;stroke:#000;stroke-width:1.77px;"/></g><g transform="matrix(0.366274,0.0199855,-0.227382,0.0321933,-1542.74,-171.371)"><path d="M5628.74,996.168L5664.48,974.657" style="fill:none;stroke:#000;stroke-width:1.77px;"/></g><g transform="matrix(0.366274,0.0199855,-0.227382,0.0321933,-1548.51,-172.068)"><path d="M5612.82,984.927L5649.8,1004.73" style="fill:none;stroke:#000;stroke-width:1.77px;"/></g><g transform="matrix(0.366274,0.0199855,-0.227382,0.0321933,-1521.63,-173.432)"><path d="M5612.82,984.927L5649.8,1004.73" style="fill:none;stroke:#000;stroke-width:1.77px;"/></g><g transform="matrix(0.366274,0.0199855,-0.227382,0.0321933,-1528.19,-173.099)"><path d="M5586.83,992.062L5587.15,1032.88" style="fill:none;stroke:#000;stroke-width:1.77px;"/></g><g transform="matrix(0.366274,0.0199855,-0.227382,0.0321933,-1501.45,-171.765)"><path d="M5586.83,992.062L5588.74,1033.73" style="fill:none;stroke:#000;stroke-width:1.77px;"/></g><g transform="matrix(0.000579444,0.0378923,-0.431114,5.09297e-05,721.098,-242.462)"><path d="M5618.83,1001.58L5690.52,960.32" style="fill:none;stroke:#000;stroke-width:1.77px;"/></g><g transform="matrix(0.608162,-0.0308616,0.351123,0.0534539,261.718,-27.5313)"><circle cx="32.001" cy="32" r="6" style="fill:#ff6874;stroke:#000;stroke-width:1.08px;stroke-linecap:butt;stroke-miterlimit:2;"/></g><g transform="matrix(0.608162,-0.0308616,0.351123,0.0534539,270.784,-28.8667)"><circle cx="32.001" cy="32" r="6" style="fill:#ffff9f;stroke:#000;stroke-width:1.08px;stroke-linecap:butt;stroke-miterlimit:2;"/></g><g transform="matrix(0.608162,-0.0308616,0.351123,0.0534539,279.544,-30.2712)"><circle cx="32.001" cy="32" r="6" style="fill:#e8e8e8;stroke:#000;stroke-width:1.08px;stroke-linecap:butt;stroke-miterlimit:2;"/></g><g transform="matrix(0.608162,-0.0308616,0.351123,0.0534539,288.586,-28.8947)"><circle cx="32.001" cy="32" r="6" style="fill:#9f9fff;stroke:#000;stroke-width:1.08px;stroke-linecap:butt;stroke-miterlimit:2;"/></g><g transform="matrix(0.608162,-0.0308616,0.351123,0.0534539,279.75,-27.5122)"><circle cx="32.001" cy="32" r="6" style="fill:#2bc4a9;stroke:#000;stroke-width:1.08px;stroke-linecap:butt;stroke-miterlimit:2;"/></g><g transform="matrix(0.608162,-0.0308616,0.351123,0.0534539,261.897,-30.2309)"><circle cx="32.001" cy="32" r="6" style="fill:#333;stroke:#000;stroke-width:1.08px;stroke-linecap:butt;stroke-miterlimit:2;"/></g><g transform="matrix(0.608162,-0.0308616,0.351123,0.0534539,252.676,-28.9077)"><circle cx="32.001" cy="32" r="6" style="fill:#a1a1a1;stroke:#000;stroke-width:1.08px;stroke-linecap:butt;stroke-miterlimit:2;"/></g></g></g></g></svg>