<?xml version="1.0" encoding="UTF-8" standalone="no"?>
<!DOCTYPE svg PUBLIC "-//W3C//DTD SVG 1.1//EN" "http://www.w3.org/Graphics/SVG/1.1/DTD/svg11.dtd">
<svg width="100%" height="100%" viewBox="0 0 144 94" version="1.1" xmlns="http://www.w3.org/2000/svg" xmlns:xlink="http://www.w3.org/1999/xlink" xml:space="preserve" xmlns:serif="http://www.serif.com/" style="fill-rule:evenodd;clip-rule:evenodd;stroke-linejoin:round;stroke-miterlimit:1.5;">
    <g transform="matrix(1,0,0,1,-426.202,-1595.67)">
        <g transform="matrix(10.9043,0,0,10.7723,730.5,-655.304)">
            <g transform="matrix(0.124765,0,0,0.124765,-24.4245,190.365)">
                <g transform="matrix(0.0301609,0,0,0.0305304,-3096.62,-241.824)">
                    <circle cx="102436" cy="13938.8" r="553.055" style="fill:none;stroke:black;stroke-width:60.93px;"/>
                </g>
                <g transform="matrix(0.0603217,0,0,0.0610608,-6136,-667.38)">
                    <circle cx="102436" cy="13938.8" r="553.055" style="fill:none;stroke:black;stroke-width:30.46px;"/>
                </g>
                <g transform="matrix(0.0603217,0,0,0.0610608,-6169.51,-667.38)">
                    <circle cx="102436" cy="13938.8" r="553.055" style="fill:none;stroke:black;stroke-width:30.46px;"/>
                </g>
                <g transform="matrix(0.00753457,0,0,0.00762689,-762.023,77.4221)">
                    <circle cx="102436" cy="13938.8" r="553.055"/>
                </g>
                <g transform="matrix(0.00753457,0,0,0.00762689,-728.83,77.4221)">
                    <circle cx="102436" cy="13938.8" r="553.055"/>
                </g>
                <g transform="matrix(0.00753457,0,0,0.00762689,-745.373,106.974)">
                    <circle cx="102436" cy="13938.8" r="553.055"/>
                </g>
                <g transform="matrix(0.00753457,0,0,0.00762689,-745.373,48.6305)">
                    <circle cx="102436" cy="13938.8" r="553.055"/>
                </g>
                <g transform="matrix(0.00753457,0,0,0.00762689,-795.553,77.1639)">
                    <circle cx="102436" cy="13938.8" r="553.055"/>
                </g>
            </g>
        </g>
    </g>
</svg>
