<!DOCTYPE svg PUBLIC "-//W3C//DTD SVG 1.1//EN" "http://www.w3.org/Graphics/SVG/1.1/DTD/svg11.dtd">
<svg xmlns="http://www.w3.org/2000/svg" xml:space="preserve" style="fill-rule:evenodd;clip-rule:evenodd;stroke-linejoin:round;stroke-miterlimit:1.5" viewBox="0 0 118 118">
  <circle cx="102436" cy="13938.8" r="553.055" style="fill:none;stroke:#000;stroke-width:38.22px" transform="matrix(-.05233 0 0 -.05233 5448.126 788.255)"/>
  <circle cx="102436" cy="13938.8" r="553.055" style="fill:none;stroke:#000;stroke-width:38.22px" transform="matrix(-.05233 0 0 -.05233 5390.219 788.255)"/>
  <circle cx="102436" cy="13938.8" r="553.055" style="fill:#2bc4a9;stroke:#000;stroke-width:76.4px" transform="matrix(-.02618 0 0 -.02618 2783.872 423.76)"/>
  <circle cx="102436" cy="13938.8" r="553.055" style="fill:#ff6874;stroke:#000;stroke-width:76.4px" transform="matrix(-.02618 0 0 -.02618 2754.918 423.76)"/>
  <circle cx="102436" cy="13938.8" r="553.055" style="fill:#9f9fff;stroke:#000;stroke-width:76.4px" transform="matrix(-.02618 0 0 -.02618 2725.961 423.76)"/>
  <circle cx="102436" cy="13938.8" r="553.055" style="fill:#ffff9f;stroke:#000;stroke-width:76.4px" transform="matrix(-.02618 0 0 -.02618 2697.008 423.76)"/>
  <circle cx="102436" cy="13938.8" r="553.055" style="fill:none;stroke:#000;stroke-width:19.11px" transform="matrix(-.10466 0 0 -.10466 10779.494 1517.643)"/>
  <circle cx="102436" cy="13938.8" r="553.055" style="fill:none;stroke:#000;stroke-width:38.22px" transform="matrix(-.05233 0 0 -.05233 5419.223 788.255)"/>
  <circle cx="102436" cy="13938.8" r="553.055" style="fill:none;stroke:#000;stroke-width:38.22px" transform="matrix(-.05233 0 0 -.05233 5448.16 788.255)"/>
</svg>
