<?xml version="1.0" encoding="UTF-8" standalone="no"?>
<!DOCTYPE svg PUBLIC "-//W3C//DTD SVG 1.1//EN" "http://www.w3.org/Graphics/SVG/1.1/DTD/svg11.dtd">
<svg width="100%" height="100%" viewBox="0 0 535 535" version="1.1" xmlns="http://www.w3.org/2000/svg" xmlns:xlink="http://www.w3.org/1999/xlink" xml:space="preserve" xmlns:serif="http://www.serif.com/" style="fill-rule:evenodd;clip-rule:evenodd;stroke-linecap:round;stroke-linejoin:bevel;stroke-miterlimit:1.5;">
    <g transform="matrix(1,0,0,1,-692.746,-161.537)">
        <g transform="matrix(0.940487,0,0,0.940487,-2261.3,-118.033)">
            <g transform="matrix(0.512518,0,0,0.512518,-49075.5,-6562.61)">
                <circle cx="102436" cy="13938.8" r="553.055" style="stroke:white;stroke-width:2.16px;"/>
            </g>
            <g transform="matrix(2.74428,0,0,2.74428,-527.665,-1082.62)">
                <g transform="matrix(0.0622577,0,0,0.0622577,-4937.07,-192.513)">
                    <circle cx="102436" cy="13938.8" r="553.055" style="fill:white;"/>
                </g>
                <g transform="matrix(0.0622577,0,0,0.0622577,-4868.15,-261.377)">
                    <circle cx="102436" cy="13938.8" r="553.055" style="fill:white;"/>
                </g>
                <g transform="matrix(0.0622577,0,0,0.0622577,-5005.98,-261.377)">
                    <circle cx="102436" cy="13938.8" r="553.055" style="fill:white;"/>
                </g>
                <g transform="matrix(0.0622577,0,0,0.0622577,-4937.07,-330.342)">
                    <circle cx="102436" cy="13938.8" r="553.055" style="fill:white;"/>
                </g>
                <g transform="matrix(0.0622577,0,0,0.0622577,-4937.07,-261.427)">
                    <circle cx="102436" cy="13938.8" r="553.055" style="fill:white;"/>
                </g>
            </g>
            <g transform="matrix(2.74428,0,0,2.74428,-527.826,-515.462)">
                <g transform="matrix(0.0207526,0,0,0.0207526,-685.377,133.406)">
                    <circle cx="102436" cy="13938.8" r="553.055"/>
                </g>
                <g transform="matrix(0.0207526,0,0,0.0207526,-662.406,110.451)">
                    <circle cx="102436" cy="13938.8" r="553.055"/>
                </g>
                <g transform="matrix(0.0207526,0,0,0.0207526,-708.349,110.451)">
                    <circle cx="102436" cy="13938.8" r="553.055"/>
                </g>
                <g transform="matrix(0.0207526,0,0,0.0207526,-685.377,87.4626)">
                    <circle cx="102436" cy="13938.8" r="553.055"/>
                </g>
                <g transform="matrix(0.0207526,0,0,0.0207526,-685.377,110.434)">
                    <circle cx="102436" cy="13938.8" r="553.055"/>
                </g>
            </g>
            <g transform="matrix(1.40014,0,0,1.40014,1389.22,-119.166)">
                <g transform="matrix(0.0135188,0,0,0.0135188,69.2769,326.904)">
                    <circle cx="102436" cy="13938.8" r="553.055" style="fill:white;"/>
                </g>
                <g transform="matrix(0.0135188,0,0,0.0135188,84.2412,311.95)">
                    <circle cx="102436" cy="13938.8" r="553.055" style="fill:white;"/>
                </g>
                <g transform="matrix(0.0135188,0,0,0.0135188,54.3126,311.95)">
                    <circle cx="102436" cy="13938.8" r="553.055" style="fill:white;"/>
                </g>
                <g transform="matrix(0.0135188,0,0,0.0135188,69.2769,296.975)">
                    <circle cx="102436" cy="13938.8" r="553.055" style="fill:white;"/>
                </g>
                <g transform="matrix(0.0135188,0,0,0.0135188,69.2769,311.939)">
                    <circle cx="102436" cy="13938.8" r="553.055" style="fill:white;"/>
                </g>
            </g>
            <g transform="matrix(1.40014,0,0,1.40014,1389.22,-119.166)">
                <g transform="matrix(0.00450627,0,0,0.00450627,992.488,442.551)">
                    <circle cx="102436" cy="13938.8" r="553.055"/>
                </g>
                <g transform="matrix(0.00450627,0,0,0.00450627,997.476,437.567)">
                    <circle cx="102436" cy="13938.8" r="553.055"/>
                </g>
                <g transform="matrix(0.00450627,0,0,0.00450627,987.5,437.567)">
                    <circle cx="102436" cy="13938.8" r="553.055"/>
                </g>
                <g transform="matrix(0.00450627,0,0,0.00450627,992.488,432.575)">
                    <circle cx="102436" cy="13938.8" r="553.055"/>
                </g>
                <g transform="matrix(0.00450627,0,0,0.00450627,992.488,437.563)">
                    <circle cx="102436" cy="13938.8" r="553.055"/>
                </g>
            </g>
        </g>
    </g>
</svg>
