<?xml version="1.0" encoding="UTF-8" standalone="no"?>
<!DOCTYPE svg PUBLIC "-//W3C//DTD SVG 1.1//EN" "http://www.w3.org/Graphics/SVG/1.1/DTD/svg11.dtd">
<svg width="100%" height="100%" viewBox="0 0 91 91" version="1.1" xmlns="http://www.w3.org/2000/svg" xmlns:xlink="http://www.w3.org/1999/xlink" xml:space="preserve" xmlns:serif="http://www.serif.com/" style="fill-rule:evenodd;clip-rule:evenodd;stroke-linecap:square;stroke-miterlimit:10;">
    <g transform="matrix(1,0,0,1,-7108.13,-2746.58)">
        <g transform="matrix(2.31957,0,0,25.1326,6794.33,2223.67)">
            <g transform="matrix(0.61299,0,0,0.056575,154.897,22.6164)">
                <g transform="matrix(1,0,0,1,-32,-32)">
                    <clipPath id="_clip1">
                        <rect x="0" y="0" width="64" height="64"/>
                    </clipPath>
                    <g clip-path="url(#_clip1)">
                        <g transform="matrix(1,0,0,1,0.5,0.5)">
                            <path d="M10,14L54,14" style="fill:none;fill-rule:nonzero;stroke:black;stroke-width:1px;"/>
                            <path d="M20,11L20,17" style="fill:none;fill-rule:nonzero;stroke:black;stroke-width:1px;"/>
                            <path d="M28,11L28,17" style="fill:none;fill-rule:nonzero;stroke:black;stroke-width:1px;"/>
                            <path d="M36,11L36,17" style="fill:none;fill-rule:nonzero;stroke:black;stroke-width:1px;"/>
                            <path d="M44,11L44,17" style="fill:none;fill-rule:nonzero;stroke:black;stroke-width:1px;"/>
                            <path d="M24,37C26.761,37 29,34.761 29,32L19,32C19,34.761 21.239,37 24,37Z" style="fill:none;fill-rule:nonzero;stroke:black;stroke-width:1px;"/>
                            <path d="M40,37C42.761,37 45,34.761 45,32L35,32C35,34.761 37.239,37 40,37Z" style="fill:none;fill-rule:nonzero;stroke:black;stroke-width:1px;"/>
                            <path d="M35,53L29,53C26.791,53 25,51.209 25,49L25,49C25,46.791 26.791,45 29,45L35,45C37.209,45 39,46.791 39,49L39,49C39,51.209 37.209,53 35,53Z" style="fill:none;fill-rule:nonzero;stroke:black;stroke-width:1px;"/>
                            <rect x="2" y="26" width="4" height="12" style="fill:none;stroke:black;stroke-width:1px;"/>
                            <rect x="58" y="26" width="4" height="12" style="fill:none;stroke:black;stroke-width:1px;"/>
                            <path d="M6,32L10,32" style="fill:none;fill-rule:nonzero;stroke:black;stroke-width:1px;"/>
                            <path d="M58,32L54,32" style="fill:none;fill-rule:nonzero;stroke:black;stroke-width:1px;"/>
                            <path d="M32,62L32,62C19.85,62 10,52.15 10,40L10,10C10,5.582 13.582,2 18,2L46,2C50.418,2 54,5.582 54,10L54,40C54,52.15 44.15,62 32,62Z" style="fill:none;fill-rule:nonzero;stroke:black;stroke-width:1px;"/>
                        </g>
                    </g>
                </g>
            </g>
        </g>
    </g>
</svg>
