<?xml version="1.0" encoding="UTF-8" standalone="no"?>
<!DOCTYPE svg PUBLIC "-//W3C//DTD SVG 1.1//EN" "http://www.w3.org/Graphics/SVG/1.1/DTD/svg11.dtd">
<svg width="100%" height="100%" viewBox="0 0 659 411" version="1.1" xmlns="http://www.w3.org/2000/svg" xmlns:xlink="http://www.w3.org/1999/xlink" xml:space="preserve" xmlns:serif="http://www.serif.com/" style="fill-rule:evenodd;clip-rule:evenodd;stroke-linecap:round;stroke-miterlimit:10;">
    <g transform="matrix(1,0,0,1,-5610.22,-808.972)">
        <g transform="matrix(2.31957,0,0,8.13184,4935.84,715.602)">
            <g transform="matrix(0.080576,-1.35207e-06,-4.74002e-06,0.0249473,-1765.02,-55.0841)">
                <g transform="matrix(5.3504,0.000289976,0.000289976,4.92933,25513.4,2669.66)">
                    <path d="M547.264,191.518L567.715,205.172L547.245,218.799L547.264,191.518Z" style="fill:none;stroke:rgb(255,104,116);stroke-width:6.71px;"/>
                    <path d="M43.509,204.811C43.509,204.811 439.953,205.084 547.254,205.158" style="fill:none;stroke:rgb(255,104,116);stroke-width:6.71px;stroke-linejoin:bevel;stroke-miterlimit:1.5;"/>
                </g>
            </g>
        </g>
        <g transform="matrix(2.31957,0,0,8.13184,4935.84,715.602)">
            <g transform="matrix(0.0874589,0,0,0.0249473,-1942.25,-55.1189)">
                <path d="M26234.9,2855.69L26206.1,2855.58C26206.1,2855.58 25821.1,3511.2 25746,3649.15C25737.5,3664.85 25732.7,3674.8 25732,3677.38C25730.8,3681.85 25731.5,3685.01 25731.9,3686.67C25732.2,3687.74 25737.5,3698.18 25747.4,3715.71C25825.4,3853.61 26206.1,4508.98 26206.1,4508.98L26234.9,4508.94L26707.3,3690.65L26707.3,3673.98L26234.9,2855.69ZM26220.5,2864.02L26692.9,3682.31L26220.5,4500.6C26220.5,4500.6 25750.6,3691.68 25748,3682.31C25745.5,3672.95 26220.5,2864.02 26220.5,2864.02Z"/>
            </g>
        </g>
        <g transform="matrix(2.31957,0,0,8.13184,4935.84,715.602)">
            <g transform="matrix(0.0874589,0,0,0.0249473,-1859.61,-55.1189)">
                <path d="M26234.9,2855.69L26206.1,2855.58C26206.1,2855.58 25821.1,3511.2 25746,3649.15C25737.5,3664.85 25732.7,3674.8 25732,3677.38C25730.8,3681.85 25731.5,3685.01 25731.9,3686.67C25732.2,3687.74 25737.5,3698.18 25747.4,3715.71C25825.4,3853.61 26206.1,4508.98 26206.1,4508.98L26234.9,4508.94L26707.3,3690.65L26707.3,3673.98L26234.9,2855.69ZM26220.5,2864.02L26692.9,3682.31L26220.5,4500.6C26220.5,4500.6 25750.6,3691.68 25748,3682.31C25745.5,3672.95 26220.5,2864.02 26220.5,2864.02Z"/>
            </g>
        </g>
        <g transform="matrix(2.31957,0,0,8.13184,4935.84,715.602)">
            <g transform="matrix(0.0874589,0,0,0.0249473,-1776.91,-55.1465)">
                <path d="M26234.9,2855.69L26206.1,2855.58C26206.1,2855.58 25821.1,3511.2 25746,3649.15C25737.5,3664.85 25732.7,3674.8 25732,3677.38C25730.8,3681.85 25731.5,3685.01 25731.9,3686.67C25732.2,3687.74 25737.5,3698.18 25747.4,3715.71C25825.4,3853.61 26206.1,4508.98 26206.1,4508.98L26234.9,4508.94L26707.3,3690.65L26707.3,3673.98L26234.9,2855.69ZM26220.5,2864.02L26692.9,3682.31L26220.5,4500.6C26220.5,4500.6 25750.6,3691.68 25748,3682.31C25745.5,3672.95 26220.5,2864.02 26220.5,2864.02Z"/>
            </g>
        </g>
        <g transform="matrix(2.31957,0,0,8.13184,4935.84,715.602)">
            <g transform="matrix(0.027616,0,0,0.00787735,-2436.6,-73.0558)">
                <circle cx="102436" cy="13938.8" r="553.055" style="fill:white;stroke:black;stroke-width:124.89px;stroke-linecap:butt;stroke-linejoin:round;stroke-miterlimit:1.5;"/>
            </g>
        </g>
        <g transform="matrix(2.31957,0,0,8.13184,4935.84,715.602)">
            <g transform="matrix(0.027616,0,0,0.00787735,-2353.96,-73.0558)">
                <circle cx="102436" cy="13938.8" r="553.055" style="fill:white;stroke:black;stroke-width:124.89px;stroke-linecap:butt;stroke-linejoin:round;stroke-miterlimit:1.5;"/>
            </g>
        </g>
        <g transform="matrix(2.31957,0,0,8.13184,4935.84,715.602)">
            <g transform="matrix(0.027616,0,0,0.00787735,-2312.64,-52.6416)">
                <circle cx="102436" cy="13938.8" r="553.055" style="fill:white;stroke:black;stroke-width:124.89px;stroke-linecap:butt;stroke-linejoin:round;stroke-miterlimit:1.5;"/>
            </g>
        </g>
        <g transform="matrix(2.31957,0,0,8.13184,4935.84,715.602)">
            <g transform="matrix(0.027616,0,0,0.00787735,-2477.91,-93.4699)">
                <circle cx="102436" cy="13938.8" r="553.055" style="fill:white;stroke:black;stroke-width:124.89px;stroke-linecap:butt;stroke-linejoin:round;stroke-miterlimit:1.5;"/>
            </g>
        </g>
        <g transform="matrix(2.31957,0,0,8.13184,4935.84,715.602)">
            <g transform="matrix(0.027616,0,0,0.00787735,-2271.32,-73.0558)">
                <circle cx="102436" cy="13938.8" r="553.055" style="fill:rgb(43,196,169);stroke:black;stroke-width:124.89px;stroke-linecap:butt;stroke-linejoin:round;stroke-miterlimit:1.5;"/>
            </g>
        </g>
        <g transform="matrix(2.31957,0,0,8.13184,4935.84,715.602)">
            <g transform="matrix(0.027616,0,0,0.00787735,-2395.28,-52.6416)">
                <circle cx="102436" cy="13938.8" r="553.055" style="fill:white;stroke:black;stroke-width:124.89px;stroke-linecap:butt;stroke-linejoin:round;stroke-miterlimit:1.5;"/>
            </g>
        </g>
        <g transform="matrix(2.31957,0,0,8.13184,4935.84,715.602)">
            <g transform="matrix(0.027616,0,0,0.00787735,-2477.91,-52.6416)">
                <circle cx="102436" cy="13938.8" r="553.055" style="fill:white;stroke:black;stroke-width:124.89px;stroke-linecap:butt;stroke-linejoin:round;stroke-miterlimit:1.5;"/>
            </g>
        </g>
        <g transform="matrix(2.31957,0,0,8.13184,4935.84,715.602)">
            <g transform="matrix(0.027616,0,0,0.00787735,-2395.28,-93.4699)">
                <circle cx="102436" cy="13938.8" r="553.055" style="fill:white;stroke:black;stroke-width:124.89px;stroke-linecap:butt;stroke-linejoin:round;stroke-miterlimit:1.5;"/>
            </g>
        </g>
        <g transform="matrix(2.31957,0,0,8.13184,4935.84,715.602)">
            <g transform="matrix(0.027616,0,0,0.00787735,-2312.64,-93.4699)">
                <circle cx="102436" cy="13938.8" r="553.055" style="fill:white;stroke:black;stroke-width:124.89px;stroke-linecap:butt;stroke-linejoin:round;stroke-miterlimit:1.5;"/>
            </g>
        </g>
        <g transform="matrix(2.31957,0,0,8.13184,4935.84,715.602)">
            <g transform="matrix(0.027616,0,0,0.00787735,-2519.23,-73.0558)">
                <circle cx="102436" cy="13938.8" r="553.055" style="fill:rgb(161,161,161);stroke:black;stroke-width:124.89px;stroke-linecap:butt;stroke-linejoin:round;stroke-miterlimit:1.5;"/>
            </g>
        </g>
        <g transform="matrix(2.31957,0,0,8.13184,4935.84,715.602)">
            <g transform="matrix(0.128838,-2.31387e-33,-9.45021e-33,0.0367505,-1298.57,-29.5691)">
                <text x="13099.4px" y="1840.22px" style="font-family:'Arial-BoldMT', 'Arial', sans-serif;font-weight:700;font-size:107.152px;fill:rgb(35,31,32);">7</text>
            </g>
        </g>
        <g transform="matrix(2.31957,0,0,8.13184,4935.84,715.602)">
            <g transform="matrix(0.128838,-2.31387e-33,-9.45021e-33,0.0367505,-1216.01,-29.551)">
                <text x="13099.4px" y="1840.22px" style="font-family:'Arial-BoldMT', 'Arial', sans-serif;font-weight:700;font-size:107.152px;fill:rgb(35,31,32);">4</text>
            </g>
        </g>
        <g transform="matrix(2.31957,0,0,8.13184,4935.84,715.602)">
            <g transform="matrix(0.128838,-2.31387e-33,-9.45021e-33,0.0367505,-1382.44,-29.6259)">
                <text x="13102px" y="1840.22px" style="font-family:'Montserrat-Bold', 'Montserrat';font-weight:700;font-size:101.824px;">0</text>
            </g>
        </g>
        <g transform="matrix(2.31957,0,0,8.13184,4935.84,715.602)">
            <g transform="matrix(0.128838,-2.31387e-33,-9.45021e-33,0.0367505,-1339.9,-49.9235)">
                <text x="13099.4px" y="1840.22px" style="font-family:'Arial-BoldMT', 'Arial', sans-serif;font-weight:700;font-size:107.152px;fill:rgb(35,31,32);">9</text>
            </g>
        </g>
        <g transform="matrix(2.31957,0,0,8.13184,4935.84,715.602)">
            <g transform="matrix(0.128838,-2.31387e-33,-9.45021e-33,0.0367505,-1257.51,-49.9226)">
                <text x="13099.4px" y="1840.22px" style="font-family:'Arial-BoldMT', 'Arial', sans-serif;font-weight:700;font-size:107.152px;fill:rgb(35,31,32);">6</text>
            </g>
        </g>
        <g transform="matrix(2.31957,0,0,8.13184,4935.84,715.602)">
            <g transform="matrix(0.128838,-2.31387e-33,-9.45021e-33,0.0367505,-1174.64,-49.9226)">
                <text x="13099.4px" y="1840.22px" style="font-family:'Arial-BoldMT', 'Arial', sans-serif;font-weight:700;font-size:107.152px;fill:rgb(35,31,32);">3</text>
            </g>
        </g>
        <g transform="matrix(2.31957,0,0,8.13184,4935.84,715.602)">
            <g transform="matrix(0.128838,-2.31387e-33,-9.45021e-33,0.0367505,-1133.27,-29.5204)">
                <text x="13099.4px" y="1840.22px" style="font-family:'Arial-BoldMT', 'Arial', sans-serif;font-weight:700;font-size:107.152px;fill:rgb(35,31,32);">1</text>
            </g>
        </g>
        <g transform="matrix(2.31957,0,0,8.13184,4935.84,715.602)">
            <g transform="matrix(0.128838,-2.31387e-33,-9.45021e-33,0.0367505,-1174.64,-9.13385)">
                <text x="13099.4px" y="1840.22px" style="font-family:'Arial-BoldMT', 'Arial', sans-serif;font-weight:700;font-size:107.152px;fill:rgb(35,31,32);">2</text>
            </g>
        </g>
        <g transform="matrix(2.31957,0,0,8.13184,4935.84,715.602)">
            <g transform="matrix(0.128838,-2.31387e-33,-9.45021e-33,0.0367505,-1339.97,-9.13385)">
                <text x="13099.4px" y="1840.22px" style="font-family:'Arial-BoldMT', 'Arial', sans-serif;font-weight:700;font-size:107.152px;fill:rgb(35,31,32);">8</text>
            </g>
        </g>
        <g transform="matrix(2.31957,0,0,8.13184,4935.84,715.602)">
            <g transform="matrix(0.128838,-2.31387e-33,-9.45021e-33,0.0367505,-1257.33,-9.13385)">
                <text x="13099.4px" y="1840.22px" style="font-family:'Arial-BoldMT', 'Arial', sans-serif;font-weight:700;font-size:107.152px;fill:rgb(35,31,32);">5</text>
            </g>
        </g>
    </g>
</svg>
