<?xml version="1.0" encoding="UTF-8" standalone="no"?><!DOCTYPE svg PUBLIC "-//W3C//DTD SVG 1.1//EN" "http://www.w3.org/Graphics/SVG/1.1/DTD/svg11.dtd"><svg width="100%" height="100%" viewBox="0 0 104 125" version="1.1" xmlns="http://www.w3.org/2000/svg" xmlns:xlink="http://www.w3.org/1999/xlink" xml:space="preserve" xmlns:serif="http://www.serif.com/" style="fill-rule:evenodd;clip-rule:evenodd;stroke-miterlimit:10;"><g transform="matrix(1,0,0,1,-6096.5,-920.396)"><g transform="matrix(2.31957,0,0,26.3905,4833.41,1723.75)"><g transform="matrix(0.747264,0,0,0.0656801,542.89,-29.0546)"><g transform="matrix(1,0,0,1,0,-17.3077)"><path d="M32,14L32,62" style="fill:none;fill-rule:nonzero;stroke:#000;stroke-width:1.15px;"/></g><g transform="matrix(1,0,0,1,0,-17.3077)"><circle cx="32" cy="8" r="6" style="fill:#ffff9f;stroke:#000;stroke-width:1.15px;stroke-linecap:square;"/></g><g transform="matrix(1,0,0,1,0,-17.3077)"><path d="M24,22L40,22" style="fill:none;fill-rule:nonzero;stroke:#000;stroke-width:1.15px;stroke-linecap:square;"/></g><g transform="matrix(1,0,0,1,0,-17.3077)"><path d="M56,48.43C51.101,56.562 42.185,62 32,62C21.814,62 12.898,56.561 7.999,48.428" style="fill:none;fill-rule:nonzero;stroke:#000;stroke-width:1.15px;"/></g><g transform="matrix(1,0,0,1,0,-17.3077)"><path d="M44,48L56,48L56,60" style="fill:#9f9fff;fill-rule:nonzero;stroke:#000;stroke-width:1.15px;stroke-linecap:square;"/></g><g transform="matrix(1,0,0,1,0,-17.3077)"><path d="M20,48L8,48L8,60" style="fill:#2bc4a9;fill-rule:nonzero;stroke:#000;stroke-width:1.15px;stroke-linecap:square;"/></g></g></g></g></svg>