<?xml version="1.0" encoding="UTF-8" standalone="no"?>
<!DOCTYPE svg PUBLIC "-//W3C//DTD SVG 1.1//EN" "http://www.w3.org/Graphics/SVG/1.1/DTD/svg11.dtd">
<svg width="100%" height="100%" viewBox="0 0 95 95" version="1.1" xmlns="http://www.w3.org/2000/svg" xmlns:xlink="http://www.w3.org/1999/xlink" xml:space="preserve" xmlns:serif="http://www.serif.com/" style="fill-rule:evenodd;clip-rule:evenodd;stroke-linecap:square;stroke-miterlimit:10;">
    <g transform="matrix(1,0,0,1,-8031.35,-2572.64)">
        <g transform="matrix(2.31957,0,0,25.1326,6794.33,2223.67)">
            <g transform="matrix(0.637431,0,0,0.0588307,553.695,15.768)">
                <g transform="matrix(1,0,0,1,-32,-32)">
                    <clipPath id="_clip1">
                        <rect x="0" y="0" width="64" height="64"/>
                    </clipPath>
                    <g clip-path="url(#_clip1)">
                        <g transform="matrix(1,0,0,1,0.5,0.5)">
                            <path d="M46,22L40,22" style="fill:none;fill-rule:nonzero;stroke:black;stroke-width:1px;"/>
                            <path d="M46,60L40,60" style="fill:none;fill-rule:nonzero;stroke:black;stroke-width:1px;"/>
                            <path d="M30,60L24,60" style="fill:none;fill-rule:nonzero;stroke:black;stroke-width:1px;"/>
                            <path d="M62,44L62,38" style="fill:none;fill-rule:nonzero;stroke:black;stroke-width:1px;"/>
                            <path d="M62,28L62,22L56,22" style="fill:none;fill-rule:nonzero;stroke:black;stroke-width:1px;"/>
                            <path d="M62,54L62,60L56,60" style="fill:none;fill-rule:nonzero;stroke:black;stroke-width:1px;"/>
                            <path d="M8,54L8,60L14,60" style="fill:none;fill-rule:nonzero;stroke:black;stroke-width:1px;"/>
                            <path d="M11.495,12.878L42,38" style="fill:none;fill-rule:nonzero;stroke:black;stroke-width:1px;stroke-linecap:butt;"/>
                            <path d="M11.6,31.2L42,6" style="fill:none;fill-rule:nonzero;stroke:black;stroke-width:1px;stroke-linecap:butt;"/>
                            <circle cx="8" cy="36" r="6" style="fill:none;stroke:black;stroke-width:1px;"/>
                            <circle cx="8" cy="8" r="6" style="fill:none;stroke:black;stroke-width:1px;"/>
                        </g>
                    </g>
                </g>
            </g>
        </g>
    </g>
</svg>
