<?xml version="1.0" encoding="UTF-8" standalone="no"?>
<!DOCTYPE svg PUBLIC "-//W3C//DTD SVG 1.1//EN" "http://www.w3.org/Graphics/SVG/1.1/DTD/svg11.dtd">
<svg width="100%" height="100%" viewBox="0 0 673 437" version="1.1" xmlns="http://www.w3.org/2000/svg" xmlns:xlink="http://www.w3.org/1999/xlink" xml:space="preserve" xmlns:serif="http://www.serif.com/" style="fill-rule:evenodd;clip-rule:evenodd;stroke-linejoin:bevel;stroke-miterlimit:1.5;">
    <g transform="matrix(1,0,0,1,-7460.91,-175.742)">
        <g transform="matrix(2.31957,0,0,8.13184,6809.14,715.602)">
            <g transform="matrix(0.148053,0,0,0.0422316,-14699.1,-628.144)">
                <circle cx="102436" cy="13938.8" r="553.055" style="fill:rgb(161,161,161);stroke:black;stroke-width:23.3px;"/>
            </g>
        </g>
        <g transform="matrix(2.31957,0,0,8.13184,6809.14,715.602)">
            <g transform="matrix(0.037675,0,0,0.0107466,-3537.14,-189.273)">
                <circle cx="102436" cy="13938.8" r="553.055" style="fill:none;stroke:black;stroke-width:91.54px;"/>
            </g>
        </g>
        <g transform="matrix(2.31957,0,0,8.13184,6809.14,715.602)">
            <g transform="matrix(0.037675,0,0,0.0107466,-3370.47,-189.273)">
                <circle cx="102436" cy="13938.8" r="553.055" style="fill:none;stroke:black;stroke-width:91.54px;"/>
            </g>
        </g>
        <g transform="matrix(2.31957,0,0,8.13184,6809.14,715.602)">
            <g transform="matrix(0.037675,0,0,0.0107466,-3453.82,-189.273)">
                <circle cx="102436" cy="13938.8" r="553.055" style="fill:none;stroke:black;stroke-width:91.54px;"/>
            </g>
        </g>
        <g transform="matrix(2.31957,0,0,8.13184,6809.14,715.602)">
            <g transform="matrix(0.037675,0,0,0.0107466,-3495.46,-189.273)">
                <circle cx="102436" cy="13938.8" r="553.055" style="fill:none;stroke:black;stroke-width:91.54px;"/>
            </g>
        </g>
        <g transform="matrix(2.31957,0,0,8.13184,6809.14,715.602)">
            <g transform="matrix(0.037675,0,0,0.0107466,-3328.8,-189.273)">
                <circle cx="102436" cy="13938.8" r="553.055" style="fill:none;stroke:black;stroke-width:91.54px;"/>
            </g>
        </g>
        <g transform="matrix(2.31957,0,0,8.13184,6809.14,715.602)">
            <g transform="matrix(0.037675,0,0,0.0107466,-3412.15,-189.273)">
                <circle cx="102436" cy="13938.8" r="553.055" style="fill:none;stroke:black;stroke-width:91.54px;"/>
            </g>
        </g>
        <g transform="matrix(2.31957,0,0,8.13184,6809.14,715.602)">
            <g transform="matrix(0.148053,0,0,0.0422316,-14617.3,-628.144)">
                <path d="M102160,14417.7C101994,14322 101883,14143.3 101883,13938.8C101883,13734.3 101994,13555.5 102160,13459.8" style="fill:none;stroke:black;stroke-width:23.3px;"/>
            </g>
        </g>
        <g transform="matrix(2.31957,0,0,8.13184,6809.14,715.602)">
            <g transform="matrix(0.148053,0,0,0.0422316,-14862.9,-628.144)">
                <path d="M102698,13451.7C102871,13545.1 102989,13728.3 102989,13938.8C102989,14147.9 102873,14330.2 102701,14424.1" style="fill:none;stroke:black;stroke-width:23.3px;"/>
            </g>
        </g>
        <g transform="matrix(2.31957,0,0,8.13184,6809.14,715.602)">
            <g transform="matrix(0.148053,0,0,0.0422316,-14778.5,-628.144)">
                <path d="M102698,13451.7C102871,13545.1 102989,13728.3 102989,13938.8C102989,14147.9 102873,14330.2 102701,14424.1" style="fill:none;stroke:black;stroke-width:23.3px;"/>
            </g>
        </g>
        <g transform="matrix(2.31957,0,0,8.13184,6809.14,715.602)">
            <g transform="matrix(0.0370069,0,0,0.0105561,-3283.03,-207.197)">
                <circle cx="102436" cy="13938.8" r="553.055" style="fill:rgb(159,159,255);stroke:black;stroke-width:93.2px;"/>
            </g>
        </g>
        <g transform="matrix(2.31957,0,0,8.13184,6809.14,715.602)">
            <g transform="matrix(0.0370069,0,0,0.0105561,-3362.56,-207.197)">
                <circle cx="102436" cy="13938.8" r="553.055" style="fill:rgb(232,232,232);stroke:black;stroke-width:93.2px;"/>
            </g>
        </g>
        <g transform="matrix(2.31957,0,0,8.13184,6809.14,715.602)">
            <g transform="matrix(0.0370069,0,0,0.0105561,-3448.41,-207.197)">
                <circle cx="102436" cy="13938.8" r="553.055" style="fill:rgb(232,232,232);stroke:black;stroke-width:93.2px;"/>
            </g>
        </g>
        <g transform="matrix(2.31957,0,0,8.13184,6809.14,715.602)">
            <g transform="matrix(0.0370069,0,0,0.0105561,-3283.03,-166.177)">
                <circle cx="102436" cy="13938.8" r="553.055" style="fill:rgb(255,104,116);stroke:black;stroke-width:93.2px;"/>
            </g>
        </g>
        <g transform="matrix(2.31957,0,0,8.13184,6809.14,715.602)">
            <g transform="matrix(0.0370069,0,0,0.0105561,-3362.56,-166.177)">
                <circle cx="102436" cy="13938.8" r="553.055" style="fill:rgb(232,232,232);stroke:black;stroke-width:93.2px;"/>
            </g>
        </g>
        <g transform="matrix(2.31957,0,0,8.13184,6809.14,715.602)">
            <g transform="matrix(0.0370069,0,0,0.0105561,-3448.41,-166.177)">
                <circle cx="102436" cy="13938.8" r="553.055" style="fill:rgb(232,232,232);stroke:black;stroke-width:93.2px;"/>
            </g>
        </g>
        <g transform="matrix(2.31957,0,0,8.13184,6809.14,715.602)">
            <g transform="matrix(0.0370069,0,0,0.0105561,-3487.67,-186.722)">
                <circle cx="102436" cy="13938.8" r="553.055" style="stroke:black;stroke-width:93.2px;"/>
            </g>
        </g>
        <g transform="matrix(2.31957,0,0,8.13184,6809.14,715.602)">
            <g transform="matrix(0.142003,-2.5503e-33,-1.04158e-32,0.0405058,-1522.42,-133.053)">
                <text x="13099.4px" y="1840.22px" style="font-family:'Montserrat-Bold', 'Montserrat';font-weight:700;font-size:107.152px;">9</text>
            </g>
        </g>
        <g transform="matrix(2.31957,0,0,8.13184,6809.14,715.602)">
            <g transform="matrix(0.142003,-2.5503e-33,-1.04158e-32,0.0405058,-1436.86,-133.053)">
                <text x="13099.4px" y="1840.22px" style="font-family:'Montserrat-Bold', 'Montserrat';font-weight:700;font-size:107.152px;">6</text>
            </g>
        </g>
        <g transform="matrix(2.31957,0,0,8.13184,6809.14,715.602)">
            <g transform="matrix(0.142003,-2.5503e-33,-1.04158e-32,0.0405058,-1356.6,-133.105)">
                <text x="13099.4px" y="1840.22px" style="font-family:'Montserrat-Bold', 'Montserrat';font-weight:700;font-size:107.152px;fill:rgb(35,31,32);">3</text>
            </g>
        </g>
        <g transform="matrix(2.31957,0,0,8.13184,6809.14,715.602)">
            <g transform="matrix(0.142003,-2.5503e-33,-1.04158e-32,0.0405058,-1356.63,-92.0324)">
                <text x="13099.4px" y="1840.22px" style="font-family:'Montserrat-Bold', 'Montserrat';font-weight:700;font-size:107.152px;fill:rgb(35,31,32);">2</text>
            </g>
        </g>
        <g transform="matrix(2.31957,0,0,8.13184,6809.14,715.602)">
            <g transform="matrix(0.142003,-2.5503e-33,-1.04158e-32,0.0405058,-1522.83,-92.0584)">
                <text x="13099.4px" y="1840.22px" style="font-family:'Montserrat-Bold', 'Montserrat';font-weight:700;font-size:107.152px;">8</text>
            </g>
        </g>
        <g transform="matrix(2.31957,0,0,8.13184,6809.14,715.602)">
            <g transform="matrix(0.142003,-2.5503e-33,-1.04158e-32,0.0405058,-1436.27,-92.0845)">
                <text x="13099.4px" y="1840.22px" style="font-family:'Montserrat-Bold', 'Montserrat';font-weight:700;font-size:107.152px;">5</text>
            </g>
        </g>
        <g transform="matrix(2.31957,0,0,8.13184,6809.14,715.602)">
            <g transform="matrix(0.0370069,0,0,0.0105561,-3323.96,-186.722)">
                <circle cx="102436" cy="13938.8" r="553.055" style="fill:rgb(255,255,159);stroke:black;stroke-width:93.2px;"/>
            </g>
        </g>
        <g transform="matrix(2.31957,0,0,8.13184,6809.14,715.602)">
            <g transform="matrix(0.0370069,0,0,0.0105561,-3242.03,-186.722)">
                <circle cx="102436" cy="13938.8" r="553.055" style="fill:rgb(43,196,169);stroke:black;stroke-width:93.2px;"/>
            </g>
        </g>
        <g transform="matrix(2.31957,0,0,8.13184,6809.14,715.602)">
            <g transform="matrix(0.0370069,0,0,0.0105561,-3405.83,-186.722)">
                <circle cx="102436" cy="13938.8" r="553.055" style="fill:rgb(232,232,232);stroke:black;stroke-width:93.2px;"/>
            </g>
        </g>
        <g transform="matrix(2.31957,0,0,8.13184,6809.14,715.602)">
            <g transform="matrix(0.142003,-2.5503e-33,-1.04158e-32,0.0405058,-1479.81,-112.604)">
                <text x="13099.4px" y="1840.22px" style="font-family:'Montserrat-Bold', 'Montserrat';font-weight:700;font-size:107.152px;">7</text>
            </g>
        </g>
        <g transform="matrix(2.31957,0,0,8.13184,6809.14,715.602)">
            <g transform="matrix(0.142003,-2.5503e-33,-1.04158e-32,0.0405058,-1398.69,-112.604)">
                <text x="13099.4px" y="1840.22px" style="font-family:'Montserrat-Bold', 'Montserrat';font-weight:700;font-size:107.152px;fill:rgb(35,31,32);">4</text>
            </g>
        </g>
        <g transform="matrix(2.31957,0,0,8.13184,6809.14,715.602)">
            <g transform="matrix(0.142003,-2.5503e-33,-1.04158e-32,0.0405058,-1313.74,-112.604)">
                <text x="13099.4px" y="1840.22px" style="font-family:'Montserrat-Bold', 'Montserrat';font-weight:700;font-size:107.152px;fill:rgb(35,31,32);">1</text>
            </g>
        </g>
    </g>
</svg>
