<?xml version="1.0" encoding="UTF-8" standalone="no"?>
<!DOCTYPE svg PUBLIC "-//W3C//DTD SVG 1.1//EN" "http://www.w3.org/Graphics/SVG/1.1/DTD/svg11.dtd">
<svg width="100%" height="100%" viewBox="0 0 40 40" version="1.1" xmlns="http://www.w3.org/2000/svg" xmlns:xlink="http://www.w3.org/1999/xlink" xml:space="preserve" xmlns:serif="http://www.serif.com/" style="fill-rule:evenodd;clip-rule:evenodd;stroke-linejoin:round;stroke-miterlimit:2;">
    <g>
        <g id="mediano2" transform="matrix(0.79707,0,0,0.79707,4.26536,4.67272)">
            <circle cx="10" cy="20" r="9.5" style="fill:none;stroke:white;stroke-width:0.63px;"/>
        </g>
        <g id="mediano1" transform="matrix(0.79707,0,0,0.79707,3.56175,4.67272)">
            <circle cx="30" cy="20" r="9.5" style="fill:none;stroke:white;stroke-width:0.63px;"/>
        </g>
        <g id="grande" transform="matrix(0.779859,0,0,0.779859,4.27397,4.68132)">
            <circle cx="20" cy="20" r="19.5" style="fill:none;stroke:white;stroke-width:0.64px;"/>
        </g>
        <g transform="matrix(1,0,0,1,-1.53821,8.23788)">
            <g transform="matrix(7.32631,0,0,7.32631,22.3724,14.52)">
            </g>
            <text x="19.581px" y="14.52px" style="font-family:'Montserrat-SemiBold', 'Montserrat';font-weight:600;font-size:7.326px;fill:white;">1</text>
            <path d="M19.64,8.392L21.676,8.392C22.229,8.392 22.676,8.839 22.676,9.392L22.676,14.52C22.676,15.072 22.229,15.52 21.676,15.52L20.724,15.52C20.172,15.52 19.724,15.072 19.724,14.52L19.724,11.19L19.64,11.19C19.087,11.19 18.64,10.742 18.64,10.19L18.64,9.392C18.64,8.839 19.087,8.392 19.64,8.392ZM19.64,9.392L19.64,10.19L20.724,10.19L20.724,14.52L21.676,14.52L21.676,9.392L19.64,9.392Z"/>
        </g>
        <g transform="matrix(1,0,0,1,-2.00492,22.9258)">
            <g transform="matrix(7.32631,0,0,7.32631,23.845,14.52)">
            </g>
            <text x="19.581px" y="14.52px" style="font-family:'Montserrat-SemiBold', 'Montserrat';font-weight:600;font-size:7.326px;fill:white;">2</text>
            <path d="M23.667,12.715C24.197,12.741 24.618,13.178 24.618,13.714L24.618,14.52C24.618,15.072 24.17,15.52 23.618,15.52L19.837,15.52C19.285,15.52 18.837,15.072 18.837,14.52L18.837,13.883C18.837,13.608 18.95,13.346 19.149,13.157L20.954,11.443C20.602,11.743 20.077,11.767 19.697,11.474L19.03,10.961C18.598,10.628 18.512,10.012 18.836,9.573C19.399,8.812 20.39,8.318 21.588,8.318C23.37,8.318 24.42,9.338 24.42,10.791C24.42,11.396 24.315,11.975 23.667,12.715ZM21.032,11.369C21.032,11.369 21.199,11.21 21.207,11.203C21.164,11.225 21.127,11.255 21.095,11.296C21.075,11.322 21.054,11.346 21.032,11.369ZM21.2,13.714L22.57,12.41C23.281,11.743 23.42,11.289 23.42,10.791C23.42,9.882 22.702,9.318 21.588,9.318C20.746,9.318 20.035,9.633 19.64,10.168L20.306,10.681C20.592,10.315 21.01,10.146 21.508,10.146C22.138,10.146 22.46,10.417 22.46,10.886C22.46,11.172 22.372,11.472 21.874,11.948L19.837,13.883L19.837,14.52L23.618,14.52L23.618,13.714L21.2,13.714Z"/>
        </g>
        <g transform="matrix(1,0,0,1,-1.73825,-6.86662)">
            <g transform="matrix(7.32631,0,0,7.32631,23.845,14.52)">
            </g>
            <text x="19.581px" y="14.52px" style="font-family:'Montserrat-SemiBold', 'Montserrat';font-weight:600;font-size:7.326px;fill:white;">3</text>
            <path d="M20.003,12.26C20.003,12.249 20.002,12.238 20.002,12.227L20.002,11.575C20.002,11.442 20.029,11.311 20.079,11.19L19.837,11.19C19.285,11.19 18.837,10.742 18.837,10.19L18.837,9.392C18.837,8.839 19.285,8.392 19.837,8.392L23.332,8.392C23.884,8.392 24.332,8.839 24.332,9.392L24.332,10.029C24.332,10.265 24.249,10.493 24.097,10.673L23.725,11.115C24.278,11.568 24.545,12.229 24.545,12.981C24.545,13.702 24.266,14.371 23.707,14.862C23.225,15.287 22.506,15.593 21.515,15.593C20.555,15.593 19.602,15.281 18.971,14.787C18.585,14.483 18.476,13.944 18.714,13.515L19.124,12.775C19.269,12.514 19.523,12.331 19.817,12.277C19.879,12.265 19.941,12.26 20.003,12.26ZM21.471,12.758L21.468,12.761L21.468,12.765L21.471,12.765L21.471,12.758ZM22.087,11.509L23.332,10.029L23.332,9.392L19.837,9.392L19.837,10.19L22.167,10.19L21.002,11.575L21.002,12.227L21.471,12.227C22.248,12.227 22.585,12.527 22.585,12.989C22.585,13.465 22.182,13.765 21.501,13.765C20.922,13.765 20.365,13.568 19.999,13.26L19.588,14C20.065,14.373 20.79,14.593 21.515,14.593C22.893,14.593 23.545,13.846 23.545,12.981C23.545,12.212 23.054,11.633 22.087,11.509Z"/>
        </g>
        <g transform="matrix(1,0,0,1,12.5677,8.07196)">
            <g transform="matrix(7.32631,0,0,7.32631,24.5556,14.52)">
            </g>
            <text x="19.581px" y="14.52px" style="font-family:'Montserrat-SemiBold', 'Montserrat';font-weight:600;font-size:7.326px;fill:white;">4</text>
            <path d="M23.766,10.536C24.223,10.628 24.567,11.032 24.567,11.516L24.567,11.553C25.076,11.6 25.475,12.028 25.475,12.549L25.475,13.355C25.475,13.877 25.076,14.305 24.567,14.351L24.567,14.52C24.567,15.072 24.119,15.52 23.567,15.52L22.643,15.52C22.091,15.52 21.643,15.072 21.643,14.52C21.643,14.52 21.643,14.355 21.643,14.355L19.83,14.355C19.278,14.355 18.83,13.907 18.83,13.355L18.83,12.696C18.83,12.476 18.902,12.263 19.036,12.088L21.563,8.784C21.753,8.537 22.046,8.392 22.358,8.392L23.376,8.392C23.755,8.392 24.102,8.606 24.271,8.945C24.44,9.285 24.403,9.691 24.175,9.994L23.766,10.536ZM24.475,12.549L23.567,12.549L23.567,11.516L22.673,11.516L22.673,12.549L20.995,12.549L23.376,9.392L22.358,9.392L19.83,12.696L19.83,13.355L22.643,13.355L22.643,14.52L23.567,14.52L23.567,13.355L24.475,13.355L24.475,12.549Z"/>
        </g>
        <g transform="matrix(1,0,0,1,-16.9976,8.34825)">
            <g transform="matrix(7.32631,0,0,7.32631,24.5117,14.52)">
            </g>
            <text x="19.581px" y="14.52px" style="font-family:'Montserrat-SemiBold', 'Montserrat';font-weight:600;font-size:7.326px;fill:white;">0</text>
            <path d="M22.043,15.593C20.322,15.593 18.903,14.34 18.903,11.956C18.903,9.572 20.322,8.318 22.043,8.318C23.773,8.318 25.189,9.573 25.189,11.956C25.189,14.339 23.773,15.593 22.043,15.593ZM22.043,14.593C23.266,14.593 24.189,13.641 24.189,11.956C24.189,10.271 23.266,9.318 22.043,9.318C20.827,9.318 19.903,10.271 19.903,11.956C19.903,13.641 20.827,14.593 22.043,14.593ZM22.043,13.765C21.347,13.765 20.863,13.194 20.863,11.956C20.863,10.718 21.347,10.146 22.043,10.146C22.746,10.146 23.23,10.718 23.23,11.956C23.23,13.194 22.746,13.765 22.043,13.765ZM22.043,12.765C22.116,12.765 22.124,12.681 22.152,12.593C22.206,12.42 22.23,12.208 22.23,11.956C22.23,11.704 22.206,11.491 22.152,11.319C22.124,11.231 22.116,11.146 22.043,11.146C21.972,11.146 21.968,11.232 21.941,11.318C21.886,11.491 21.863,11.703 21.863,11.956C21.863,12.208 21.886,12.421 21.941,12.593C21.968,12.68 21.972,12.765 22.043,12.765Z"/>
        </g>
    </g>
</svg>
