<?xml version="1.0" encoding="UTF-8" standalone="no"?>
<!DOCTYPE svg PUBLIC "-//W3C//DTD SVG 1.1//EN" "http://www.w3.org/Graphics/SVG/1.1/DTD/svg11.dtd">
<svg width="100%" height="100%" viewBox="0 0 541 491" version="1.1" xmlns="http://www.w3.org/2000/svg" xmlns:xlink="http://www.w3.org/1999/xlink" xml:space="preserve" xmlns:serif="http://www.serif.com/" style="fill-rule:evenodd;clip-rule:evenodd;stroke-linejoin:round;stroke-miterlimit:1.5;">
    <g transform="matrix(1,0,0,1,-5210.3,-5762.45)">
        <g transform="matrix(2.31957,0,0,22.5771,4833.41,1998.79)">
            <g transform="matrix(0.148883,0,0,0.0152962,-14972,-35.6946)">
                <circle cx="102436" cy="13938.8" r="553.055" style="fill:none;stroke:black;stroke-width:23.17px;"/>
            </g>
        </g>
        <g transform="matrix(2.31957,0,0,22.5771,4833.41,1998.79)">
            <g transform="matrix(0.148883,0,0,0.0152962,-14888.8,-35.6946)">
                <path d="M102169,14422.7C101998,14328.4 101883,14146.9 101883,13938.8C101883,13735.5 101993,13557.8 102157,13461.6" style="fill:none;stroke:black;stroke-width:23.17px;"/>
            </g>
        </g>
        <g transform="matrix(2.31957,0,0,22.5771,4833.41,1998.79)">
            <g transform="matrix(-0.148883,0,0,0.0152962,15448.5,-35.6946)">
                <path d="M102169,14422.7C101998,14328.4 101883,14146.9 101883,13938.8C101883,13735.5 101993,13557.8 102157,13461.6" style="fill:none;stroke:black;stroke-width:23.17px;"/>
            </g>
        </g>
        <g transform="matrix(2.31957,0,0,22.5771,4833.41,1998.79)">
            <g transform="matrix(2.81385,0,0,0.289095,168.597,154.607)">
                <circle cx="54" cy="54" r="6" style="fill:rgb(159,159,255);stroke:black;stroke-width:1.23px;stroke-linecap:square;stroke-linejoin:miter;stroke-miterlimit:10;"/>
            </g>
        </g>
        <g transform="matrix(2.31957,0,0,22.5771,4833.41,1998.79)">
            <g transform="matrix(2.81385,0,0,0.289095,85.432,154.607)">
                <circle cx="54" cy="54" r="6" style="fill:rgb(161,161,161);stroke:black;stroke-width:1.23px;stroke-linecap:square;stroke-linejoin:miter;stroke-miterlimit:10;"/>
            </g>
        </g>
        <g transform="matrix(2.31957,0,0,22.5771,4833.41,1998.79)">
            <g transform="matrix(2.81385,0,0,0.289095,168.556,169.308)">
                <circle cx="54" cy="54" r="6" style="fill:rgb(255,104,116);stroke:black;stroke-width:1.23px;stroke-linecap:square;stroke-linejoin:miter;stroke-miterlimit:10;"/>
            </g>
        </g>
        <g transform="matrix(2.31957,0,0,22.5771,4833.41,1998.79)">
            <g transform="matrix(2.81385,0,0,0.289095,85.3908,169.308)">
                <circle cx="54" cy="54" r="6" style="fill:rgb(161,161,161);stroke:black;stroke-width:1.23px;stroke-linecap:square;stroke-linejoin:miter;stroke-miterlimit:10;"/>
            </g>
        </g>
        <g transform="matrix(2.31957,0,0,22.5771,4833.41,1998.79)">
            <g transform="matrix(2.81385,0,0,0.289095,209.428,161.905)">
                <circle cx="54" cy="54" r="6" style="fill:rgb(43,196,169);stroke:black;stroke-width:1.23px;stroke-linecap:square;stroke-linejoin:miter;stroke-miterlimit:10;"/>
            </g>
        </g>
        <g transform="matrix(2.31957,0,0,22.5771,4833.41,1998.79)">
            <g transform="matrix(2.81385,0,0,0.289095,127.897,161.957)">
                <circle cx="54" cy="54" r="6" style="fill:rgb(255,255,159);stroke:black;stroke-width:1.23px;stroke-linecap:square;stroke-linejoin:miter;stroke-miterlimit:10;"/>
            </g>
        </g>
        <g transform="matrix(2.31957,0,0,22.5771,4833.41,1998.79)">
            <g transform="matrix(2.81385,0,0,0.289095,44.7468,161.905)">
                <circle cx="54" cy="54" r="6" style="stroke:black;stroke-width:1.23px;stroke-linecap:square;stroke-linejoin:miter;stroke-miterlimit:10;"/>
            </g>
        </g>
        <g transform="matrix(2.31957,0,0,22.5771,4833.41,1998.79)">
            <g transform="matrix(0.10558,-6.8296e-34,-7.74421e-33,0.0108473,-1066.75,150.813)">
                <text x="13099.4px" y="1840.22px" style="font-family:'Arial-BoldMT', 'Arial', sans-serif;font-weight:700;font-size:145.21px;">3</text>
            </g>
        </g>
        <g transform="matrix(2.31957,0,0,22.5771,4833.41,1998.79)">
            <g transform="matrix(0.10558,-6.8296e-34,-7.74421e-33,0.0108473,-1149.92,150.813)">
                <text x="13099.4px" y="1840.22px" style="font-family:'Arial-BoldMT', 'Arial', sans-serif;font-weight:700;font-size:145.21px;">5</text>
            </g>
        </g>
        <g transform="matrix(2.31957,0,0,22.5771,4833.41,1998.79)">
            <g transform="matrix(0.10558,-6.8296e-34,-7.74421e-33,0.0108473,-1066.79,165.514)">
                <text x="13099.4px" y="1840.22px" style="font-family:'Arial-BoldMT', 'Arial', sans-serif;font-weight:700;font-size:145.21px;">2</text>
            </g>
        </g>
        <g transform="matrix(2.31957,0,0,22.5771,4833.41,1998.79)">
            <g transform="matrix(0.10558,-6.8296e-34,-7.74421e-33,0.0108473,-1149.96,165.514)">
                <text x="13099.4px" y="1840.22px" style="font-family:'Arial-BoldMT', 'Arial', sans-serif;font-weight:700;font-size:145.21px;">6</text>
            </g>
        </g>
        <g transform="matrix(2.31957,0,0,22.5771,4833.41,1998.79)">
            <g transform="matrix(0.10558,-6.8296e-34,-7.74421e-33,0.0108473,-1025.92,158.111)">
                <text x="13099.4px" y="1840.22px" style="font-family:'Arial-BoldMT', 'Arial', sans-serif;font-weight:700;font-size:145.21px;">4</text>
            </g>
        </g>
        <g transform="matrix(2.31957,0,0,22.5771,4833.41,1998.79)">
            <g transform="matrix(0.10558,-6.8296e-34,-7.74421e-33,0.0108473,-1107.45,158.164)">
                <text x="13099.4px" y="1840.22px" style="font-family:'Arial-BoldMT', 'Arial', sans-serif;font-weight:700;font-size:145.21px;">1</text>
            </g>
        </g>
        <g transform="matrix(2.31957,0,0,22.5771,4833.41,1998.79)">
            <g transform="matrix(0.10558,-6.8296e-34,-7.74421e-33,0.0108473,-1190.6,158.111)">
                <text x="13099.4px" y="1840.22px" style="font-family:'Arial-BoldMT', 'Arial', sans-serif;font-weight:700;font-size:145.21px;fill:white;">0</text>
            </g>
        </g>
    </g>
</svg>
