<?xml version="1.0" encoding="UTF-8" standalone="no"?>
<!DOCTYPE svg PUBLIC "-//W3C//DTD SVG 1.1//EN" "http://www.w3.org/Graphics/SVG/1.1/DTD/svg11.dtd">
<svg width="100%" height="100%" viewBox="0 0 373 244" version="1.1" xmlns="http://www.w3.org/2000/svg" xmlns:xlink="http://www.w3.org/1999/xlink" xml:space="preserve" xmlns:serif="http://www.serif.com/" style="fill-rule:evenodd;clip-rule:evenodd;stroke-linejoin:bevel;stroke-miterlimit:1.5;">
    <g transform="matrix(1,0,0,1,-5451.66,-2087.64)">
        <g transform="matrix(2.31957,0,0,8.13184,4935.76,715.602)">
            <g transform="matrix(0.0812364,0,0,0.0231723,-8041.25,-139.287)">
                <circle cx="102436" cy="13938.8" r="553.055" style="fill:none;stroke:black;stroke-width:42.46px;"/>
            </g>
        </g>
        <g transform="matrix(2.31957,0,0,8.13184,4935.76,715.602)">
            <g transform="matrix(0.0812364,0,0,0.0231723,-7951.43,-139.287)">
                <path d="M102169,14423C101999,14328.7 101883,14147.1 101883,13938.8C101883,13728.3 102001,13545.1 102174,13451.7" style="fill:none;stroke:black;stroke-width:42.46px;"/>
            </g>
        </g>
        <g transform="matrix(2.31957,0,0,8.13184,4935.76,715.602)">
            <g transform="matrix(0.0812364,0,0,0.0231723,-8086.18,-139.287)">
                <path d="M102698,13451.7C102871,13545.1 102989,13728.3 102989,13938.8C102989,14147.9 102873,14330.2 102701,14424.1" style="fill:none;stroke:black;stroke-width:42.46px;"/>
            </g>
        </g>
        <g transform="matrix(2.31957,0,0,8.13184,4935.76,715.602)">
            <g transform="matrix(0.0406111,0,0,0.0115841,-3902.22,22.2403)">
                <circle cx="102436" cy="13938.8" r="553.055" style="fill:none;stroke:black;stroke-width:84.93px;"/>
            </g>
        </g>
        <g transform="matrix(2.31957,0,0,8.13184,4935.76,715.602)">
            <g transform="matrix(0.0406111,0,0,0.0115841,-3812.39,22.2403)">
                <circle cx="102436" cy="13938.8" r="553.055" style="fill:none;stroke:black;stroke-width:84.93px;"/>
            </g>
        </g>
        <g transform="matrix(2.31957,0,0,8.13184,4935.76,715.602)">
            <g transform="matrix(0.0406111,0,0,0.0115841,-3857.31,22.2403)">
                <circle cx="102436" cy="13938.8" r="553.055" style="fill:none;stroke:black;stroke-width:84.93px;"/>
            </g>
        </g>
        <g transform="matrix(2.31957,0,0,8.13184,4935.76,715.602)">
            <g transform="matrix(0.0203055,0,0,0.00579207,-1833.42,102.972)">
                <circle cx="102436" cy="13938.8" r="553.055" style="fill:none;stroke:black;stroke-width:169.85px;"/>
            </g>
        </g>
        <g transform="matrix(2.31957,0,0,8.13184,4935.76,715.602)">
            <g transform="matrix(0.0203055,0,0,0.00579207,-1743.6,102.972)">
                <circle cx="102436" cy="13938.8" r="553.055" style="fill:none;stroke:black;stroke-width:169.85px;"/>
            </g>
        </g>
        <g transform="matrix(2.31957,0,0,8.13184,4935.76,715.602)">
            <g transform="matrix(0.0203055,0,0,0.00579207,-1788.52,102.972)">
                <circle cx="102436" cy="13938.8" r="553.055" style="fill:none;stroke:black;stroke-width:169.85px;"/>
            </g>
        </g>
        <g transform="matrix(2.31957,0,0,8.13184,4935.76,715.602)">
            <g transform="matrix(0.0203055,0,0,0.00579207,-1810.97,102.972)">
                <circle cx="102436" cy="13938.8" r="553.055" style="fill:none;stroke:black;stroke-width:169.85px;"/>
            </g>
        </g>
        <g transform="matrix(2.31957,0,0,8.13184,4935.76,715.602)">
            <g transform="matrix(0.0203055,0,0,0.00579207,-1721.14,102.972)">
                <circle cx="102436" cy="13938.8" r="553.055" style="fill:none;stroke:black;stroke-width:169.85px;"/>
            </g>
        </g>
        <g transform="matrix(2.31957,0,0,8.13184,4935.76,715.602)">
            <g transform="matrix(0.0203055,0,0,0.00579207,-1766.06,102.972)">
                <circle cx="102436" cy="13938.8" r="553.055" style="fill:none;stroke:black;stroke-width:169.85px;"/>
            </g>
        </g>
        <g transform="matrix(2.31957,0,0,8.13184,4935.76,715.602)">
            <g transform="matrix(0.0812364,0,0,0.0231723,-7996.33,-139.287)">
                <circle cx="102436" cy="13938.8" r="553.055" style="fill:none;stroke:black;stroke-width:42.46px;"/>
            </g>
        </g>
        <g transform="matrix(2.31957,0,0,8.13184,4935.76,715.602)">
            <g transform="matrix(0.0203055,0,0,0.00579207,-1754.83,102.92)">
                <circle cx="102436" cy="13938.8" r="553.055" style="fill:rgb(255,255,159);stroke:black;stroke-width:169.85px;"/>
            </g>
        </g>
        <g transform="matrix(2.31957,0,0,8.13184,4935.76,715.602)">
            <g transform="matrix(0.0203055,0,0,0.00579207,-1709.87,102.92)">
                <circle cx="102436" cy="13938.8" r="553.055" style="fill:rgb(255,255,159);stroke:black;stroke-width:169.85px;"/>
            </g>
        </g>
        <g transform="matrix(2.31957,0,0,8.13184,4935.76,715.602)">
            <g transform="matrix(0.0203055,0,0,0.00579207,-1732.37,91.6854)">
                <circle cx="102436" cy="13938.8" r="553.055" style="fill:rgb(255,255,159);stroke:black;stroke-width:169.85px;"/>
            </g>
        </g>
        <g transform="matrix(2.31957,0,0,8.13184,4935.76,715.602)">
            <g transform="matrix(0.0203055,0,0,0.00579207,-1776.01,91.6854)">
                <circle cx="102436" cy="13938.8" r="553.055" style="fill:rgb(255,255,159);stroke:black;stroke-width:169.85px;"/>
            </g>
        </g>
        <g transform="matrix(2.31957,0,0,8.13184,4935.76,715.602)">
            <g transform="matrix(0.0203055,0,0,0.00579207,-1823.11,91.6854)">
                <circle cx="102436" cy="13938.8" r="553.055" style="fill:rgb(255,255,159);stroke:black;stroke-width:169.85px;"/>
            </g>
        </g>
        <g transform="matrix(2.31957,0,0,8.13184,4935.76,715.602)">
            <g transform="matrix(0.0203055,0,0,0.00579207,-1732.37,114.193)">
                <circle cx="102436" cy="13938.8" r="553.055" style="fill:rgb(255,255,159);stroke:black;stroke-width:169.85px;"/>
            </g>
        </g>
        <g transform="matrix(2.31957,0,0,8.13184,4935.76,715.602)">
            <g transform="matrix(0.0203055,0,0,0.00579207,-1776.01,114.193)">
                <circle cx="102436" cy="13938.8" r="553.055" style="fill:rgb(255,255,159);stroke:black;stroke-width:169.85px;"/>
            </g>
        </g>
        <g transform="matrix(2.31957,0,0,8.13184,4935.76,715.602)">
            <g transform="matrix(0.0203055,0,0,0.00579207,-1823.11,114.193)">
                <circle cx="102436" cy="13938.8" r="553.055" style="fill:rgb(255,255,159);stroke:black;stroke-width:169.85px;"/>
            </g>
        </g>
        <g transform="matrix(2.31957,0,0,8.13184,4935.76,715.602)">
            <g transform="matrix(0.0203055,0,0,0.00579207,-1799.75,102.92)">
                <circle cx="102436" cy="13938.8" r="553.055" style="fill:rgb(255,255,159);stroke:black;stroke-width:169.85px;"/>
            </g>
        </g>
        <g transform="matrix(2.31957,0,0,8.13184,4935.76,715.602)">
            <g transform="matrix(0.0203055,0,0,0.00579207,-1844.66,102.92)">
                <circle cx="102436" cy="13938.8" r="553.055" style="fill:rgb(255,255,159);stroke:black;stroke-width:169.85px;"/>
            </g>
        </g>
    </g>
</svg>
