<svg viewBox="0 0 726 475" xmlns="http://www.w3.org/2000/svg" xml:space="preserve" style="fill-rule:evenodd;clip-rule:evenodd;stroke-linejoin:round;stroke-miterlimit:1.5"><path d="m172.996 74.73-3.448-.012s-78.084 132.971-93.32 160.95c-1.643 3.026-2.576 4.935-2.718 5.432-.162.558-.08.951-.02 1.158.06.207 1.095 2.2 3.002 5.57 15.824 27.976 93.035 160.917 93.035 160.917l3.47-.006 95.854-166.004v-2L172.996 74.73Zm-1.724 1 95.834 166.005-95.834 166.004S75.945 243.635 75.417 241.735c-.507-1.9 95.855-166.005 95.855-166.005Z"/><path d="m364.686 74.73-3.45-.012s-78.083 132.971-93.318 160.95c-1.643 3.026-2.576 4.935-2.718 5.432-.163.558-.082.951-.02 1.158.06.207 1.095 2.2 3.002 5.57 15.823 27.976 93.035 160.917 93.035 160.917l3.469-.006 95.854-166.004v-2L364.686 74.73Zm-1.725 1 95.835 166.005-95.835 166.004s-95.327-164.104-95.854-166.004c-.508-1.9 95.854-166.005 95.854-166.005Z"/><path d="m556.49 74.506-3.448-.013s-78.083 132.972-93.319 160.951c-1.643 3.025-2.576 4.934-2.718 5.431-.162.558-.081.952-.02 1.159.06.206 1.095 2.199 3.002 5.57 15.824 27.976 93.035 160.917 93.035 160.917l3.469-.006 95.854-166.005v-2L556.491 74.506Zm-1.724 1 95.835 166.004-95.835 166.005S459.44 243.41 458.912 241.51c-.507-1.899 95.854-166.004 95.854-166.004Z"/><circle cx="102436" cy="13938.8" r="553.055" style="fill:#2bc4a9;stroke:#000;stroke-width:14.93px" transform="matrix(.13392 0 0 .13392 -13067.549 -1625.155)"/><path d="m559.274 228.041 20.1 13.42-20.118 13.392.018-26.812Z" style="fill:none;stroke:#ff6874;stroke-width:6.59px;stroke-linecap:round;stroke-linejoin:miter;stroke-miterlimit:10" transform="matrix(1 0 0 1 .003 0)"/><path d="m75.065 241.114 484.2.333" style="fill:none;stroke:#ff6874;stroke-width:6.59px;stroke-linecap:round;stroke-linejoin:bevel" transform="matrix(1 0 0 1 .003 0)"/><circle cx="102436" cy="13938.8" r="553.055" style="fill:#9f9fff;stroke:#000;stroke-width:14.93px" transform="matrix(.13392 0 0 .13392 -13167.267 -1791.606)"/><circle cx="102436" cy="13938.8" r="553.055" style="fill:#ff6874;stroke:#000;stroke-width:14.93px" transform="matrix(.13392 0 0 .13392 -13161.26 -1467.357)"/><circle cx="102436" cy="13938.8" r="553.055" style="fill:#ffff9f;stroke:#000;stroke-width:14.93px" transform="matrix(.13392 0 0 .13392 -13259.238 -1625.155)"/><circle cx="102436" cy="13938.8" r="553.055" style="fill:#fff;stroke:#000;stroke-width:14.93px" transform="matrix(.13392 0 0 .13392 -13450.115 -1625.155)"/><circle cx="102436" cy="13938.8" r="553.055" style="fill:#9f9fff;stroke:#000;stroke-width:14.93px" transform="matrix(.13392 0 0 .13392 -13351.743 -1791.606)"/><circle cx="102436" cy="13938.8" r="553.055" style="fill:#ff6874;stroke:#000;stroke-width:14.93px" transform="matrix(.13392 0 0 .13392 -13353.575 -1467.357)"/><circle cx="102436" cy="13938.8" r="553.055" style="fill:#9f9fff;stroke:#000;stroke-width:14.93px" transform="matrix(.13392 0 0 .13392 -13542.272 -1791.606)"/><circle cx="102436" cy="13938.8" r="553.055" style="stroke:#000;stroke-width:14.93px" transform="matrix(.13392 0 0 .13392 -13643.104 -1625.554)"/><circle cx="102436" cy="13938.8" r="553.055" style="fill:#ff6874;stroke:#000;stroke-width:14.93px" transform="matrix(.13392 0 0 .13392 -13542.272 -1467.357)"/><text x="13099.4" y="1840.22" style="font-family:'Arial-BoldMT','Arial',sans-serif;font-weight:700;font-size:107.152px;fill:#231f20" transform="matrix(.29885 0 0 .29885 -3654.966 -332.038)">7</text><text x="13099.4" y="1840.22" style="font-family:'Arial-BoldMT','Arial',sans-serif;font-weight:700;font-size:107.152px;fill:#231f20" transform="matrix(.29885 0 0 .29885 -3463.462 -331.631)">4</text><text x="13102" y="1840.22" style="font-family:'Montserrat-Bold','Montserrat';font-weight:700;font-size:101.824px;fill:#e8e8e8" transform="matrix(.29885 0 0 .29885 -3850.784 -332.981)">0</text><text x="13099.4" y="1840.22" style="font-family:'Arial-BoldMT','Arial',sans-serif;font-weight:700;font-size:107.152px;fill:#231f20" transform="matrix(.29885 0 0 .29885 -3747.517 -498.162)">9</text><text x="13099.4" y="1840.22" style="font-family:'Arial-BoldMT','Arial',sans-serif;font-weight:700;font-size:107.152px;fill:#231f20" transform="matrix(.29885 0 0 .29885 -3557.358 -498.154)">6</text><text x="13099.4" y="1840.22" style="font-family:'Arial-BoldMT','Arial',sans-serif;font-weight:700;font-size:107.152px;fill:#231f20" transform="matrix(.29885 0 0 .29885 -3372.674 -498.154)">3</text><text x="13099.4" y="1840.22" style="font-family:'Arial-BoldMT','Arial',sans-serif;font-weight:700;font-size:107.152px;fill:#231f20" transform="matrix(.29885 0 0 .29885 -3271.518 -331.631)">1</text><text x="13099.4" y="1840.22" style="font-family:'Arial-BoldMT','Arial',sans-serif;font-weight:700;font-size:107.152px;fill:#231f20" transform="matrix(.29885 0 0 .29885 -3367.478 -178.343)">2</text><text x="13099.4" y="1840.22" style="font-family:'Arial-BoldMT','Arial',sans-serif;font-weight:700;font-size:107.152px;fill:#231f20" transform="matrix(.29885 0 0 .29885 -3747.702 -178.343)">8</text><text x="13099.4" y="1840.22" style="font-family:'Arial-BoldMT','Arial',sans-serif;font-weight:700;font-size:107.152px;fill:#231f20" transform="matrix(.29885 0 0 .29885 -3559.307 -178.75)">5</text><text x="2104.54" y="2396.87" style="font-family:'Montserrat-Bold','Montserrat';font-weight:700;font-size:13.388px" transform="matrix(.89633 0 0 .89632 -1580.686 -1744.62)">Ar<tspan x="2120.45" y="2396.87">q</tspan>uit<tspan x="2148.51px 2156.95px 2164.97px" y="2396.87px 2396.87px 2396.87px">ect</tspan>ura lógica</text><text x="2104.55" y="2396.87" style="font-family:'Montserrat-Bold','Montserrat';font-weight:700;font-size:13.388px" transform="matrix(.89633 0 0 .89632 -1357.75 -1744.62)">Int<tspan x="2123.79" y="2396.87">e</tspan>rf<tspan x="2143.06" y="2396.87">a</tspan>ce</text><text x="2104.54" y="2399.64" style="font-family:'Montserrat-Bold','Montserrat';font-weight:700;font-size:13.388px" transform="matrix(.89633 0 0 .89632 -1764.092 -1749.572)">Red - Despliegue</text><text x="2123.24" y="2396.87" style="font-family:'Montserrat-Bold','Montserrat';font-weight:700;font-size:13.388px" transform="matrix(.89633 0 0 .89632 -1279.28 -1903.565)">Viv<tspan x="2144.99" y="2396.87">e</tspan>ncia</text><text x="2118.78" y="2418.6" style="font-family:'Montserrat-Bold','Montserrat';font-weight:700;font-size:13.388px" transform="matrix(.89633 0 0 .89632 -1279.28 -1903.565)">Har<tspan x="2143.51px 2152.77px 2165.07px 2173.34px 2178.99px" y="2418.6px 2418.6px 2418.6px 2418.6px 2418.6px">dware</tspan></text><text x="2116.74" y="2396.87" style="font-family:'Montserrat-Bold','Montserrat';font-weight:700;font-size:13.388px" transform="matrix(.89633 0 0 .89632 -1392.687 -2068.87)">C<tspan x="2126.3" y="2396.87">ó</tspan>digo - Dat<tspan x="2204.17" y="2396.87">o</tspan>s</text><text x="2104.54" y="2396.87" style="font-family:'Montserrat-Bold','Montserrat';font-weight:700;font-size:13.388px" transform="matrix(.89633 0 0 .89632 -1584.443 -2068.87)">C<tspan x="2114.1" y="2396.87">o</tspan>ntr<tspan x="2143.59" y="2396.87">o</tspan>l de v<tspan x="2189.49" y="2396.87">e</tspan>rsiones</text><text x="2123.5" y="2399.64" style="font-family:'Montserrat-Bold','Montserrat';font-weight:700;font-size:13.388px" transform="matrix(.89633 0 0 .89632 -1757.748 -2071.341)">P<tspan x="2133.17px 2138.82px" y="2399.64px 2399.64px">ro</tspan>pósit<tspan x="2182.33" y="2399.64">o</tspan></text><text x="2115.26" y="2396.87" style="font-family:'Montserrat-Bold','Montserrat';font-weight:700;font-size:13.388px;fill:#e8e8e8" transform="matrix(.89633 0 0 .89632 -1846.856 -1903.565)">La Nube</text><text x="2104.54" y="2396.87" style="font-family:'Montserrat-Bold','Montserrat';font-weight:700;font-size:13.388px" transform="matrix(.89633 0 0 .89632 -1669.008 -1903.565)">Ser<tspan x="2127.5" y="2396.87">v</tspan>idor C<tspan x="2176.69" y="2396.87">e</tspan>ntral</text><text x="2104.54" y="2396.87" style="font-family:'Montserrat-Bold','Montserrat';font-weight:700;font-size:13.388px" transform="matrix(.89633 0 0 .89632 -1458.674 -1903.565)">P<tspan x="2114.21px 2119.86px" y="2396.87px 2396.87px">ro</tspan>grama</text><g transform="matrix(.75 0 0 .75 342.109 88.412)"><clipPath id="a"><path d="M0 0h64v64H0z"/></clipPath><g clip-path="url(#a)"><path d="M3 41.999 61 42M13 42l10-20h22" style="fill:none;fill-rule:nonzero;stroke:#000;stroke-width:1px;stroke-linejoin:miter;stroke-miterlimit:10" transform="translate(.5 .5)"/><path d="m51 32 10 10-10 10M35 12l10 10-10 10" style="fill:none;fill-rule:nonzero;stroke:#000;stroke-width:1px;stroke-linecap:square;stroke-linejoin:miter;stroke-miterlimit:10" transform="translate(.5 .5)"/></g></g><path d="M21 27.829c5.763-.96 10.029-5.995 10.029-11.837 0-6.583-5.417-12-12-12-5.872 0-10.924 4.31-11.85 10.108-3.801.489-6.541 3.993-6.1 7.8.416 3.473 3.402 6.113 6.9 6.1H11" style="fill:none;fill-rule:nonzero;stroke:#e8e8e8;stroke-width:1px;stroke-linecap:square;stroke-linejoin:miter;stroke-miterlimit:10" transform="translate(47.283 253.872) scale(1.73342)"/><path d="M16 15v12" style="fill:none;fill-rule:nonzero;stroke:#e8e8e8;stroke-width:1px;stroke-linejoin:miter;stroke-miterlimit:10" transform="translate(47.283 253.872) scale(1.73342)"/><path d="m21 22-5 5-5-5" style="fill:none;fill-rule:nonzero;stroke:#e8e8e8;stroke-width:1px;stroke-linecap:square;stroke-linejoin:miter;stroke-miterlimit:10" transform="translate(47.283 253.872) scale(1.73342)"/><path d="M20.5 13.437a4.995 4.995 0 0 0-3.506-1.438c-2.74 0-4.994 2.255-4.994 4.994V17M13.486 21.553c.938.921 2.2 1.44 3.514 1.447 2.743 0 5-2.257 5-5" style="fill:none;fill-rule:nonzero;stroke:#000;stroke-width:1px;stroke-linejoin:miter;stroke-miterlimit:10" transform="translate(516.206 226.381) scale(2.20012)"/><path d="M23 10.834V16h-5l5-5.166ZM11 24.166V19h5l-5 5.166Z" style="fill-rule:nonzero" transform="translate(516.206 226.381) scale(2.20012)"/><g transform="matrix(1.1875 0 0 1.1875 345.585 417.99)"><clipPath id="b"><path d="M0 0h32v32H0z"/></clipPath><g clip-path="url(#b)"><path d="m16 16 7-4 7 4-7 4-7-4Z" style="fill:none;fill-rule:nonzero;stroke:#000;stroke-width:1px;stroke-linecap:square;stroke-linejoin:miter;stroke-miterlimit:10" transform="translate(.5 .5)"/><path style="fill:none;stroke:#000;stroke-width:1px;stroke-linecap:square;stroke-linejoin:miter;stroke-miterlimit:10" d="M2 2h12v6H2zM2 24h12v6H2z" transform="translate(.5 .5)"/><path d="M8 11v10M17 5h6v4M17 27h6v-4" style="fill:none;fill-rule:nonzero;stroke:#000;stroke-width:1px;stroke-linecap:square;stroke-linejoin:miter;stroke-miterlimit:10" transform="translate(.5 .5)"/></g></g><g transform="matrix(1 0 0 1 518.904 91.666)"><clipPath id="c"><path d="M0 0h32v32H0z"/></clipPath><g clip-path="url(#c)"><path d="M3 5v22c0 2.3 6.1 4 13 4s13-1.7 13-4V5" style="fill:none;fill-rule:nonzero;stroke:#000;stroke-width:1px;stroke-linejoin:miter;stroke-miterlimit:10" transform="translate(.5 .5)"/><path d="M29 5c0 2.3-6.1 4-13 4S3 7.3 3 5s6.1-4 13-4 13 1.7 13 4ZM29 16c0 2.3-6.1 4-13 4S3 18.3 3 16" style="fill:none;fill-rule:nonzero;stroke:#000;stroke-width:1px;stroke-linecap:square;stroke-linejoin:miter;stroke-miterlimit:10" transform="translate(.5 .5)"/></g></g><g transform="matrix(1.34375 0 0 1.34375 154.4 415.49)"><clipPath id="d"><path d="M0 0h32v32H0z"/></clipPath><g clip-path="url(#d)"><g transform="translate(.5 .5)"><path d="M9.837 26.272C10.424 25.293 4.848 16 3.674 16c1.174 0 6.75-9.293 6.163-10.272.587.978 11.739.978 12.326 0C21.576 6.707 27.152 16 28.326 16c-1.174 0-6.75 9.293-6.163 10.272-.587-.979-11.739-.979-12.326 0Z" style="fill:none;fill-rule:nonzero;stroke:#000;stroke-width:1px;stroke-linecap:square;stroke-linejoin:miter;stroke-miterlimit:10"/><path d="M12.719 21.478C13.031 20.957 9.804 16 9.152 16c.652 0 3.879-4.957 3.567-5.478.313.522 6.25.522 6.562 0-.312.521 2.915 5.478 3.567 5.478-.652 0-3.879 4.957-3.567 5.478-.312-.521-6.25-.521-6.562 0Z" style="fill:none;fill-rule:nonzero;stroke:#000;stroke-width:1px;stroke-linecap:square;stroke-linejoin:miter;stroke-miterlimit:10"/><path d="M22.776 16H31M1 16h8.224M19.262 21.397l4.497 7.44M8.241 3.163l4.497 7.44M12.738 21.397l-4.497 7.44M23.759 3.163l-4.497 7.44" style="fill:none;fill-rule:nonzero;stroke:#000;stroke-width:1px;stroke-linejoin:miter;stroke-miterlimit:10"/><circle cx="16" cy="16" r="1" style="fill:none;stroke:#000;stroke-width:1px;stroke-linecap:square;stroke-linejoin:miter;stroke-miterlimit:10"/><circle cx="16" cy="16" r="1"/></g></g></g><g><g transform="matrix(1 0 0 1 159.9 95.065)"><clipPath id="e"><path d="M0 0h32v32H0z"/></clipPath><g clip-path="url(#e)"><g transform="translate(.5 .5)"><path d="m23 9-9 5-5 9 9-5 5-9Z" style="fill:none;fill-rule:nonzero;stroke:#000;stroke-width:1px;stroke-linecap:square;stroke-linejoin:miter;stroke-miterlimit:10"/><circle cx="16" cy="16" r="15" style="fill:none;stroke:#000;stroke-width:1px;stroke-linecap:square;stroke-linejoin:miter;stroke-miterlimit:10"/></g></g></g></g><g><g transform="matrix(1.15625 0 0 1.15625 553.6 89.166)"><clipPath id="f"><path d="M0 0h32v32H0z"/></clipPath><g clip-path="url(#f)"><path d="M10 18v10l3.75-3.094" style="fill:none;fill-rule:nonzero;stroke:#000;stroke-width:1px;stroke-linecap:square;stroke-linejoin:miter;stroke-miterlimit:10" transform="translate(.5 .5)"/><path d="M30 2 10 18" style="fill:none;fill-rule:nonzero;stroke:#000;stroke-width:1px;stroke-linejoin:miter;stroke-miterlimit:10" transform="translate(.5 .5)"/><path d="M2 12 30 2l-5 27L2 12Z" style="fill:none;fill-rule:nonzero;stroke:#000;stroke-width:1px;stroke-linecap:square;stroke-linejoin:miter;stroke-miterlimit:10" transform="translate(.5 .5)"/></g></g></g><g><g transform="matrix(1 0 0 1 540.903 417.95)"><clipPath id="g"><path d="M0 0h32v32H0z"/></clipPath><g clip-path="url(#g)"><path d="M12 19v3M24.128 17.478 16 16V9a2 2 0 1 0-4 0v10h-2a2 2 0 0 0-2 2v2.895c0 1.363.464 2.685 1.315 3.749L12 31h13l1.556-10.114a3 3 0 0 0-2.428-3.408Z" style="fill:none;fill-rule:nonzero;stroke:#000;stroke-width:1px;stroke-linecap:square;stroke-linejoin:miter;stroke-miterlimit:10" transform="translate(.5 .5)"/><path d="M8.255 12.001a7 7 0 1 1 11.49 0" style="fill:none;fill-rule:nonzero;stroke:#000;stroke-width:1px;stroke-linejoin:miter;stroke-miterlimit:10" transform="translate(.5 .5)"/></g></g></g><g><g transform="matrix(1.09375 0 0 1.09375 684.223 223.613)"><clipPath id="h"><path d="M0 0h32v32H0z"/></clipPath><g clip-path="url(#h)"><path d="M5 2h22M5 30h22" style="fill:none;fill-rule:nonzero;stroke:#000;stroke-width:1px;stroke-linecap:square;stroke-linejoin:miter;stroke-miterlimit:10" transform="translate(.5 .5)"/><path d="M25 2v4.279a6.002 6.002 0 0 1-.912 3.18L20 16l4.088 6.541c.596.954.912 2.056.912 3.18V30M7 30v-4.279c0-1.124.316-2.226.912-3.18L12 16 7.912 9.459A6.002 6.002 0 0 1 7 6.279V2" style="fill:none;fill-rule:nonzero;stroke:#000;stroke-width:1px;stroke-linejoin:miter;stroke-miterlimit:10" transform="translate(.5 .5)"/><path d="M11 26v-.279a2.001 2.001 0 0 1 .3-1.059l3.852-6.162a1 1 0 0 1 1.7 0l3.848 6.161c.197.318.301.686.3 1.06V26H11Z" style="fill-rule:nonzero" transform="translate(.5 .5)"/></g></g></g><g><g transform="matrix(0 1.25 -1.25 0 288.044 254.88)"><clipPath id="i"><path d="M0 0h32v32H0z"/></clipPath><g clip-path="url(#i)"><path d="M30 5 19 16v10l-6 4V16L2 5V1h28v4Z" style="fill:none;fill-rule:nonzero;stroke:#000;stroke-width:1px;stroke-linecap:square;stroke-linejoin:miter;stroke-miterlimit:10" transform="translate(.5 .5)"/></g></g></g><g><g transform="matrix(.90625 0 0 .90625 636.106 274.88)"><clipPath id="j"><path d="M0 0h32v32H0z"/></clipPath><g clip-path="url(#j)"><path d="M6 26h2M18 26h8" style="fill:none;fill-rule:nonzero;stroke:#000;stroke-width:1px;stroke-linecap:square;stroke-linejoin:miter;stroke-miterlimit:10" transform="translate(.5 .5)"/><path style="fill:none;stroke:#000;stroke-width:1px;stroke-linecap:square;stroke-linejoin:miter;stroke-miterlimit:10" d="M4 1h24v16H4z" transform="translate(.5 .5)"/><path d="M31 31H1v-7l-.001-.055a2.96 2.96 0 0 1 2.946-2.946L4 21h24l.055-.001a2.96 2.96 0 0 1 2.946 2.946L31 24v7Z" style="fill:none;fill-rule:nonzero;stroke:#000;stroke-width:1px;stroke-linecap:square;stroke-linejoin:miter;stroke-miterlimit:10" transform="translate(.5 .5)"/></g></g></g><g><g transform="matrix(1 0 0 1 442.92 262.88)"><clipPath id="k"><path d="M0 0h32v32H0z"/></clipPath><g clip-path="url(#k)"><g transform="translate(.5 .5)"><path d="M20 18h7M20 23h7" style="fill:none;fill-rule:nonzero;stroke:#000;stroke-width:1px;stroke-linecap:square;stroke-linejoin:miter;stroke-miterlimit:10"/><circle cx="11" cy="17" r="2" style="fill:none;stroke:#000;stroke-width:1px;stroke-linecap:square;stroke-linejoin:miter;stroke-miterlimit:10"/><path d="M16 26H6a4 4 0 0 1 4-4h2a4 4 0 0 1 4 4Z" style="fill:none;fill-rule:nonzero;stroke:#000;stroke-width:1px;stroke-linecap:square;stroke-linejoin:miter;stroke-miterlimit:10"/><path d="M19 8h12v23H1V8h12" style="fill:none;fill-rule:nonzero;stroke:#000;stroke-width:1px;stroke-linecap:square;stroke-linejoin:miter;stroke-miterlimit:10"/><path d="M19 11h-6V4a3 3 0 1 1 6 0v7Z" style="fill:none;fill-rule:nonzero;stroke:#000;stroke-width:1px;stroke-linecap:square;stroke-linejoin:miter;stroke-miterlimit:10"/></g></g></g></g></svg>